<svg xmlns="http://www.w3.org/2000/svg" xmlns:xlink="http://www.w3.org/1999/xlink" width="755" zoomAndPan="magnify" viewBox="0 0 567 567.000005" height="755" preserveAspectRatio="xMidYMid meet" version="1.0"><defs><clipPath id="4fd044cb7b"><path d="M 107 56.59375 L 394 56.59375 L 394 513 L 107 513 Z M 107 56.59375 " clip-rule="nonzero"/></clipPath></defs><path fill="#ea5b70" d="M 453.199219 147.359375 C 453.199219 148.320312 453.121094 149.28125 452.960938 150.238281 C 452.804688 151.195312 452.570312 152.144531 452.257812 153.085938 C 451.945312 154.027344 451.554688 154.960938 451.089844 155.878906 C 450.625 156.800781 450.085938 157.703125 449.472656 158.589844 C 448.859375 159.480469 448.171875 160.347656 447.417969 161.195312 C 446.660156 162.042969 445.839844 162.863281 444.949219 163.664062 C 444.058594 164.464844 443.101562 165.234375 442.085938 165.976562 C 441.070312 166.71875 439.992188 167.429688 438.859375 168.109375 C 437.726562 168.789062 436.539062 169.433594 435.300781 170.042969 C 434.0625 170.65625 432.773438 171.226562 431.441406 171.761719 C 430.109375 172.292969 428.734375 172.789062 427.320312 173.242188 C 425.90625 173.695312 424.460938 174.105469 422.980469 174.472656 C 421.5 174.839844 419.992188 175.164062 418.457031 175.441406 C 416.921875 175.722656 415.367188 175.953125 413.796875 176.140625 C 412.222656 176.328125 410.640625 176.46875 409.042969 176.5625 C 407.449219 176.660156 405.847656 176.707031 404.246094 176.707031 C 402.644531 176.707031 401.042969 176.660156 399.449219 176.5625 C 397.851562 176.46875 396.269531 176.328125 394.695312 176.140625 C 393.125 175.953125 391.570312 175.722656 390.035156 175.441406 C 388.503906 175.164062 386.996094 174.839844 385.511719 174.472656 C 384.03125 174.105469 382.585938 173.695312 381.171875 173.242188 C 379.757812 172.789062 378.382812 172.292969 377.050781 171.761719 C 375.71875 171.226562 374.429688 170.65625 373.191406 170.042969 C 371.953125 169.433594 370.765625 168.789062 369.632812 168.109375 C 368.5 167.429688 367.421875 166.71875 366.40625 165.976562 C 365.390625 165.234375 364.433594 164.464844 363.542969 163.664062 C 362.652344 162.863281 361.832031 162.042969 361.074219 161.195312 C 360.320312 160.347656 359.632812 159.480469 359.019531 158.589844 C 358.40625 157.703125 357.867188 156.800781 357.402344 155.878906 C 356.9375 154.960938 356.546875 154.027344 356.234375 153.085938 C 355.921875 152.144531 355.6875 151.195312 355.53125 150.238281 C 355.375 149.28125 355.292969 148.320312 355.292969 147.359375 C 355.292969 146.398438 355.375 145.441406 355.53125 144.484375 C 355.6875 143.527344 355.921875 142.578125 356.234375 141.636719 C 356.546875 140.695312 356.9375 139.761719 357.402344 138.84375 C 357.867188 137.921875 358.40625 137.019531 359.019531 136.132812 C 359.632812 135.242188 360.320312 134.375 361.074219 133.527344 C 361.832031 132.679688 362.652344 131.855469 363.542969 131.058594 C 364.433594 130.257812 365.390625 129.488281 366.40625 128.746094 C 367.421875 128.003906 368.5 127.289062 369.632812 126.609375 C 370.765625 125.933594 371.953125 125.285156 373.191406 124.675781 C 374.429688 124.066406 375.71875 123.496094 377.050781 122.960938 C 378.382812 122.429688 379.757812 121.933594 381.171875 121.480469 C 382.585938 121.027344 384.03125 120.617188 385.511719 120.25 C 386.996094 119.882812 388.503906 119.558594 390.035156 119.28125 C 391.570312 119 393.125 118.769531 394.695312 118.582031 C 396.269531 118.394531 397.851562 118.253906 399.449219 118.15625 C 401.042969 118.0625 402.644531 118.015625 404.246094 118.015625 C 405.847656 118.015625 407.449219 118.0625 409.042969 118.15625 C 410.640625 118.253906 412.222656 118.394531 413.796875 118.582031 C 415.367188 118.769531 416.921875 119 418.457031 119.28125 C 419.992188 119.558594 421.5 119.882812 422.980469 120.25 C 424.460938 120.617188 425.90625 121.027344 427.320312 121.480469 C 428.734375 121.933594 430.109375 122.429688 431.441406 122.960938 C 432.773438 123.496094 434.0625 124.066406 435.300781 124.675781 C 436.539062 125.285156 437.726562 125.933594 438.859375 126.609375 C 439.992188 127.289062 441.070312 128.003906 442.085938 128.746094 C 443.101562 129.488281 444.058594 130.257812 444.949219 131.058594 C 445.839844 131.855469 446.660156 132.679688 447.417969 133.527344 C 448.171875 134.375 448.859375 135.242188 449.472656 136.132812 C 450.085938 137.019531 450.625 137.921875 451.089844 138.84375 C 451.554688 139.761719 451.945312 140.695312 452.257812 141.636719 C 452.570312 142.578125 452.804688 143.527344 452.960938 144.484375 C 453.121094 145.441406 453.199219 146.398438 453.199219 147.359375 Z M 453.199219 147.359375 " fill-opacity="1" fill-rule="nonzero"/><path fill="#ffb5c0" d="M 439.96875 111.738281 C 415.648438 103.34375 383.339844 104.328125 360.929688 114.726562 C 346.980469 121.199219 335.410156 132.09375 335.398438 147.300781 C 335.386719 160.128906 343.804688 171.414062 359.109375 179.074219 C 384.285156 191.671875 423.734375 191.898438 449.304688 179.152344 C 464.621094 171.519531 473.0625 160.25 473.074219 147.421875 C 473.089844 129.429688 457.101562 117.648438 439.96875 111.738281 Z M 437.015625 154.539062 C 425.007812 160.523438 407.105469 162.414062 391.34375 160.226562 C 391.335938 160.226562 391.328125 160.226562 391.316406 160.226562 C 391.328125 160.226562 391.335938 160.226562 391.34375 160.226562 C 383.96875 159.203125 377.058594 157.292969 371.445312 154.484375 C 364.410156 150.960938 362.933594 147.800781 362.933594 147.328125 C 362.933594 146.851562 364.417969 143.695312 371.457031 140.183594 C 383.46875 134.199219 401.378906 132.308594 417.144531 134.5 C 424.515625 135.523438 431.417969 137.433594 437.027344 140.242188 C 444.0625 143.761719 445.539062 146.921875 445.539062 147.398438 C 445.539062 147.871094 444.054688 151.027344 437.015625 154.539062 Z M 437.015625 154.539062 " fill-opacity="1" fill-rule="nonzero"/><path fill="#ff8e9e" d="M 360.929688 114.726562 L 227.0625 114.726562 L 227.0625 478.324219 L 393.292969 478.324219 C 438.285156 445.925781 467.539062 393.382812 467.539062 334.078125 C 467.539062 262.023438 415.660156 179.863281 360.929688 114.726562 Z M 360.929688 114.726562 " fill-opacity="1" fill-rule="nonzero"/><g clip-path="url(#4fd044cb7b)"><path fill="#ea5b70" d="M 323.792969 460.066406 C 296.15625 445.148438 273.757812 421.925781 260.105469 393.371094 C 250.765625 373.835938 245.53125 351.789062 245.53125 328.167969 C 245.53125 257.761719 307.433594 172.289062 360.929688 114.726562 C 347.734375 99.019531 334.371094 84.296875 321.53125 70.953125 C 312.660156 61.734375 300.4375 56.574219 287.640625 56.59375 C 274.863281 56.613281 262.585938 61.785156 253.746094 71.011719 C 188.417969 139.207031 107.742188 246.554688 107.742188 334.078125 C 107.742188 435.332031 188.746094 512.289062 287.640625 512.292969 C 327.125 512.296875 363.625 499.6875 393.292969 478.324219 C 368.15625 477.761719 344.507812 471.242188 323.792969 460.066406 Z M 323.792969 460.066406 " fill-opacity="1" fill-rule="nonzero"/></g><path fill="#ea5b70" d="M 96.09375 310.441406 C 97.226562 309.308594 98.390625 308.210938 99.585938 307.152344 C 100.78125 306.09375 102 305.074219 103.246094 304.09375 C 104.488281 303.117188 105.753906 302.183594 107.035156 301.300781 C 108.316406 300.414062 109.613281 299.578125 110.921875 298.789062 C 112.226562 298.003906 113.542969 297.273438 114.863281 296.59375 C 116.183594 295.914062 117.503906 295.292969 118.824219 294.730469 C 120.144531 294.167969 121.457031 293.664062 122.765625 293.21875 C 124.074219 292.773438 125.367188 292.390625 126.648438 292.070312 C 127.933594 291.75 129.195312 291.496094 130.441406 291.300781 C 131.6875 291.109375 132.90625 290.980469 134.101562 290.914062 C 135.296875 290.851562 136.460938 290.851562 137.597656 290.917969 C 138.730469 290.984375 139.828125 291.113281 140.890625 291.308594 C 141.953125 291.503906 142.972656 291.761719 143.953125 292.082031 C 144.933594 292.402344 145.867188 292.785156 146.757812 293.230469 C 147.644531 293.679688 148.480469 294.183594 149.269531 294.75 C 150.058594 295.3125 150.792969 295.9375 151.472656 296.617188 C 152.152344 297.296875 152.777344 298.027344 153.339844 298.816406 C 153.90625 299.601562 154.414062 300.441406 154.859375 301.328125 C 155.304688 302.214844 155.6875 303.148438 156.011719 304.125 C 156.332031 305.105469 156.589844 306.125 156.785156 307.1875 C 156.980469 308.246094 157.109375 309.34375 157.175781 310.476562 C 157.242188 311.609375 157.242188 312.773438 157.175781 313.96875 C 157.113281 315.164062 156.984375 316.382812 156.792969 317.625 C 156.597656 318.867188 156.339844 320.132812 156.019531 321.410156 C 155.699219 322.691406 155.316406 323.988281 154.871094 325.292969 C 154.429688 326.601562 153.921875 327.914062 153.359375 329.230469 C 152.792969 330.550781 152.171875 331.871094 151.492188 333.1875 C 150.8125 334.507812 150.082031 335.820312 149.292969 337.125 C 148.507812 338.433594 147.671875 339.726562 146.78125 341.007812 C 145.894531 342.285156 144.960938 343.546875 143.984375 344.792969 C 143.003906 346.035156 141.984375 347.253906 140.921875 348.445312 C 139.859375 349.640625 138.765625 350.804688 137.628906 351.933594 C 136.496094 353.066406 135.332031 354.164062 134.136719 355.222656 C 132.941406 356.285156 131.722656 357.304688 130.480469 358.28125 C 129.234375 359.257812 127.972656 360.191406 126.6875 361.078125 C 125.40625 361.964844 124.113281 362.800781 122.804688 363.585938 C 121.496094 364.371094 120.183594 365.105469 118.863281 365.78125 C 117.542969 366.460938 116.222656 367.082031 114.902344 367.648438 C 113.582031 368.210938 112.265625 368.714844 110.960938 369.160156 C 109.652344 369.601562 108.355469 369.984375 107.074219 370.304688 C 105.792969 370.625 104.527344 370.882812 103.285156 371.074219 C 102.039062 371.269531 100.820312 371.398438 99.625 371.460938 C 98.429688 371.523438 97.261719 371.523438 96.128906 371.460938 C 94.996094 371.394531 93.898438 371.261719 92.835938 371.070312 C 91.773438 370.875 90.75 370.617188 89.769531 370.296875 C 88.792969 369.972656 87.855469 369.589844 86.96875 369.144531 C 86.082031 368.699219 85.242188 368.195312 84.453125 367.628906 C 83.667969 367.0625 82.933594 366.441406 82.253906 365.761719 C 81.570312 365.082031 80.949219 364.347656 80.382812 363.5625 C 79.816406 362.773438 79.3125 361.9375 78.867188 361.050781 C 78.417969 360.164062 78.035156 359.230469 77.714844 358.25 C 77.390625 357.269531 77.132812 356.25 76.9375 355.191406 C 76.746094 354.128906 76.613281 353.03125 76.550781 351.898438 C 76.484375 350.765625 76.484375 349.601562 76.546875 348.410156 C 76.609375 347.214844 76.738281 345.996094 76.933594 344.75 C 77.125 343.507812 77.382812 342.246094 77.703125 340.964844 C 78.023438 339.683594 78.40625 338.390625 78.851562 337.082031 C 79.296875 335.777344 79.800781 334.464844 80.367188 333.144531 C 80.929688 331.828125 81.550781 330.507812 82.230469 329.1875 C 82.910156 327.871094 83.644531 326.558594 84.429688 325.25 C 85.21875 323.945312 86.054688 322.652344 86.941406 321.371094 C 87.828125 320.089844 88.761719 318.828125 89.742188 317.585938 C 90.71875 316.34375 91.742188 315.125 92.800781 313.929688 C 93.863281 312.738281 94.960938 311.574219 96.09375 310.441406 Z M 96.09375 310.441406 " fill-opacity="1" fill-rule="nonzero"/><path fill="#ffb5c0" d="M 165.570312 282.59375 C 156.488281 273.523438 142.542969 271.503906 126.308594 276.910156 C 123.171875 277.953125 120.027344 279.265625 116.902344 280.785156 L 106.789062 289.074219 L 106.789062 313.003906 L 116.902344 313.003906 C 122.832031 308.515625 129.0625 304.988281 135.015625 303.007812 C 142.480469 300.519531 145.761719 301.707031 146.097656 302.042969 C 146.433594 302.378906 147.621094 305.660156 145.132812 313.117188 C 140.890625 325.828125 129.582031 339.824219 116.902344 349.421875 C 116.894531 349.429688 116.886719 349.433594 116.882812 349.441406 L 106.789062 357.714844 L 106.789062 381.644531 L 116.902344 381.644531 C 140.640625 370.074219 163.328125 345.585938 171.261719 321.8125 C 176.671875 305.59375 174.648438 291.664062 165.570312 282.59375 Z M 165.570312 282.59375 " fill-opacity="1" fill-rule="nonzero"/><path fill="#ff8e9e" d="M 116.898438 349.421875 C 110.964844 353.914062 104.726562 357.449219 98.769531 359.429688 C 91.304688 361.917969 88.023438 360.730469 87.6875 360.394531 C 87.351562 360.058594 86.160156 356.777344 88.652344 349.320312 C 92.894531 336.601562 104.210938 322.601562 116.898438 313.003906 C 112.621094 308.730469 110.222656 302.9375 110.222656 296.894531 C 110.222656 290.851562 112.621094 285.058594 116.898438 280.785156 C 93.15625 292.351562 70.460938 316.847656 62.527344 340.621094 C 57.117188 356.84375 59.132812 370.773438 68.214844 379.84375 C 77.296875 388.914062 91.242188 390.933594 107.476562 385.527344 C 110.617188 384.480469 113.765625 383.167969 116.898438 381.644531 C 112.621094 377.371094 110.21875 371.574219 110.21875 365.53125 C 110.21875 359.488281 112.621094 353.695312 116.898438 349.421875 Z M 116.898438 349.421875 " fill-opacity="1" fill-rule="nonzero"/><path fill="#d34459" d="M 423.699219 420.453125 C 424.382812 419.773438 425.113281 419.152344 425.902344 418.585938 C 426.691406 418.019531 427.53125 417.515625 428.417969 417.070312 C 429.304688 416.625 430.238281 416.242188 431.21875 415.917969 C 432.199219 415.597656 433.222656 415.339844 434.28125 415.144531 C 435.34375 414.949219 436.445312 414.820312 437.578125 414.753906 C 438.710938 414.691406 439.875 414.6875 441.070312 414.753906 C 442.265625 414.816406 443.488281 414.945312 444.730469 415.140625 C 445.976562 415.332031 447.242188 415.589844 448.523438 415.910156 C 449.804688 416.230469 451.101562 416.613281 452.410156 417.054688 C 453.714844 417.5 455.03125 418.003906 456.351562 418.570312 C 457.671875 419.132812 458.992188 419.753906 460.3125 420.433594 C 461.632812 421.109375 462.945312 421.84375 464.253906 422.628906 C 465.5625 423.414062 466.855469 424.25 468.136719 425.136719 C 469.417969 426.023438 470.683594 426.957031 471.925781 427.933594 C 473.171875 428.910156 474.390625 429.929688 475.585938 430.992188 C 476.78125 432.050781 477.945312 433.148438 479.078125 434.28125 C 480.210938 435.414062 481.308594 436.574219 482.371094 437.769531 C 483.433594 438.960938 484.453125 440.179688 485.429688 441.425781 C 486.410156 442.667969 487.34375 443.929688 488.230469 445.210938 C 489.117188 446.492188 489.953125 447.785156 490.742188 449.089844 C 491.527344 450.398438 492.261719 451.710938 492.941406 453.027344 C 493.621094 454.347656 494.242188 455.667969 494.804688 456.984375 C 495.371094 458.304688 495.875 459.617188 496.320312 460.921875 C 496.765625 462.230469 497.148438 463.523438 497.46875 464.804688 C 497.789062 466.085938 498.046875 467.347656 498.238281 468.589844 C 498.433594 469.835938 498.558594 471.054688 498.625 472.25 C 498.6875 473.441406 498.6875 474.605469 498.621094 475.738281 C 498.558594 476.871094 498.425781 477.96875 498.230469 479.03125 C 498.039062 480.089844 497.777344 481.109375 497.457031 482.089844 C 497.136719 483.070312 496.75 484 496.304688 484.890625 C 495.859375 485.777344 495.355469 486.613281 494.789062 487.402344 C 494.222656 488.1875 493.597656 488.921875 492.917969 489.601562 C 492.238281 490.28125 491.503906 490.902344 490.714844 491.46875 C 489.929688 492.03125 489.089844 492.539062 488.203125 492.984375 C 487.3125 493.429688 486.378906 493.8125 485.398438 494.132812 C 484.417969 494.457031 483.398438 494.714844 482.335938 494.910156 C 481.273438 495.101562 480.175781 495.234375 479.042969 495.296875 C 477.90625 495.363281 476.742188 495.363281 475.546875 495.300781 C 474.351562 495.234375 473.132812 495.105469 471.886719 494.914062 C 470.640625 494.722656 469.378906 494.464844 468.097656 494.144531 C 466.8125 493.824219 465.519531 493.441406 464.210938 492.996094 C 462.902344 492.554688 461.589844 492.050781 460.269531 491.484375 C 458.949219 490.921875 457.628906 490.300781 456.308594 489.621094 C 454.988281 488.941406 453.675781 488.210938 452.367188 487.425781 C 451.058594 486.636719 449.765625 485.800781 448.480469 484.914062 C 447.199219 484.03125 445.9375 483.097656 444.691406 482.121094 C 443.449219 481.140625 442.226562 480.121094 441.035156 479.0625 C 439.839844 478 438.675781 476.90625 437.542969 475.773438 C 436.40625 474.640625 435.308594 473.476562 434.25 472.285156 C 433.1875 471.089844 432.167969 469.871094 431.1875 468.628906 C 430.210938 467.386719 429.277344 466.125 428.390625 464.84375 C 427.5 463.5625 426.664062 462.269531 425.878906 460.960938 C 425.089844 459.65625 424.359375 458.34375 423.679688 457.023438 C 423 455.707031 422.378906 454.386719 421.8125 453.066406 C 421.25 451.75 420.746094 450.4375 420.300781 449.128906 C 419.855469 447.824219 419.472656 446.53125 419.152344 445.25 C 418.832031 443.96875 418.574219 442.707031 418.382812 441.460938 C 418.1875 440.21875 418.058594 439 417.996094 437.804688 C 417.929688 436.613281 417.933594 435.449219 417.996094 434.316406 C 418.0625 433.183594 418.191406 432.085938 418.386719 431.023438 C 418.582031 429.960938 418.839844 428.941406 419.164062 427.964844 C 419.484375 426.984375 419.867188 426.050781 420.3125 425.164062 C 420.761719 424.277344 421.265625 423.441406 421.832031 422.652344 C 422.398438 421.867188 423.019531 421.132812 423.699219 420.453125 Z M 423.699219 420.453125 " fill-opacity="1" fill-rule="nonzero"/><path fill="#ff8e9e" d="M 507.066406 503.640625 C 497.984375 512.710938 484.042969 514.730469 467.804688 509.320312 C 464.671875 508.277344 461.523438 506.96875 458.398438 505.445312 L 448.285156 497.15625 L 448.285156 473.226562 L 458.398438 473.226562 C 464.328125 477.714844 470.558594 481.246094 476.511719 483.226562 C 483.976562 485.710938 487.257812 484.527344 487.59375 484.191406 C 487.933594 483.855469 489.121094 480.574219 486.632812 473.117188 C 482.386719 460.402344 471.078125 446.410156 458.398438 436.8125 C 458.390625 436.804688 458.382812 436.796875 458.378906 436.792969 L 448.285156 428.519531 L 448.285156 404.589844 L 458.398438 404.589844 C 482.136719 416.15625 504.824219 440.648438 512.753906 464.421875 C 518.167969 480.640625 516.144531 494.570312 507.066406 503.640625 Z M 507.066406 503.640625 " fill-opacity="1" fill-rule="nonzero"/><path fill="#ea5b70" d="M 458.398438 436.808594 C 452.460938 432.316406 446.222656 428.78125 440.269531 426.800781 C 432.800781 424.3125 429.519531 425.5 429.183594 425.835938 C 428.847656 426.171875 427.660156 429.453125 430.148438 436.910156 C 434.390625 449.628906 445.707031 463.628906 458.398438 473.226562 C 454.121094 477.5 451.71875 483.296875 451.71875 489.335938 C 451.71875 495.378906 454.121094 501.171875 458.398438 505.445312 C 434.652344 493.878906 411.957031 469.386719 404.023438 445.609375 C 398.613281 429.386719 400.632812 415.460938 409.714844 406.390625 C 418.792969 397.316406 432.738281 395.296875 448.976562 400.707031 C 452.113281 401.75 455.265625 403.0625 458.394531 404.589844 C 454.117188 408.863281 451.714844 414.65625 451.714844 420.699219 C 451.714844 426.742188 454.117188 432.539062 458.398438 436.808594 Z M 458.398438 436.808594 " fill-opacity="1" fill-rule="nonzero"/><path fill="#ffffff" d="M 241.5625 257.472656 C 241.5625 258.175781 241.519531 258.875 241.433594 259.574219 C 241.347656 260.273438 241.21875 260.96875 241.046875 261.65625 C 240.871094 262.34375 240.660156 263.023438 240.402344 263.695312 C 240.144531 264.367188 239.847656 265.027344 239.511719 265.675781 C 239.175781 266.324219 238.796875 266.957031 238.382812 267.578125 C 237.964844 268.195312 237.511719 268.796875 237.023438 269.382812 C 236.53125 269.964844 236.007812 270.527344 235.445312 271.070312 C 234.886719 271.613281 234.296875 272.132812 233.671875 272.628906 C 233.046875 273.125 232.394531 273.597656 231.710938 274.042969 C 231.03125 274.488281 230.320312 274.90625 229.589844 275.296875 C 228.855469 275.6875 228.097656 276.046875 227.320312 276.378906 C 226.542969 276.707031 225.746094 277.007812 224.929688 277.277344 C 224.113281 277.542969 223.285156 277.78125 222.441406 277.984375 C 221.597656 278.1875 220.742188 278.359375 219.875 278.496094 C 219.011719 278.632812 218.136719 278.734375 217.261719 278.804688 C 216.382812 278.875 215.5 278.90625 214.617188 278.90625 C 213.738281 278.90625 212.855469 278.875 211.976562 278.804688 C 211.101562 278.734375 210.226562 278.632812 209.363281 278.496094 C 208.496094 278.359375 207.640625 278.1875 206.796875 277.984375 C 205.953125 277.78125 205.125 277.542969 204.308594 277.277344 C 203.492188 277.007812 202.695312 276.707031 201.917969 276.378906 C 201.140625 276.046875 200.382812 275.6875 199.648438 275.296875 C 198.917969 274.90625 198.207031 274.488281 197.527344 274.042969 C 196.84375 273.597656 196.191406 273.125 195.566406 272.628906 C 194.941406 272.132812 194.351562 271.613281 193.792969 271.070312 C 193.230469 270.527344 192.707031 269.964844 192.214844 269.382812 C 191.726562 268.796875 191.273438 268.195312 190.855469 267.578125 C 190.441406 266.957031 190.0625 266.324219 189.726562 265.675781 C 189.386719 265.027344 189.089844 264.367188 188.835938 263.695312 C 188.578125 263.023438 188.363281 262.34375 188.191406 261.65625 C 188.019531 260.96875 187.890625 260.273438 187.804688 259.574219 C 187.71875 258.875 187.675781 258.175781 187.675781 257.472656 C 187.675781 256.773438 187.71875 256.070312 187.804688 255.375 C 187.890625 254.675781 188.019531 253.980469 188.191406 253.292969 C 188.363281 252.605469 188.578125 251.921875 188.835938 251.253906 C 189.089844 250.582031 189.386719 249.921875 189.726562 249.273438 C 190.0625 248.621094 190.441406 247.988281 190.855469 247.371094 C 191.273438 246.75 191.726562 246.148438 192.214844 245.566406 C 192.707031 244.980469 193.230469 244.417969 193.792969 243.875 C 194.351562 243.332031 194.941406 242.8125 195.566406 242.316406 C 196.191406 241.820312 196.84375 241.351562 197.527344 240.90625 C 198.207031 240.460938 198.917969 240.042969 199.648438 239.652344 C 200.382812 239.261719 201.140625 238.902344 201.917969 238.570312 C 202.695312 238.238281 203.492188 237.941406 204.308594 237.671875 C 205.125 237.402344 205.953125 237.167969 206.796875 236.964844 C 207.640625 236.757812 208.496094 236.589844 209.363281 236.453125 C 210.226562 236.316406 211.101562 236.210938 211.976562 236.144531 C 212.855469 236.074219 213.738281 236.039062 214.617188 236.039062 C 215.5 236.039062 216.382812 236.074219 217.261719 236.144531 C 218.136719 236.210938 219.011719 236.316406 219.875 236.453125 C 220.742188 236.589844 221.597656 236.757812 222.441406 236.964844 C 223.285156 237.167969 224.113281 237.402344 224.929688 237.671875 C 225.746094 237.941406 226.542969 238.238281 227.320312 238.570312 C 228.097656 238.902344 228.855469 239.261719 229.589844 239.652344 C 230.320312 240.042969 231.03125 240.460938 231.710938 240.90625 C 232.394531 241.351562 233.046875 241.820312 233.671875 242.316406 C 234.296875 242.8125 234.886719 243.332031 235.445312 243.875 C 236.007812 244.417969 236.53125 244.980469 237.023438 245.566406 C 237.511719 246.148438 237.964844 246.75 238.382812 247.371094 C 238.796875 247.988281 239.175781 248.621094 239.511719 249.273438 C 239.847656 249.921875 240.144531 250.582031 240.402344 251.253906 C 240.660156 251.921875 240.871094 252.605469 241.046875 253.292969 C 241.21875 253.980469 241.347656 254.675781 241.433594 255.375 C 241.519531 256.070312 241.5625 256.773438 241.5625 257.472656 Z M 241.5625 257.472656 " fill-opacity="1" fill-rule="nonzero"/><path fill="#ffffff" d="M 387.605469 257.472656 C 387.605469 258.175781 387.5625 258.875 387.476562 259.574219 C 387.390625 260.273438 387.261719 260.96875 387.089844 261.65625 C 386.914062 262.34375 386.703125 263.023438 386.445312 263.695312 C 386.1875 264.367188 385.890625 265.027344 385.554688 265.675781 C 385.21875 266.324219 384.839844 266.957031 384.425781 267.578125 C 384.007812 268.195312 383.554688 268.796875 383.066406 269.382812 C 382.574219 269.964844 382.050781 270.527344 381.488281 271.070312 C 380.929688 271.613281 380.339844 272.132812 379.714844 272.628906 C 379.089844 273.125 378.4375 273.597656 377.753906 274.042969 C 377.074219 274.488281 376.363281 274.90625 375.632812 275.296875 C 374.898438 275.6875 374.140625 276.046875 373.363281 276.378906 C 372.585938 276.707031 371.789062 277.007812 370.972656 277.277344 C 370.15625 277.542969 369.328125 277.78125 368.484375 277.984375 C 367.640625 278.1875 366.785156 278.359375 365.917969 278.496094 C 365.054688 278.632812 364.179688 278.734375 363.304688 278.804688 C 362.425781 278.875 361.542969 278.90625 360.660156 278.90625 C 359.78125 278.90625 358.898438 278.875 358.019531 278.804688 C 357.144531 278.734375 356.269531 278.632812 355.40625 278.496094 C 354.539062 278.359375 353.683594 278.1875 352.839844 277.984375 C 351.996094 277.78125 351.167969 277.542969 350.351562 277.277344 C 349.535156 277.007812 348.738281 276.707031 347.960938 276.378906 C 347.183594 276.046875 346.425781 275.6875 345.691406 275.296875 C 344.960938 274.90625 344.25 274.488281 343.570312 274.042969 C 342.886719 273.597656 342.234375 273.125 341.609375 272.628906 C 340.984375 272.132812 340.394531 271.613281 339.835938 271.070312 C 339.273438 270.527344 338.75 269.964844 338.257812 269.382812 C 337.769531 268.796875 337.316406 268.195312 336.898438 267.578125 C 336.484375 266.957031 336.105469 266.324219 335.769531 265.675781 C 335.429688 265.027344 335.132812 264.367188 334.878906 263.695312 C 334.621094 263.023438 334.40625 262.34375 334.234375 261.65625 C 334.0625 260.96875 333.933594 260.273438 333.847656 259.574219 C 333.761719 258.875 333.71875 258.175781 333.71875 257.472656 C 333.71875 256.773438 333.761719 256.070312 333.847656 255.375 C 333.933594 254.675781 334.0625 253.980469 334.234375 253.292969 C 334.40625 252.605469 334.621094 251.921875 334.878906 251.253906 C 335.132812 250.582031 335.429688 249.921875 335.769531 249.273438 C 336.105469 248.621094 336.484375 247.988281 336.898438 247.371094 C 337.316406 246.75 337.769531 246.148438 338.257812 245.566406 C 338.75 244.980469 339.273438 244.417969 339.835938 243.875 C 340.394531 243.332031 340.984375 242.8125 341.609375 242.316406 C 342.234375 241.820312 342.886719 241.351562 343.570312 240.90625 C 344.25 240.460938 344.960938 240.042969 345.691406 239.652344 C 346.425781 239.261719 347.183594 238.902344 347.960938 238.570312 C 348.738281 238.238281 349.535156 237.941406 350.351562 237.671875 C 351.167969 237.402344 351.996094 237.167969 352.839844 236.964844 C 353.683594 236.757812 354.539062 236.589844 355.40625 236.453125 C 356.269531 236.316406 357.144531 236.210938 358.019531 236.144531 C 358.898438 236.074219 359.78125 236.039062 360.660156 236.039062 C 361.542969 236.039062 362.425781 236.074219 363.304688 236.144531 C 364.179688 236.210938 365.054688 236.316406 365.917969 236.453125 C 366.785156 236.589844 367.640625 236.757812 368.484375 236.964844 C 369.328125 237.167969 370.15625 237.402344 370.972656 237.671875 C 371.789062 237.941406 372.585938 238.238281 373.363281 238.570312 C 374.140625 238.902344 374.898438 239.261719 375.632812 239.652344 C 376.363281 240.042969 377.074219 240.460938 377.753906 240.90625 C 378.4375 241.351562 379.089844 241.820312 379.714844 242.316406 C 380.339844 242.8125 380.929688 243.332031 381.488281 243.875 C 382.050781 244.417969 382.574219 244.980469 383.066406 245.566406 C 383.554688 246.148438 384.007812 246.75 384.425781 247.371094 C 384.839844 247.988281 385.21875 248.621094 385.554688 249.273438 C 385.890625 249.921875 386.1875 250.582031 386.445312 251.253906 C 386.703125 251.921875 386.914062 252.605469 387.089844 253.292969 C 387.261719 253.980469 387.390625 254.675781 387.476562 255.375 C 387.5625 256.070312 387.605469 256.773438 387.605469 257.472656 Z M 387.605469 257.472656 " fill-opacity="1" fill-rule="nonzero"/><path fill="#313d40" d="M 287.640625 242.523438 C 276.035156 242.523438 265.113281 248.648438 257.675781 259.332031 C 255.503906 262.449219 256.273438 266.738281 259.394531 268.90625 C 262.515625 271.074219 266.804688 270.304688 268.976562 267.1875 C 273.804688 260.253906 280.609375 256.273438 287.640625 256.273438 C 294.675781 256.273438 301.476562 260.253906 306.304688 267.1875 C 308.464844 270.289062 312.75 271.085938 315.886719 268.90625 C 319.007812 266.738281 319.777344 262.453125 317.609375 259.335938 C 310.167969 248.648438 299.246094 242.523438 287.640625 242.523438 Z M 287.640625 242.523438 " fill-opacity="1" fill-rule="nonzero"/><path fill="#313d40" d="M 248.484375 226.15625 C 245.617188 223.660156 241.269531 223.957031 238.769531 226.820312 C 236.132812 229.84375 232.324219 231.578125 228.320312 231.578125 C 224.320312 231.578125 220.511719 229.84375 217.871094 226.820312 C 215.375 223.957031 211.027344 223.660156 208.160156 226.15625 C 205.292969 228.648438 204.996094 232.992188 207.492188 235.855469 C 212.746094 241.878906 220.339844 245.332031 228.324219 245.332031 C 236.304688 245.332031 243.898438 241.878906 249.152344 235.855469 C 251.648438 232.992188 251.351562 228.648438 248.484375 226.15625 Z M 248.484375 226.15625 " fill-opacity="1" fill-rule="nonzero"/><path fill="#313d40" d="M 367.121094 226.15625 C 364.253906 223.660156 359.90625 223.957031 357.410156 226.820312 C 354.773438 229.84375 350.964844 231.578125 346.960938 231.578125 C 342.957031 231.578125 339.148438 229.84375 336.511719 226.820312 C 334.011719 223.957031 329.664062 223.660156 326.796875 226.15625 C 323.933594 228.648438 323.632812 232.992188 326.128906 235.855469 C 331.386719 241.878906 338.976562 245.332031 346.960938 245.332031 C 354.941406 245.332031 362.535156 241.878906 367.789062 235.855469 C 370.289062 232.992188 369.988281 228.648438 367.121094 226.15625 Z M 367.121094 226.15625 " fill-opacity="1" fill-rule="nonzero"/><path fill="#ea5b70" d="M 346.054688 398.929688 C 337.699219 390.585938 325.328125 388.753906 315.175781 393.371094 L 315.175781 340.085938 C 315.175781 324.894531 302.847656 312.578125 287.640625 312.578125 C 272.433594 312.578125 260.105469 324.894531 260.105469 340.085938 L 260.105469 460.066406 L 323.796875 460.066406 L 346.054688 437.832031 C 356.808594 427.089844 356.808594 409.671875 346.054688 398.929688 Z M 346.054688 398.929688 " fill-opacity="1" fill-rule="nonzero"/><path fill="#d34459" d="M 229.226562 398.929688 C 218.476562 409.671875 218.476562 427.089844 229.230469 437.832031 L 268.171875 476.730469 C 273.546875 482.101562 280.59375 484.785156 287.640625 484.785156 C 294.6875 484.785156 301.734375 482.101562 307.113281 476.730469 L 323.796875 460.066406 C 296.160156 445.148438 273.761719 421.925781 260.109375 393.371094 C 249.347656 388.476562 237.167969 390.996094 229.226562 398.929688 Z M 229.226562 398.929688 " fill-opacity="1" fill-rule="nonzero"/></svg>