<svg xmlns="http://www.w3.org/2000/svg" xmlns:xlink="http://www.w3.org/1999/xlink" width="755" zoomAndPan="magnify" viewBox="0 0 567 567.000005" height="755" preserveAspectRatio="xMidYMid meet" version="1.0"><path fill="#f58764" d="M 297.613281 169.808594 C 293.515625 167.265625 338.4375 135.75 341.542969 134.195312 C 381.238281 114.125 451.871094 113.984375 483.796875 145.78125 C 515.015625 176.875 507.527344 223.09375 486.621094 256.304688 C 486.621094 256.304688 599.632812 418.273438 338.859375 400.75 C 338.859375 400.75 303.121094 503.921875 159.457031 423.363281 L 75.828125 490.070312 C 70.179688 494.59375 61.136719 490.214844 62.691406 483.851562 L 86 393.257812 C 86 393.257812 -22.066406 280.757812 104.789062 219.558594 C 104.929688 219.277344 131.488281 68.191406 297.613281 169.808594 Z M 297.613281 169.808594 " fill-opacity="1" fill-rule="nonzero"/><path fill="#ebebef" d="M 257.492188 320.753906 C 257.917969 323.15625 258.339844 326.265625 258.765625 330.082031 C 259.1875 333.898438 259.328125 337.714844 258.90625 341.386719 C 258.625 345.203125 257.632812 348.457031 256.222656 351.421875 C 254.667969 354.390625 252.125 356.085938 248.59375 356.792969 C 243.789062 357.640625 239.835938 356.652344 236.585938 353.96875 C 233.480469 351.28125 231.5 347.605469 230.9375 342.800781 C 227.402344 347.183594 223.167969 350.859375 218.222656 353.824219 C 213.277344 356.792969 208.050781 358.773438 202.542969 359.621094 C 198.726562 360.328125 195.054688 359.902344 191.242188 358.632812 C 187.566406 357.359375 184.179688 355.523438 181.070312 353.121094 C 177.960938 350.714844 175.277344 347.75 173.160156 344.496094 C 171.039062 341.105469 169.628906 337.714844 169.0625 334.179688 C 168.074219 327.960938 169.0625 322.027344 172.03125 316.796875 C 175.136719 311.425781 179.09375 306.621094 184.179688 302.378906 C 189.261719 298.140625 194.773438 294.464844 200.847656 291.355469 C 206.921875 288.386719 212.289062 286.128906 217.09375 284.574219 C 216.949219 283.867188 216.949219 283.300781 216.949219 282.734375 C 216.949219 282.167969 216.808594 281.605469 216.808594 280.898438 C 216.101562 276.800781 214.40625 273.832031 211.867188 271.710938 C 209.179688 269.589844 205.933594 268.882812 201.835938 269.589844 C 198.585938 270.15625 195.902344 271.144531 193.640625 272.699219 C 191.523438 274.253906 189.40625 275.808594 187.566406 277.503906 C 185.730469 279.203125 183.753906 280.898438 181.917969 282.3125 C 180.082031 283.722656 177.820312 284.714844 175.136719 285.136719 C 172.3125 285.5625 169.628906 285.136719 167.367188 283.582031 C 164.964844 282.027344 163.695312 279.910156 163.128906 277.082031 C 162.421875 272.699219 162.988281 268.601562 164.964844 264.644531 C 166.945312 260.6875 169.628906 257.152344 173.019531 254.042969 C 176.410156 250.933594 180.363281 248.390625 184.601562 246.269531 C 188.839844 244.152344 192.9375 242.738281 196.75 242.171875 C 200.28125 241.605469 203.8125 241.464844 207.484375 241.605469 C 211.160156 241.890625 214.691406 242.597656 218.082031 243.867188 C 221.472656 245.140625 224.71875 246.835938 227.6875 248.957031 C 230.652344 251.078125 233.195312 253.761719 235.316406 256.871094 C 238.421875 261.253906 241.246094 266.199219 243.648438 271.289062 C 246.050781 276.515625 248.027344 281.886719 249.722656 287.398438 C 251.417969 292.910156 252.972656 298.566406 254.101562 304.21875 C 255.515625 309.871094 256.503906 315.382812 257.492188 320.753906 Z M 225.003906 319.765625 L 222.175781 306.480469 C 221.894531 306.480469 221.613281 306.480469 221.328125 306.480469 C 221.046875 306.480469 220.765625 306.480469 220.480469 306.480469 C 218.789062 306.761719 216.667969 307.609375 214.265625 308.882812 C 211.867188 310.152344 209.605469 311.707031 207.484375 313.6875 C 205.367188 315.523438 203.671875 317.644531 202.402344 319.765625 C 201.128906 321.882812 200.5625 323.863281 200.847656 325.84375 C 201.128906 327.679688 201.976562 328.808594 203.390625 329.234375 C 204.800781 329.65625 206.355469 329.800781 208.050781 329.515625 C 210.875 329.09375 213.84375 327.820312 216.949219 325.699219 C 220.058594 323.582031 222.742188 321.601562 225.003906 319.765625 Z M 225.003906 319.765625 " fill-opacity="1" fill-rule="nonzero"/><path fill="#ebebef" d="M 313.152344 228.886719 C 313.855469 232.703125 313.007812 235.671875 310.75 237.933594 C 308.488281 240.195312 305.945312 242.457031 303.121094 244.574219 C 300.296875 246.695312 297.753906 249.097656 295.492188 251.78125 C 293.375 254.46875 292.667969 258 293.375 262.382812 C 293.796875 264.785156 294.644531 266.625 296.058594 268.179688 C 297.46875 269.734375 299.023438 271.003906 301.003906 272.136719 C 302.839844 273.265625 304.957031 274.398438 307.078125 275.386719 C 309.335938 276.515625 311.3125 277.789062 313.292969 279.34375 C 315.269531 280.898438 316.964844 282.875 318.519531 285.277344 C 320.074219 287.683594 321.203125 290.792969 321.769531 294.605469 C 322.757812 300.121094 322.191406 305.773438 320.214844 311.566406 C 318.234375 317.363281 315.550781 322.589844 311.738281 327.539062 C 308.066406 332.34375 303.6875 336.582031 298.601562 339.976562 C 293.515625 343.367188 288.289062 345.488281 282.921875 346.476562 C 280.660156 346.902344 278.398438 347.042969 276.140625 347.042969 C 273.878906 347.042969 271.761719 346.757812 269.78125 346.195312 C 267.804688 345.628906 266.109375 344.496094 264.699219 343.085938 C 263.285156 341.671875 262.296875 339.691406 261.871094 337.007812 C 261.308594 333.332031 261.449219 330.363281 262.578125 328.101562 C 263.707031 325.84375 265.261719 323.863281 267.242188 322.308594 C 269.21875 320.753906 271.476562 319.480469 273.878906 318.351562 C 276.28125 317.21875 278.542969 316.089844 280.660156 314.675781 C 282.777344 313.261719 284.332031 311.707031 285.464844 309.871094 C 286.59375 308.035156 287.015625 305.773438 286.453125 302.804688 C 286.027344 300.121094 284.472656 297.433594 281.789062 294.75 C 279.105469 292.203125 276.28125 289.378906 273.03125 286.550781 C 269.925781 283.722656 266.816406 280.472656 264.132812 277.082031 C 261.308594 273.691406 259.613281 269.589844 258.765625 265.070312 C 257.777344 259.414062 258.058594 254.042969 259.613281 248.957031 C 261.167969 243.867188 263.425781 239.0625 266.675781 234.964844 C 269.925781 230.722656 273.878906 227.332031 278.542969 224.363281 C 283.203125 221.539062 288.289062 219.558594 293.65625 218.710938 C 295.777344 218.429688 297.894531 218.144531 299.871094 218.285156 C 301.992188 218.285156 303.828125 218.710938 305.664062 219.417969 C 307.359375 220.125 308.914062 221.253906 310.183594 222.667969 C 311.878906 224.363281 312.726562 226.34375 313.152344 228.886719 Z M 313.152344 228.886719 " fill-opacity="1" fill-rule="nonzero"/><path fill="#ebebef" d="M 361.320312 259.554688 C 361.605469 261.394531 361.886719 263.371094 362.308594 265.351562 C 362.59375 267.328125 362.875 269.308594 363.015625 271.144531 C 363.300781 273.40625 363.722656 276.375 364.289062 280.050781 C 364.851562 283.722656 365.417969 287.824219 365.984375 292.203125 C 366.40625 296.585938 366.6875 300.96875 366.972656 305.632812 C 367.113281 310.152344 366.832031 314.394531 366.125 318.210938 C 365.417969 322.027344 364.148438 325.417969 362.453125 327.960938 C 360.613281 330.648438 358.214844 332.34375 354.964844 332.910156 C 352.5625 333.472656 350.304688 332.765625 348.183594 331.070312 C 346.066406 329.234375 344.230469 326.832031 342.535156 323.582031 C 340.839844 320.472656 339.425781 316.796875 338.152344 312.839844 C 336.882812 308.742188 335.894531 304.925781 334.90625 301.109375 C 334.058594 297.292969 333.210938 293.757812 332.644531 290.507812 C 332.078125 287.257812 331.65625 284.855469 331.375 283.300781 C 331.089844 281.179688 330.527344 278.210938 329.820312 274.398438 C 329.113281 270.582031 328.546875 266.339844 328.125 261.816406 C 327.699219 257.296875 327.417969 252.773438 327.277344 247.96875 C 327.277344 243.304688 327.558594 238.921875 328.265625 234.824219 C 328.972656 230.867188 330.242188 227.472656 332.078125 224.648438 C 333.917969 221.960938 336.460938 220.265625 339.847656 219.699219 C 343.382812 219.136719 346.347656 220.40625 348.75 223.65625 C 351.152344 226.910156 353.269531 230.722656 354.964844 235.386719 C 356.660156 239.910156 357.929688 244.574219 358.917969 249.097656 C 360.191406 253.902344 360.898438 257.296875 361.320312 259.554688 Z M 355.386719 179.984375 C 355.671875 181.398438 355.53125 182.953125 354.964844 184.367188 C 354.398438 185.921875 353.691406 187.335938 352.703125 188.605469 C 351.855469 190.019531 350.726562 191.292969 349.597656 192.421875 C 348.464844 193.695312 347.476562 194.683594 346.488281 195.671875 C 345.640625 196.523438 344.792969 197.371094 343.804688 198.5 C 342.816406 199.488281 341.828125 200.480469 340.695312 201.46875 C 339.566406 202.457031 338.4375 203.164062 337.304688 204.011719 C 336.175781 204.71875 335.046875 205.144531 333.773438 205.425781 C 332.785156 205.566406 331.796875 205.425781 330.949219 205 C 330.101562 204.578125 329.539062 203.730469 329.394531 202.597656 C 329.113281 200.621094 329.394531 198.078125 330.382812 195.109375 C 331.375 192 332.785156 189.03125 334.621094 185.921875 C 336.460938 182.8125 338.296875 180.128906 340.554688 177.867188 C 342.675781 175.605469 344.792969 174.191406 346.914062 173.910156 C 348.75 173.625 350.585938 174.050781 352.28125 175.320312 C 353.976562 176.453125 355.105469 178.007812 355.386719 179.984375 Z M 355.386719 179.984375 " fill-opacity="1" fill-rule="nonzero"/></svg>