<svg xmlns="http://www.w3.org/2000/svg" xmlns:xlink="http://www.w3.org/1999/xlink" width="755" zoomAndPan="magnify" viewBox="0 0 567 567.000005" height="755" preserveAspectRatio="xMidYMid meet" version="1.0"><defs><clipPath id="ea1bbcc416"><path d="M 437 244 L 478.714844 244 L 478.714844 457 L 437 457 Z M 437 244 " clip-rule="nonzero"/></clipPath></defs><path fill="#e7e8e6" d="M 473.910156 258.308594 C 473.320312 250.582031 472.5625 242.875 471.667969 235.179688 C 471.589844 234.507812 471.417969 233.863281 471.195312 233.25 C 470.558594 230.898438 468.683594 228.960938 465.511719 229.019531 C 461.863281 229.085938 458.214844 229.15625 454.566406 229.222656 C 444.640625 229.40625 434.710938 229.589844 424.78125 229.773438 C 410.097656 230.042969 395.410156 230.316406 380.722656 230.585938 C 362.804688 230.914062 344.882812 231.246094 326.960938 231.574219 C 307.328125 231.9375 287.695312 232.300781 268.0625 232.664062 C 248.242188 233.027344 228.421875 233.394531 208.601562 233.757812 C 190.039062 234.101562 171.480469 234.445312 152.917969 234.789062 C 137.304688 235.074219 121.691406 235.363281 106.078125 235.652344 C 94.847656 235.859375 83.621094 236.066406 72.394531 236.273438 C 67.078125 236.371094 61.75 236.367188 56.441406 236.566406 C 56.210938 236.574219 55.984375 236.574219 55.757812 236.578125 C 52.136719 236.644531 49.996094 239.367188 49.601562 242.738281 C 46.953125 265.320312 48.394531 288.453125 50.769531 310.996094 C 53.316406 335.1875 57.207031 359.414062 63.492188 382.933594 C 70.503906 409.183594 81.4375 435.035156 97.582031 457.003906 C 113.019531 478.007812 132.933594 495.390625 155.542969 508.320312 C 205.914062 537.128906 266.117188 542.074219 322.046875 529.035156 C 336.53125 525.65625 350.773438 521.113281 364.515625 515.417969 C 377.777344 509.921875 390.632812 503.414062 402.179688 494.820312 C 423.414062 479.015625 439.125 457.328125 449.867188 433.273438 C 460.90625 408.554688 467.429688 382.050781 471.234375 355.304688 C 475.804688 323.167969 476.378906 290.65625 473.910156 258.308594 Z M 473.910156 258.308594 " fill-opacity="1" fill-rule="nonzero"/><path fill="#b0b1d9" d="M 458.132812 206.355469 C 447.113281 194.980469 432.476562 187.535156 418.058594 181.449219 C 401.535156 174.472656 384.375 168.910156 367.042969 164.332031 C 331.148438 154.863281 293.972656 149.910156 256.863281 149.398438 C 221.753906 148.914062 186.296875 152.503906 152.316406 161.519531 C 135.929688 165.867188 119.886719 171.570312 104.550781 178.816406 C 89.875 185.75 75.023438 194.035156 63.414062 205.550781 C 57.914062 211.003906 53.179688 217.390625 50.601562 224.753906 C 47.945312 232.332031 48.558594 240.382812 51.691406 247.699219 C 52.535156 249.675781 53.53125 251.570312 54.644531 253.402344 C 55.597656 266.929688 65.988281 278.503906 76.910156 286.339844 C 90.578125 296.136719 106.71875 302.910156 122.550781 308.335938 C 155.847656 319.753906 191.253906 324.351562 226.25 326.507812 C 264.328125 328.851562 303.054688 329.34375 340.820312 323.289062 C 358.890625 320.394531 376.722656 315.921875 393.96875 309.796875 C 410.429688 303.953125 426.917969 296.894531 441.195312 286.691406 C 454.472656 277.199219 466.519531 264.492188 470.558594 248.21875 C 474.421875 232.640625 469.09375 217.660156 458.132812 206.355469 Z M 458.132812 206.355469 " fill-opacity="1" fill-rule="nonzero"/><path fill="#fbd6d1" d="M 415.355469 209.292969 C 407.570312 203.277344 398.667969 199.078125 389.628906 195.320312 C 379.492188 191.109375 369.121094 187.414062 358.496094 184.636719 C 336.761719 178.953125 314.152344 178.058594 291.808594 177.148438 C 270.34375 176.273438 248.828125 176.074219 227.378906 177.441406 C 206.183594 178.792969 185 181.671875 164.417969 186.992188 C 144.992188 192.015625 125.417969 199.003906 108.3125 209.65625 C 92.480469 219.511719 78.652344 233.269531 72.632812 251.28125 C 69.367188 261.058594 68.59375 271.597656 70.753906 281.433594 C 72.746094 283.199219 74.816406 284.839844 76.910156 286.339844 C 90.578125 296.140625 106.71875 302.910156 122.550781 308.339844 C 155.847656 319.753906 191.253906 324.355469 226.25 326.507812 C 264.324219 328.851562 303.054688 329.34375 340.820312 323.292969 C 358.890625 320.398438 376.71875 315.925781 393.96875 309.800781 C 410.429688 303.957031 426.914062 296.894531 441.191406 286.691406 C 441.898438 286.1875 442.59375 285.671875 443.292969 285.148438 C 444.007812 276.851562 442.890625 268.457031 441.421875 260.269531 C 437.867188 240.871094 431.519531 221.777344 415.355469 209.292969 Z M 415.355469 209.292969 " fill-opacity="1" fill-rule="nonzero"/><path fill="#e95060" d="M 358.292969 275.425781 C 369.21875 255.808594 379.25 235.773438 387.621094 215.363281 C 396.691406 193.261719 405.128906 170.90625 413.308594 148.460938 C 421.453125 126.101562 429.214844 103.4375 433.050781 79.878906 C 434.6875 69.828125 435.609375 59.199219 432.75 49.273438 C 430.125 40.179688 424.265625 32.09375 415.648438 27.867188 C 407.8125 24.03125 398.839844 24.945312 391.558594 29.535156 C 384.550781 33.957031 379.503906 41.035156 375.476562 48.136719 C 370.128906 57.566406 365.65625 67.558594 361.097656 77.386719 C 356.082031 88.195312 351.273438 99.101562 346.671875 110.089844 C 337.40625 132.226562 328.980469 154.71875 321.421875 177.496094 C 310.710938 209.753906 304.816406 242.34375 299.398438 275.421875 L 358.292969 275.421875 Z M 380.207031 67.265625 C 383.65625 60.78125 391.898438 60.339844 396.222656 66.253906 C 398.21875 68.988281 398.882812 72.386719 399.3125 75.675781 C 399.371094 76.113281 399.402344 76.558594 399.453125 77 C 401.847656 73.550781 404.867188 70.574219 408.453125 68.785156 C 414.082031 65.980469 421.855469 68.558594 422.074219 75.5625 C 422.167969 78.542969 420.851562 81.273438 419.375 83.78125 C 417.59375 86.804688 415.597656 89.722656 413.519531 92.550781 C 409.160156 98.484375 404.238281 104.015625 398.886719 109.074219 C 396.878906 110.96875 393.992188 114.734375 390.90625 114.175781 C 389.355469 113.894531 388.515625 112.914062 388.257812 111.78125 C 388.253906 111.773438 388.25 111.769531 388.25 111.765625 C 385.339844 104.25 383.269531 96.457031 381.496094 88.605469 C 380.023438 82.097656 376.820312 73.632812 380.207031 67.265625 Z M 380.207031 67.265625 " fill-opacity="1" fill-rule="nonzero"/><path fill="#e95060" d="M 328.601562 325.011719 C 350.785156 289.988281 372.054688 253.308594 387.621094 215.363281 C 393.023438 202.195312 398.183594 188.9375 403.21875 175.625 C 391.351562 171.277344 379.242188 167.554688 367.042969 164.335938 C 354.453125 161.011719 341.699219 158.28125 328.851562 156.066406 C 326.300781 163.183594 323.800781 170.320312 321.417969 177.5 C 306.371094 222.839844 300.820312 268.828125 292.742188 315.917969 C 292.265625 318.691406 291.257812 323.519531 290.46875 327.882812 C 303.226562 327.484375 315.957031 326.578125 328.601562 325.011719 Z M 328.601562 325.011719 " fill-opacity="1" fill-rule="nonzero"/><path fill="#644394" d="M 293.1875 327.53125 C 296.671875 283.863281 304.882812 240.675781 316.660156 198.507812 C 328.464844 156.238281 343.789062 114.992188 361.570312 74.886719 C 366.09375 64.683594 370.585938 54.125 377.589844 45.328125 C 384.765625 36.316406 394.558594 30.035156 405.796875 27.453125 C 407.855469 26.980469 406.984375 23.808594 404.921875 24.285156 C 395.261719 26.503906 386.289062 31.390625 379.304688 38.449219 C 372.175781 45.65625 367.261719 54.664062 363.003906 63.773438 C 353.714844 83.628906 345.394531 104.007812 337.625 124.503906 C 321.734375 166.414062 308.824219 209.511719 300.167969 253.511719 C 295.359375 277.964844 291.882812 302.683594 289.898438 327.527344 C 289.734375 329.636719 293.019531 329.628906 293.1875 327.53125 Z M 293.1875 327.53125 " fill-opacity="1" fill-rule="nonzero"/><path fill="#644394" d="M 331.457031 325.59375 C 339.117188 312.691406 347.410156 300.183594 354.851562 287.152344 C 362.1875 274.308594 368.960938 261.144531 375.394531 247.828125 C 388.128906 221.464844 400.378906 194.617188 410.367188 167.078125 C 416.015625 151.515625 420.765625 135.625 424.003906 119.378906 C 424.417969 117.3125 421.253906 116.429688 420.839844 118.503906 C 415.097656 147.28125 404.601562 174.796875 392.921875 201.628906 C 381.207031 228.542969 368.890625 255.300781 354.582031 280.945312 C 346.417969 295.578125 337.167969 309.53125 328.625 323.929688 C 327.542969 325.757812 330.378906 327.410156 331.457031 325.59375 Z M 331.457031 325.59375 " fill-opacity="1" fill-rule="nonzero"/><path fill="#644394" d="M 427.316406 109.109375 C 434.488281 97.335938 437.972656 82.902344 439.1875 69.265625 C 440.304688 56.773438 438.171875 43.769531 429.746094 34.046875 C 425.617188 29.28125 420.152344 25.75 413.96875 24.398438 C 411.90625 23.949219 411.027344 27.117188 413.09375 27.570312 C 427.722656 30.765625 435.3125 45.703125 436.105469 59.59375 C 436.574219 67.875 435.242188 76.148438 433.378906 84.191406 C 431.488281 92.335938 428.847656 100.28125 424.476562 107.449219 C 423.375 109.257812 426.214844 110.914062 427.316406 109.109375 Z M 427.316406 109.109375 " fill-opacity="1" fill-rule="nonzero"/><path fill="#644394" d="M 48.5 242.15625 C 53.027344 262.011719 64.382812 280.191406 80.265625 292.9375 C 98.054688 307.210938 120.335938 313.121094 142.320312 317.332031 C 156.261719 320.003906 170.265625 322.394531 184.253906 324.804688 C 186.320312 325.160156 187.210938 321.996094 185.128906 321.636719 C 172.96875 319.539062 160.816406 317.414062 148.679688 315.191406 C 137.710938 313.179688 126.738281 310.988281 116.085938 307.644531 C 95.621094 301.222656 77.507812 289.769531 65.179688 271.9375 C 58.765625 262.667969 54.171875 252.277344 51.664062 241.285156 C 51.195312 239.222656 48.027344 240.09375 48.5 242.15625 Z M 48.5 242.15625 " fill-opacity="1" fill-rule="nonzero"/><path fill="#644394" d="M 204.21875 327.386719 C 224.941406 332.085938 246.691406 331.25 267.804688 330.996094 C 288.996094 330.742188 310.207031 329.785156 331.226562 326.945312 C 368.058594 321.964844 404.738281 310.75 435.125 288.734375 C 443.109375 282.949219 450.605469 276.480469 457.359375 269.289062 C 463.980469 262.246094 471.457031 254.148438 473.484375 244.398438 C 473.914062 242.335938 470.746094 241.453125 470.316406 243.523438 C 468.46875 252.402344 461.765625 259.695312 455.785156 266.164062 C 449.941406 272.480469 443.527344 278.28125 436.6875 283.503906 C 422.894531 294.027344 407.449219 302.339844 391.308594 308.644531 C 354.296875 323.101562 314.246094 326.808594 274.828125 327.597656 C 263.40625 327.824219 251.96875 327.890625 240.546875 327.722656 C 228.644531 327.542969 216.726562 326.855469 205.089844 324.21875 C 203.03125 323.753906 202.152344 326.921875 204.21875 327.386719 Z M 204.21875 327.386719 " fill-opacity="1" fill-rule="nonzero"/><path fill="#644394" d="M 413.175781 181.535156 C 436.609375 192.660156 464.988281 207.019531 468.929688 235.765625 C 469.214844 237.851562 472.378906 236.960938 472.097656 234.890625 C 468.039062 205.296875 439 190.167969 414.832031 178.699219 C 412.933594 177.796875 411.265625 180.632812 413.175781 181.535156 Z M 413.175781 181.535156 " fill-opacity="1" fill-rule="nonzero"/><path fill="#644394" d="M 444.695312 279.089844 C 447.609375 256.148438 440.160156 232.511719 424.816406 215.257812 C 423.410156 213.671875 421.09375 216.003906 422.496094 217.582031 C 437.296875 234.230469 444.21875 257.011719 441.410156 279.089844 C 441.148438 281.183594 444.433594 281.164062 444.695312 279.089844 Z M 444.695312 279.089844 " fill-opacity="1" fill-rule="nonzero"/><path fill="#644394" d="M 398.925781 201.652344 C 400.167969 202.144531 401.5 202.734375 402.925781 203.441406 C 404.3125 204.128906 405.675781 204.875 407.003906 205.667969 C 407.742188 206.105469 408.839844 205.855469 409.25 205.078125 C 409.671875 204.285156 409.449219 203.300781 408.660156 202.832031 C 405.828125 201.140625 402.863281 199.699219 399.796875 198.480469 C 398.996094 198.160156 397.960938 198.832031 397.777344 199.628906 C 397.566406 200.578125 398.070312 201.308594 398.925781 201.652344 Z M 398.925781 201.652344 " fill-opacity="1" fill-rule="nonzero"/><path fill="#644394" d="M 71.945312 279.847656 C 66.101562 258.117188 82.207031 236.667969 97.15625 222.707031 C 113.363281 207.570312 133.417969 197.1875 154.429688 190.46875 C 167.222656 186.378906 180.394531 183.597656 193.664062 181.59375 C 195.746094 181.28125 194.859375 178.113281 192.789062 178.425781 C 168.570312 182.074219 144.484375 188.457031 122.882812 200.273438 C 103.683594 210.78125 85.503906 225.957031 74.804688 245.351562 C 68.886719 256.089844 65.515625 268.601562 68.773438 280.722656 C 69.324219 282.761719 72.496094 281.894531 71.945312 279.847656 Z M 71.945312 279.847656 " fill-opacity="1" fill-rule="nonzero"/><path fill="#644394" d="M 222.828125 177.589844 C 256.261719 174.121094 290.601562 171.640625 323.492188 180.285156 C 325.535156 180.824219 326.410156 177.65625 324.363281 177.117188 C 291.179688 168.390625 256.570312 170.800781 222.828125 174.300781 C 220.746094 174.519531 220.722656 177.808594 222.828125 177.589844 Z M 222.828125 177.589844 " fill-opacity="1" fill-rule="nonzero"/><path fill="#644394" d="M 87.929688 434.804688 C 81.351562 424.410156 76.820312 412.976562 72.949219 401.34375 C 69.027344 389.5625 65.566406 377.625 62.554688 365.582031 C 56.394531 340.941406 52.1875 315.800781 50.425781 290.453125 C 49.441406 276.273438 49.234375 262.046875 49.835938 247.847656 C 49.925781 245.734375 46.640625 245.734375 46.550781 247.847656 C 44.390625 299.089844 52.980469 350.398438 68.753906 399.074219 C 72.953125 412.035156 77.78125 424.898438 85.09375 436.460938 C 86.21875 438.246094 89.0625 436.597656 87.929688 434.804688 Z M 87.929688 434.804688 " fill-opacity="1" fill-rule="nonzero"/><path fill="#644394" d="M 94.175781 453.367188 C 98.328125 461.445312 104.488281 468.304688 110.699219 474.851562 C 116.660156 481.132812 122.984375 487.074219 129.679688 492.566406 C 142.828125 503.371094 157.355469 512.496094 173.136719 518.917969 C 182.210938 522.609375 191.648438 525.316406 201.3125 526.929688 C 203.378906 527.273438 204.265625 524.109375 202.183594 523.761719 C 168.804688 518.191406 139.3125 499.285156 115.855469 475.453125 C 108.796875 468.285156 101.648438 460.722656 97.015625 451.707031 C 96.046875 449.828125 93.210938 451.488281 94.175781 453.367188 Z M 94.175781 453.367188 " fill-opacity="1" fill-rule="nonzero"/><path fill="#644394" d="M 215.832031 531.730469 C 247.667969 538.921875 280.605469 535.910156 312.285156 529.410156 C 327.910156 526.207031 343.835938 522.75 358.6875 516.839844 C 371.40625 511.777344 383.351562 504.933594 394.175781 496.554688 C 406.261719 487.195312 416.808594 475.984375 425.433594 463.363281 C 426.628906 461.613281 423.785156 459.964844 422.597656 461.703125 C 407.53125 483.757812 386.230469 501.324219 361.769531 512.019531 C 347.625 518.203125 332.398438 521.6875 317.371094 524.980469 C 301.820312 528.386719 286.074219 531.042969 270.179688 532.128906 C 252.28125 533.355469 234.238281 532.527344 216.703125 528.566406 C 214.644531 528.097656 213.765625 531.265625 215.832031 531.730469 Z M 215.832031 531.730469 " fill-opacity="1" fill-rule="nonzero"/><g clip-path="url(#ea1bbcc416)"><path fill="#644394" d="M 440.152344 455.625 C 453.90625 432.296875 464.097656 406.886719 470.21875 380.5 C 476.710938 352.527344 477.753906 323.714844 478.34375 295.105469 C 478.6875 278.613281 478.199219 262.078125 475.359375 245.796875 C 474.996094 243.71875 471.828125 244.601562 472.191406 246.671875 C 474.699219 261.050781 475.289062 275.664062 475.136719 290.234375 C 474.984375 304.742188 474.378906 319.285156 473.511719 333.769531 C 471.878906 360.960938 466.492188 387.683594 456.882812 413.195312 C 451.558594 427.324219 444.984375 440.960938 437.316406 453.96875 C 436.242188 455.792969 439.078125 457.445312 440.152344 455.625 Z M 440.152344 455.625 " fill-opacity="1" fill-rule="nonzero"/></g><path fill="#644394" d="M 51.824219 243.121094 C 46.339844 230.039062 52.304688 216.0625 61.253906 206.171875 C 70.339844 196.128906 82.007812 188.082031 93.714844 181.402344 C 100.738281 177.394531 108.046875 173.914062 115.578125 170.976562 C 117.523438 170.214844 116.675781 167.035156 114.703125 167.804688 C 100.742188 173.253906 87.519531 180.460938 75.472656 189.390625 C 64.308594 197.664062 52.933594 207.527344 48.351562 221.101562 C 45.851562 228.496094 45.609375 236.730469 48.65625 243.996094 C 49.460938 245.914062 52.640625 245.070312 51.824219 243.121094 Z M 51.824219 243.121094 " fill-opacity="1" fill-rule="nonzero"/><path fill="#644394" d="M 136.386719 166.085938 C 159.832031 158.824219 184.324219 156.519531 208.65625 154.308594 C 233.300781 152.066406 258.023438 149.839844 282.796875 150.375 C 296.734375 150.675781 310.648438 151.886719 324.363281 154.445312 C 326.425781 154.828125 327.3125 151.664062 325.234375 151.273438 C 300.617188 146.683594 275.507812 146.375 250.574219 147.730469 C 238.046875 148.414062 225.546875 149.492188 213.054688 150.621094 C 200.621094 151.746094 188.171875 152.828125 175.796875 154.484375 C 162.175781 156.300781 148.652344 158.847656 135.515625 162.917969 C 133.5 163.539062 134.359375 166.714844 136.386719 166.085938 Z M 136.386719 166.085938 " fill-opacity="1" fill-rule="nonzero"/><path fill="#644394" d="M 112.109375 440.195312 C 106.929688 435.253906 103.503906 428.984375 100.355469 422.625 C 97.019531 415.882812 93.953125 409.003906 91.183594 402.007812 C 85.742188 388.269531 81.386719 374.105469 78.171875 359.679688 C 76.324219 351.386719 74.855469 343.011719 73.773438 334.585938 C 73.503906 332.519531 70.21875 332.492188 70.488281 334.585938 C 74.386719 364.914062 83.101562 394.5 96.417969 422.027344 C 99.984375 429.398438 103.796875 436.800781 109.785156 442.515625 C 111.316406 443.976562 113.644531 441.65625 112.109375 440.195312 Z M 112.109375 440.195312 " fill-opacity="1" fill-rule="nonzero"/><path fill="#644394" d="M 69.613281 320.292969 C 69.078125 317.535156 68.542969 314.78125 68.011719 312.023438 C 67.847656 311.179688 66.792969 310.617188 65.992188 310.875 C 65.09375 311.167969 64.667969 311.992188 64.84375 312.898438 C 65.378906 315.652344 65.914062 318.410156 66.445312 321.164062 C 66.609375 322.011719 67.667969 322.570312 68.464844 322.3125 C 69.367188 322.023438 69.789062 321.199219 69.613281 320.292969 Z M 69.613281 320.292969 " fill-opacity="1" fill-rule="nonzero"/><path fill="#644394" d="M 63.621094 290.355469 C 63.621094 289.921875 63.621094 289.488281 63.621094 289.054688 C 63.628906 288.828125 63.582031 288.617188 63.476562 288.421875 C 63.414062 288.21875 63.300781 288.042969 63.136719 287.890625 C 62.988281 287.730469 62.8125 287.617188 62.609375 287.550781 C 62.414062 287.449219 62.203125 287.402344 61.976562 287.410156 C 61.832031 287.429688 61.683594 287.449219 61.539062 287.46875 C 61.261719 287.546875 61.019531 287.6875 60.816406 287.890625 C 60.730469 288 60.644531 288.109375 60.558594 288.222656 C 60.410156 288.476562 60.335938 288.753906 60.335938 289.050781 C 60.335938 289.484375 60.335938 289.917969 60.335938 290.351562 C 60.324219 290.578125 60.371094 290.792969 60.476562 290.988281 C 60.542969 291.191406 60.65625 291.367188 60.816406 291.515625 C 60.964844 291.675781 61.140625 291.789062 61.34375 291.855469 C 61.539062 291.957031 61.75 292.003906 61.976562 291.996094 C 62.125 291.976562 62.269531 291.960938 62.414062 291.9375 C 62.691406 291.859375 62.933594 291.71875 63.136719 291.519531 C 63.222656 291.40625 63.308594 291.296875 63.394531 291.183594 C 63.542969 290.929688 63.617188 290.652344 63.621094 290.355469 Z M 63.621094 290.355469 " fill-opacity="1" fill-rule="nonzero"/><path fill="#644394" d="M 99.988281 392.882812 C 99.847656 392.738281 99.703125 392.59375 99.554688 392.445312 C 99.40625 392.285156 99.230469 392.171875 99.027344 392.105469 C 98.832031 392.003906 98.621094 391.957031 98.394531 391.964844 C 98.167969 391.957031 97.957031 392.003906 97.761719 392.105469 C 97.554688 392.171875 97.382812 392.285156 97.230469 392.445312 C 97.144531 392.558594 97.058594 392.667969 96.972656 392.777344 C 96.828125 393.035156 96.75 393.3125 96.75 393.609375 C 96.769531 393.753906 96.789062 393.898438 96.808594 394.042969 C 96.886719 394.320312 97.027344 394.5625 97.230469 394.769531 C 97.375 394.914062 97.519531 395.058594 97.664062 395.203125 C 97.8125 395.363281 97.988281 395.476562 98.191406 395.542969 C 98.386719 395.644531 98.601562 395.691406 98.824219 395.683594 C 99.050781 395.695312 99.261719 395.648438 99.460938 395.542969 C 99.664062 395.476562 99.839844 395.363281 99.988281 395.203125 C 100.074219 395.09375 100.160156 394.984375 100.246094 394.871094 C 100.394531 394.617188 100.46875 394.339844 100.46875 394.042969 C 100.449219 393.894531 100.429688 393.75 100.410156 393.605469 C 100.335938 393.328125 100.195312 393.085938 99.988281 392.882812 Z M 99.988281 392.882812 " fill-opacity="1" fill-rule="nonzero"/><path fill="#644394" d="M 90.066406 359.4375 C 90.011719 359.375 89.960938 359.3125 89.910156 359.25 C 89.996094 359.359375 90.082031 359.46875 90.167969 359.582031 C 89.972656 359.328125 89.8125 359.046875 89.683594 358.753906 C 89.738281 358.882812 89.792969 359.015625 89.847656 359.144531 C 89.71875 358.832031 89.628906 358.507812 89.582031 358.171875 C 89.601562 358.320312 89.621094 358.464844 89.640625 358.609375 C 89.597656 358.273438 89.59375 357.9375 89.636719 357.601562 C 89.6875 357.214844 89.417969 356.699219 89.15625 356.441406 C 88.871094 356.15625 88.40625 355.941406 87.996094 355.957031 C 87.570312 355.976562 87.132812 356.117188 86.835938 356.441406 C 86.75 356.550781 86.664062 356.660156 86.578125 356.773438 C 86.429688 357.027344 86.355469 357.304688 86.355469 357.601562 C 86.316406 357.878906 86.308594 358.160156 86.335938 358.441406 C 86.375 358.851562 86.429688 359.265625 86.550781 359.660156 C 86.796875 360.453125 87.199219 361.136719 87.746094 361.761719 C 88.011719 362.066406 88.515625 362.242188 88.90625 362.242188 C 89.308594 362.242188 89.789062 362.0625 90.066406 361.761719 C 90.351562 361.445312 90.566406 361.035156 90.546875 360.597656 C 90.523438 360.144531 90.363281 359.777344 90.066406 359.4375 Z M 90.066406 359.4375 " fill-opacity="1" fill-rule="nonzero"/><path fill="#644394" d="M 136.3125 461.53125 C 156.582031 485.144531 184.976562 501.464844 215.480469 507.445312 C 224.039062 509.125 232.746094 509.988281 241.464844 510.015625 C 243.578125 510.023438 243.582031 506.738281 241.464844 506.730469 C 211.074219 506.632812 180.925781 495.929688 157.125 477.027344 C 150.410156 471.691406 144.222656 465.71875 138.636719 459.210938 C 137.253906 457.601562 134.941406 459.933594 136.3125 461.53125 Z M 136.3125 461.53125 " fill-opacity="1" fill-rule="nonzero"/><path fill="#644394" d="M 277.4375 518.039062 C 281.359375 518.652344 285.253906 518.683594 289.183594 518.152344 C 290.0625 518.035156 290.542969 516.902344 290.332031 516.132812 C 290.070312 515.183594 289.195312 514.863281 288.3125 514.984375 C 285.097656 515.417969 281.515625 515.371094 278.3125 514.871094 C 277.464844 514.738281 276.503906 515.085938 276.289062 516.019531 C 276.109375 516.804688 276.527344 517.898438 277.4375 518.039062 Z M 277.4375 518.039062 " fill-opacity="1" fill-rule="nonzero"/><path fill="#644394" d="M 277.019531 503.691406 C 279.921875 503.890625 282.824219 503.703125 285.6875 503.199219 C 286.539062 503.050781 287.089844 501.96875 286.835938 501.179688 C 286.542969 500.265625 285.726562 499.871094 284.816406 500.03125 C 284.476562 500.089844 284.136719 500.144531 283.796875 500.195312 C 283.71875 500.207031 283.640625 500.214844 283.5625 500.226562 C 283.734375 500.203125 283.722656 500.207031 283.523438 500.230469 C 283.367188 500.25 283.210938 500.269531 283.050781 500.285156 C 282.390625 500.355469 281.730469 500.410156 281.070312 500.441406 C 279.722656 500.511719 278.367188 500.492188 277.019531 500.402344 C 276.160156 500.34375 275.339844 501.199219 275.378906 502.042969 C 275.417969 502.988281 276.097656 503.628906 277.019531 503.691406 Z M 277.019531 503.691406 " fill-opacity="1" fill-rule="nonzero"/><path fill="#644394" d="M 228.460938 490.183594 C 231.46875 490.785156 234.515625 491.195312 237.574219 491.410156 C 238.433594 491.46875 239.253906 490.609375 239.21875 489.765625 C 239.175781 488.824219 238.496094 488.1875 237.574219 488.121094 C 236.847656 488.070312 236.117188 488.011719 235.394531 487.9375 C 235.058594 487.902344 234.722656 487.867188 234.386719 487.828125 C 234.21875 487.808594 234.054688 487.789062 233.886719 487.769531 C 233.773438 487.753906 233.664062 487.742188 233.550781 487.726562 C 233.367188 487.703125 233.328125 487.699219 233.4375 487.710938 C 233.558594 487.726562 233.136719 487.671875 233.070312 487.660156 C 232.875 487.632812 232.679688 487.605469 232.484375 487.574219 C 232.152344 487.523438 231.820312 487.472656 231.488281 487.414062 C 230.765625 487.292969 230.050781 487.160156 229.332031 487.015625 C 228.496094 486.847656 227.519531 487.257812 227.3125 488.164062 C 227.128906 488.980469 227.558594 490.003906 228.460938 490.183594 Z M 228.460938 490.183594 " fill-opacity="1" fill-rule="nonzero"/><path fill="#644394" d="M 399.703125 461.757812 C 413.222656 450.667969 423.410156 436.152344 431.351562 420.679688 C 439.90625 404.015625 446.988281 386.003906 450.996094 367.683594 C 453.402344 356.695312 454.519531 345.421875 453.648438 334.1875 C 453.484375 332.09375 450.199219 332.074219 450.363281 334.1875 C 451.886719 353.84375 447.191406 373.191406 440.445312 391.519531 C 434.449219 407.804688 427.128906 423.867188 417.078125 438.078125 C 411.460938 446.019531 404.90625 453.261719 397.378906 459.433594 C 395.746094 460.773438 398.082031 463.085938 399.703125 461.757812 Z M 399.703125 461.757812 " fill-opacity="1" fill-rule="nonzero"/><path fill="#644394" d="M 455.9375 305.53125 C 455.746094 304.988281 455.609375 304.425781 455.53125 303.855469 C 455.550781 304 455.566406 304.148438 455.585938 304.292969 C 455.511719 303.699219 455.5 303.101562 455.550781 302.503906 C 455.585938 302.105469 455.339844 301.613281 455.066406 301.34375 C 454.78125 301.058594 454.316406 300.839844 453.90625 300.859375 C 453.480469 300.878906 453.042969 301.019531 452.746094 301.34375 C 452.4375 301.679688 452.304688 302.046875 452.265625 302.503906 C 452.152344 303.804688 452.332031 305.171875 452.769531 306.40625 C 452.917969 306.8125 453.140625 307.164062 453.527344 307.386719 C 453.878906 307.59375 454.394531 307.679688 454.792969 307.554688 C 455.191406 307.425781 455.574219 307.179688 455.773438 306.796875 C 455.972656 306.425781 456.085938 305.945312 455.9375 305.53125 Z M 455.9375 305.53125 " fill-opacity="1" fill-rule="nonzero"/><path fill="#644394" d="M 428.644531 361.9375 C 428.664062 361.371094 428.714844 360.8125 428.773438 360.246094 C 428.8125 359.898438 428.722656 360.578125 428.78125 360.203125 C 428.796875 360.082031 428.816406 359.964844 428.835938 359.84375 C 428.882812 359.5625 428.933594 359.285156 428.992188 359.007812 C 429.214844 357.9375 429.527344 356.890625 429.917969 355.871094 C 430.226562 355.066406 429.578125 354.035156 428.769531 353.851562 C 427.832031 353.636719 427.078125 354.136719 426.75 355 C 425.902344 357.214844 425.449219 359.570312 425.359375 361.9375 C 425.328125 362.800781 426.136719 363.621094 427 363.582031 C 427.917969 363.539062 428.609375 362.859375 428.644531 361.9375 Z M 428.644531 361.9375 " fill-opacity="1" fill-rule="nonzero"/><path fill="#644394" d="M 415.070312 417.476562 C 415.636719 416.601562 416.207031 415.726562 416.773438 414.851562 C 417 414.503906 417.046875 413.976562 416.9375 413.585938 C 416.835938 413.203125 416.539062 412.792969 416.183594 412.605469 C 415.800781 412.402344 415.339844 412.300781 414.917969 412.4375 C 414.5 412.574219 414.175781 412.820312 413.9375 413.195312 C 413.367188 414.070312 412.800781 414.941406 412.234375 415.816406 C 412.007812 416.164062 411.960938 416.691406 412.066406 417.085938 C 412.171875 417.464844 412.46875 417.878906 412.824219 418.066406 C 413.203125 418.265625 413.664062 418.371094 414.089844 418.234375 C 414.507812 418.097656 414.828125 417.847656 415.070312 417.476562 Z M 415.070312 417.476562 " fill-opacity="1" fill-rule="nonzero"/><path fill="#644394" d="M 316.933594 272.125 C 317.570312 251.996094 319.9375 231.972656 324.03125 212.25 C 324.460938 210.1875 321.292969 209.304688 320.863281 211.375 C 316.714844 231.378906 314.292969 251.707031 313.644531 272.125 C 313.582031 274.242188 316.863281 274.238281 316.933594 272.125 Z M 316.933594 272.125 " fill-opacity="1" fill-rule="nonzero"/><path fill="#644394" d="M 334.191406 175.421875 C 336.539062 167 339.417969 158.738281 342.804688 150.683594 C 343.152344 149.855469 342.429688 148.882812 341.65625 148.660156 C 340.710938 148.390625 339.980469 148.996094 339.636719 149.808594 C 336.25 157.867188 333.371094 166.128906 331.023438 174.546875 C 330.457031 176.585938 333.621094 177.457031 334.191406 175.421875 Z M 334.191406 175.421875 " fill-opacity="1" fill-rule="nonzero"/><path fill="#644394" d="M 351.964844 132.480469 C 352.0625 132.21875 352.160156 131.953125 352.265625 131.691406 C 352.308594 131.582031 352.355469 131.464844 352.402344 131.351562 C 352.5625 130.964844 352.285156 131.613281 352.421875 131.308594 C 352.632812 130.824219 352.851562 130.351562 353.085938 129.878906 C 353.558594 128.9375 354.082031 128.027344 354.652344 127.140625 C 355.121094 126.417969 354.824219 125.296875 354.066406 124.894531 C 353.246094 124.460938 352.316406 124.710938 351.820312 125.484375 C 350.578125 127.402344 349.582031 129.460938 348.800781 131.609375 C 348.503906 132.417969 349.132812 133.441406 349.949219 133.628906 C 350.871094 133.839844 351.648438 133.34375 351.964844 132.480469 Z M 351.964844 132.480469 " fill-opacity="1" fill-rule="nonzero"/><path fill="#644394" d="M 347.753906 184.875 C 347.902344 184.585938 348.050781 184.296875 348.195312 184.011719 C 348.316406 183.824219 348.378906 183.617188 348.390625 183.398438 C 348.441406 183.179688 348.429688 182.960938 348.359375 182.742188 C 348.308594 182.53125 348.210938 182.34375 348.066406 182.183594 C 347.953125 182.007812 347.796875 181.867188 347.605469 181.761719 C 347.472656 181.707031 347.34375 181.652344 347.214844 181.59375 C 346.921875 181.515625 346.632812 181.515625 346.339844 181.59375 C 346.207031 181.648438 346.078125 181.703125 345.945312 181.761719 C 345.699219 181.90625 345.503906 182.105469 345.359375 182.351562 C 345.210938 182.640625 345.0625 182.929688 344.917969 183.214844 C 344.796875 183.402344 344.734375 183.605469 344.722656 183.828125 C 344.671875 184.046875 344.683594 184.261719 344.753906 184.480469 C 344.804688 184.695312 344.902344 184.882812 345.046875 185.039062 C 345.160156 185.21875 345.316406 185.359375 345.507812 185.464844 C 345.640625 185.519531 345.769531 185.574219 345.898438 185.628906 C 346.191406 185.707031 346.480469 185.707031 346.773438 185.628906 C 346.90625 185.574219 347.035156 185.519531 347.164062 185.464844 C 347.414062 185.316406 347.609375 185.121094 347.753906 184.875 Z M 347.753906 184.875 " fill-opacity="1" fill-rule="nonzero"/><path fill="#644394" d="M 412.519531 123.351562 C 413.300781 121.71875 414.078125 120.085938 414.863281 118.457031 C 415.054688 118.050781 415.152344 117.636719 415.027344 117.1875 C 414.925781 116.804688 414.628906 116.394531 414.273438 116.207031 C 413.539062 115.820312 412.421875 115.96875 412.027344 116.796875 C 411.246094 118.425781 410.464844 120.058594 409.683594 121.691406 C 409.488281 122.09375 409.394531 122.511719 409.515625 122.957031 C 409.621094 123.339844 409.917969 123.75 410.273438 123.941406 C 411.003906 124.328125 412.121094 124.175781 412.519531 123.351562 Z M 412.519531 123.351562 " fill-opacity="1" fill-rule="nonzero"/><path fill="#644394" d="M 391.5 112.289062 C 384.871094 102.066406 378.503906 90.601562 378.296875 78.097656 C 378.226562 73.949219 378.765625 65.273438 384.488281 64.886719 C 390.390625 64.484375 394.242188 73.636719 396.019531 77.984375 C 396.511719 79.1875 398.289062 79.746094 399.019531 78.378906 C 401.148438 74.386719 404.675781 71.332031 408.980469 69.886719 C 411.371094 69.085938 420.207031 67.570312 419.871094 72.207031 C 419.71875 74.320312 423.003906 74.308594 423.15625 72.207031 C 423.613281 65.867188 415.058594 65.253906 410.6875 66.054688 C 404.542969 67.179688 399.113281 71.222656 396.183594 76.71875 C 397.183594 76.851562 398.1875 76.980469 399.1875 77.113281 C 396.855469 71.417969 393.074219 62.988281 386.222656 61.730469 C 380.09375 60.609375 376.40625 66.527344 375.46875 71.761719 C 372.773438 86.832031 380.761719 101.757812 388.667969 113.949219 C 389.808594 115.714844 392.65625 114.070312 391.5 112.289062 Z M 391.5 112.289062 " fill-opacity="1" fill-rule="nonzero"/><path fill="#644394" d="M 414.398438 38.21875 C 415.082031 39.257812 415.769531 40.292969 416.453125 41.332031 C 416.6875 41.691406 417.015625 41.972656 417.433594 42.085938 C 417.828125 42.195312 418.351562 42.148438 418.703125 41.921875 C 419.050781 41.695312 419.359375 41.359375 419.457031 40.9375 C 419.550781 40.519531 419.535156 40.042969 419.289062 39.671875 C 418.605469 38.636719 417.921875 37.597656 417.234375 36.5625 C 417 36.203125 416.675781 35.921875 416.253906 35.804688 C 415.859375 35.699219 415.335938 35.746094 414.988281 35.972656 C 414.636719 36.199219 414.328125 36.535156 414.234375 36.953125 C 414.136719 37.371094 414.15625 37.851562 414.398438 38.21875 Z M 414.398438 38.21875 " fill-opacity="1" fill-rule="nonzero"/><path fill="#644394" d="M 69.261719 237.097656 C 77.027344 221.449219 91.292969 210.640625 105.898438 201.769531 C 107.703125 200.675781 106.054688 197.832031 104.242188 198.933594 C 89.183594 208.074219 74.429688 219.308594 66.421875 235.4375 C 65.488281 237.328125 68.316406 238.992188 69.261719 237.097656 Z M 69.261719 237.097656 " fill-opacity="1" fill-rule="nonzero"/><path fill="#644394" d="M 113.542969 195.480469 C 114.4375 194.855469 115.390625 194.316406 116.386719 193.871094 C 116.449219 193.84375 116.515625 193.816406 116.582031 193.789062 C 116.351562 193.882812 116.316406 193.898438 116.480469 193.828125 C 116.613281 193.777344 116.742188 193.722656 116.871094 193.675781 C 117.101562 193.585938 117.332031 193.503906 117.570312 193.425781 C 118.105469 193.25 118.648438 193.097656 119.195312 192.972656 C 120.035156 192.78125 120.609375 191.769531 120.34375 190.953125 C 120.058594 190.074219 119.222656 189.597656 118.324219 189.804688 C 116.03125 190.328125 113.816406 191.300781 111.886719 192.644531 C 111.53125 192.890625 111.25 193.195312 111.128906 193.625 C 111.023438 194.015625 111.070312 194.542969 111.296875 194.890625 C 111.746094 195.59375 112.789062 196.007812 113.542969 195.480469 Z M 113.542969 195.480469 " fill-opacity="1" fill-rule="nonzero"/><path fill="#644394" d="M 135.25 185.21875 C 135.972656 184.929688 136.695312 184.640625 137.417969 184.351562 C 137.632812 184.300781 137.816406 184.203125 137.976562 184.058594 C 138.15625 183.941406 138.296875 183.789062 138.398438 183.597656 C 138.519531 183.410156 138.585938 183.203125 138.59375 182.984375 C 138.644531 182.765625 138.632812 182.546875 138.566406 182.328125 C 138.4375 181.929688 138.191406 181.546875 137.808594 181.347656 C 137.679688 181.292969 137.550781 181.238281 137.417969 181.179688 C 137.125 181.101562 136.835938 181.101562 136.542969 181.179688 C 135.820312 181.46875 135.097656 181.757812 134.375 182.046875 C 134.164062 182.097656 133.976562 182.199219 133.816406 182.34375 C 133.640625 182.457031 133.5 182.613281 133.394531 182.804688 C 133.273438 182.992188 133.210938 183.195312 133.199219 183.414062 C 133.152344 183.632812 133.160156 183.851562 133.230469 184.070312 C 133.355469 184.46875 133.601562 184.851562 133.984375 185.054688 C 134.117188 185.109375 134.246094 185.164062 134.375 185.21875 C 134.667969 185.296875 134.957031 185.296875 135.25 185.21875 Z M 135.25 185.21875 " fill-opacity="1" fill-rule="nonzero"/><path fill="#644394" d="M 83.636719 267.621094 C 99.667969 290.820312 127.785156 298.96875 153.621094 305.910156 C 155.664062 306.460938 156.535156 303.289062 154.492188 302.742188 C 129.609375 296.054688 101.953125 288.363281 86.472656 265.960938 C 85.277344 264.234375 82.429688 265.875 83.636719 267.621094 Z M 83.636719 267.621094 " fill-opacity="1" fill-rule="nonzero"/><path fill="#644394" d="M 171.230469 308.035156 C 175.601562 308.296875 179.945312 308.847656 184.242188 309.6875 C 185.113281 309.855469 186.015625 309.441406 186.261719 308.539062 C 186.484375 307.730469 185.992188 306.6875 185.113281 306.519531 C 180.53125 305.621094 175.890625 305.027344 171.230469 304.746094 C 170.34375 304.695312 169.589844 305.539062 169.589844 306.390625 C 169.589844 307.324219 170.34375 307.980469 171.230469 308.035156 Z M 171.230469 308.035156 " fill-opacity="1" fill-rule="nonzero"/><path fill="#644394" d="M 151.582031 283.121094 C 150.363281 282.023438 149.265625 280.820312 148.238281 279.542969 C 148.089844 279.351562 148.394531 279.75 148.25 279.554688 C 148.183594 279.464844 148.117188 279.375 148.046875 279.289062 C 147.925781 279.125 147.808594 278.960938 147.691406 278.796875 C 147.457031 278.46875 147.230469 278.136719 147.011719 277.796875 C 146.5625 277.101562 146.144531 276.386719 145.757812 275.652344 C 145.351562 274.894531 144.234375 274.597656 143.511719 275.0625 C 142.738281 275.5625 142.488281 276.5 142.921875 277.3125 C 144.539062 280.355469 146.703125 283.132812 149.261719 285.445312 C 149.902344 286.019531 150.964844 286.121094 151.585938 285.445312 C 152.160156 284.816406 152.265625 283.738281 151.582031 283.121094 Z M 151.582031 283.121094 " fill-opacity="1" fill-rule="nonzero"/><path fill="#644394" d="M 230.316406 189.230469 C 248.601562 185.292969 267.589844 185.707031 285.695312 190.390625 C 287.742188 190.921875 288.617188 187.753906 286.570312 187.222656 C 267.886719 182.386719 248.308594 182 229.441406 186.058594 C 227.375 186.503906 228.25 189.671875 230.316406 189.230469 Z M 230.316406 189.230469 " fill-opacity="1" fill-rule="nonzero"/><path fill="#644394" d="M 297.859375 196.15625 C 298.148438 196.058594 298.441406 195.996094 298.742188 195.953125 C 298.59375 195.972656 298.449219 195.992188 298.304688 196.011719 C 298.722656 195.960938 299.140625 195.960938 299.554688 196.011719 C 299.410156 195.992188 299.261719 195.972656 299.121094 195.953125 C 299.558594 196.011719 299.984375 196.125 300.394531 196.292969 C 300.261719 196.238281 300.132812 196.183594 300 196.128906 C 300.34375 196.273438 300.667969 196.457031 300.96875 196.675781 C 301.292969 196.910156 301.863281 196.945312 302.230469 196.84375 C 302.613281 196.738281 303.027344 196.441406 303.214844 196.085938 C 303.414062 195.703125 303.515625 195.242188 303.378906 194.820312 C 303.242188 194.390625 302.988281 194.101562 302.625 193.839844 C 301.050781 192.695312 298.832031 192.382812 296.988281 192.984375 C 296.582031 193.121094 296.226562 193.367188 296.007812 193.742188 C 295.800781 194.09375 295.714844 194.613281 295.839844 195.007812 C 296.105469 195.824219 296.988281 196.441406 297.859375 196.15625 Z M 297.859375 196.15625 " fill-opacity="1" fill-rule="nonzero"/><path fill="#644394" d="M 413.800781 230.253906 C 421.058594 236.21875 426.195312 244.367188 428.398438 253.503906 C 428.894531 255.558594 432.0625 254.6875 431.566406 252.628906 C 429.242188 243 423.777344 234.21875 416.125 227.929688 C 414.503906 226.597656 412.167969 228.910156 413.800781 230.253906 Z M 413.800781 230.253906 " fill-opacity="1" fill-rule="nonzero"/><path fill="#644394" d="M 445.832031 210.804688 C 449.363281 214.515625 452.210938 218.796875 454.316406 223.464844 C 454.683594 224.273438 455.855469 224.46875 456.5625 224.054688 C 457.394531 223.570312 457.519531 222.617188 457.152344 221.808594 C 454.933594 216.894531 451.867188 212.386719 448.152344 208.480469 C 446.691406 206.945312 444.375 209.269531 445.832031 210.804688 Z M 445.832031 210.804688 " fill-opacity="1" fill-rule="nonzero"/><path fill="#644394" d="M 94.65625 329.003906 C 93.644531 325.886719 93.171875 323.042969 93.113281 319.859375 C 93.097656 319 92.367188 318.175781 91.472656 318.214844 C 90.59375 318.253906 89.8125 318.9375 89.828125 319.859375 C 89.890625 323.253906 90.441406 326.648438 91.488281 329.878906 C 91.753906 330.695312 92.636719 331.308594 93.507812 331.027344 C 94.324219 330.761719 94.9375 329.882812 94.65625 329.003906 Z M 94.65625 329.003906 " fill-opacity="1" fill-rule="nonzero"/></svg>