<svg xmlns="http://www.w3.org/2000/svg" xmlns:xlink="http://www.w3.org/1999/xlink" width="755" zoomAndPan="magnify" viewBox="0 0 567 567.000005" height="755" preserveAspectRatio="xMidYMid meet" version="1.0"><path fill="#a5d8dc" d="M 507.640625 267.972656 L 502.351562 253.082031 C 499.464844 244.917969 490.328125 238.191406 482.15625 238.191406 L 463.402344 238.191406 C 449.457031 199.285156 432.628906 152.210938 427.339844 141.160156 C 419.644531 123.867188 395.121094 116.183594 381.660156 112.339844 C 381.660156 112.339844 359.058594 103.695312 283.566406 103.695312 C 208.074219 103.695312 185.957031 112.339844 185.957031 112.339844 C 170.089844 117.625 147.972656 125.308594 139.316406 141.640625 C 134.988281 149.808594 117.679688 197.84375 103.734375 238.191406 L 85.460938 238.191406 C 77.289062 238.191406 68.152344 244.917969 65.265625 253.082031 L 59.976562 267.972656 C 57.09375 276.140625 61.417969 282.867188 69.59375 282.867188 L 88.347656 282.867188 C 85.941406 289.589844 84.5 293.433594 84.5 293.433594 C 83.058594 295.835938 82.097656 306.882812 82.097656 310.246094 L 82.097656 446.183594 C 82.097656 454.832031 89.308594 462.035156 97.964844 462.035156 L 155.664062 462.035156 C 164.320312 462.035156 171.53125 454.832031 171.53125 446.183594 L 171.53125 417.363281 L 396.085938 417.363281 L 396.085938 446.183594 C 396.085938 454.832031 403.296875 462.035156 411.953125 462.035156 L 470.132812 462.035156 C 478.789062 462.035156 486 454.832031 486 446.183594 L 486 310.246094 C 486 307.363281 485.039062 295.835938 483.597656 293.433594 C 483.597656 293.433594 482.15625 289.589844 479.75 282.867188 L 498.023438 282.867188 C 505.714844 282.867188 510.042969 276.140625 507.640625 267.972656 Z M 171.53125 351.554688 L 152.296875 338.585938 C 116.714844 335.703125 112.390625 348.191406 104.695312 334.742188 L 104.695312 318.410156 C 104.695312 302.558594 113.832031 302.078125 123.929688 302.078125 C 133.546875 302.078125 152.78125 310.246094 165.761719 316.007812 C 179.707031 322.253906 189.804688 316.96875 195.09375 337.625 C 194.613281 347.234375 189.324219 351.554688 171.53125 351.554688 Z M 137.875 244.4375 C 149.894531 195.441406 170.089844 161.335938 172.972656 153.171875 C 174.898438 147.40625 170.089844 136.839844 284.046875 136.839844 C 398.007812 136.839844 391.757812 152.210938 392.238281 152.691406 C 397.527344 163.738281 418.683594 199.765625 429.742188 244.4375 C 429.742188 244.4375 386.949219 250.203125 289.335938 250.203125 C 191.726562 250.203125 137.875 244.4375 137.875 244.4375 Z M 373.003906 337.625 C 395.601562 309.765625 388.390625 322.253906 402.335938 316.007812 C 414.835938 310.246094 434.550781 302.078125 444.167969 302.078125 C 454.265625 302.078125 463.402344 302.558594 463.402344 318.410156 L 463.402344 334.742188 C 456.1875 347.710938 449.9375 336.183594 413.875 339.546875 L 396.085938 351.074219 C 378.292969 351.554688 366.753906 344.832031 373.003906 337.625 Z M 373.003906 337.625 " fill-opacity="1" fill-rule="nonzero"/></svg>