<svg xmlns="http://www.w3.org/2000/svg" xmlns:xlink="http://www.w3.org/1999/xlink" width="755" zoomAndPan="magnify" viewBox="0 0 567 567.000005" height="755" preserveAspectRatio="xMidYMid meet" version="1.0"><defs><clipPath id="199630834d"><path d="M 106 63 L 461.457031 63 L 461.457031 537.398438 L 106 537.398438 Z M 106 63 " clip-rule="nonzero"/></clipPath><clipPath id="977e089785"><path d="M 192 28.296875 L 375 28.296875 L 375 122 L 192 122 Z M 192 28.296875 " clip-rule="nonzero"/></clipPath></defs><g clip-path="url(#199630834d)"><path fill="#e95060" d="M 428.332031 537.429688 L 139.011719 537.429688 C 120.78125 537.429688 106.015625 522.675781 106.015625 504.484375 L 106.015625 96.832031 C 106.015625 78.632812 120.78125 63.875 139.011719 63.875 L 428.332031 63.875 C 446.558594 63.875 461.328125 78.632812 461.328125 96.832031 L 461.328125 504.484375 C 461.328125 522.675781 446.558594 537.429688 428.332031 537.429688 " fill-opacity="1" fill-rule="nonzero"/></g><path fill="#e7e8e6" d="M 428.378906 492.984375 L 138.953125 492.984375 L 138.953125 108.332031 L 428.378906 108.332031 L 428.378906 492.984375 " fill-opacity="1" fill-rule="nonzero"/><g clip-path="url(#977e089785)"><path fill="#192746" d="M 374.375 121.550781 L 192.96875 121.550781 L 192.96875 53.882812 C 192.96875 39.738281 204.453125 28.261719 218.628906 28.261719 L 348.714844 28.261719 C 362.890625 28.261719 374.375 39.738281 374.375 53.882812 L 374.375 121.550781 " fill-opacity="1" fill-rule="nonzero"/></g><path fill="#ffffff" d="M 262.316406 43.890625 L 234.589844 43.890625 C 226.246094 43.890625 219.480469 50.644531 219.480469 58.976562 C 219.480469 67.304688 226.246094 74.050781 234.589844 74.050781 L 262.316406 74.050781 L 262.316406 43.890625 " fill-opacity="1" fill-rule="nonzero"/><path fill="#ffffff" d="M 332.753906 43.890625 L 305.027344 43.890625 L 305.027344 74.050781 L 332.753906 74.050781 C 341.097656 74.050781 347.863281 67.304688 347.863281 58.976562 C 347.863281 50.644531 341.097656 43.890625 332.753906 43.890625 " fill-opacity="1" fill-rule="nonzero"/><path stroke-linecap="round" transform="matrix(0.256984, 0, 0, -0.256604, -193.189137, 828.387568)" fill="none" stroke-linejoin="miter" d="M 1798.590053 2494.15042 L 2248.049769 2494.15042 " stroke="#192746" stroke-width="30" stroke-opacity="1" stroke-miterlimit="10"/><path stroke-linecap="round" transform="matrix(0.256984, 0, 0, -0.256604, -193.189137, 828.387568)" fill="none" stroke-linejoin="miter" d="M 1798.590053 2306.452309 L 2248.049769 2306.452309 " stroke="#192746" stroke-width="30" stroke-opacity="1" stroke-miterlimit="10"/><path stroke-linecap="round" transform="matrix(0.256984, 0, 0, -0.256604, -193.189137, 828.387568)" fill="none" stroke-linejoin="miter" d="M 1798.590053 2118.723752 L 2248.049769 2118.723752 " stroke="#192746" stroke-width="30" stroke-opacity="1" stroke-miterlimit="10"/><path stroke-linecap="round" transform="matrix(0.256984, 0, 0, -0.256604, -193.189137, 828.387568)" fill="none" stroke-linejoin="miter" d="M 1798.590053 1931.025641 L 2248.049769 1931.025641 " stroke="#192746" stroke-width="30" stroke-opacity="1" stroke-miterlimit="10"/><path stroke-linecap="round" transform="matrix(0.256984, 0, 0, -0.256604, -193.189137, 828.387568)" fill="none" stroke-linejoin="miter" d="M 1798.590053 1743.32753 L 2248.049769 1743.32753 " stroke="#192746" stroke-width="30" stroke-opacity="1" stroke-miterlimit="10"/><path stroke-linecap="round" transform="matrix(0.256984, 0, 0, -0.256604, -193.189137, 828.387568)" fill="none" stroke-linejoin="miter" d="M 1798.590053 1555.598974 L 2248.049769 1555.598974 " stroke="#192746" stroke-width="30" stroke-opacity="1" stroke-miterlimit="10"/><path stroke-linecap="round" transform="matrix(0.256984, 0, 0, -0.256604, -193.189137, 828.387568)" fill="none" stroke-linejoin="round" d="M 1584.720858 2330.002104 L 1420.587272 2330.002104 L 1420.587272 2494.15042 L 1584.720858 2494.15042 Z M 1584.720858 2330.002104 " stroke="#192746" stroke-width="30" stroke-opacity="1" stroke-miterlimit="10"/><path stroke-linecap="round" transform="matrix(0.256984, 0, 0, -0.256604, -193.189137, 828.387568)" fill="none" stroke-linejoin="round" d="M 1584.720858 1954.621105 L 1420.587272 1954.621105 L 1420.587272 2118.723752 L 1584.720858 2118.723752 Z M 1584.720858 1954.621105 " stroke="#192746" stroke-width="30" stroke-opacity="1" stroke-miterlimit="10"/><path stroke-linecap="round" transform="matrix(0.256984, 0, 0, -0.256604, -193.189137, 828.387568)" fill="none" stroke-linejoin="round" d="M 1584.720858 1579.194438 L 1420.587272 1579.194438 L 1420.587272 1743.32753 L 1584.720858 1743.32753 Z M 1584.720858 1579.194438 " stroke="#192746" stroke-width="30" stroke-opacity="1" stroke-miterlimit="10"/><path stroke-linecap="round" transform="matrix(0.256984, 0, 0, -0.256604, -193.189137, 828.387568)" fill="none" stroke-linejoin="round" d="M 1461.324261 2441.448809 L 1524.770602 2380.633403 L 1667.53247 2623.879803 " stroke="#d64151" stroke-width="30" stroke-opacity="1" stroke-miterlimit="10"/><path stroke-linecap="round" transform="matrix(0.256984, 0, 0, -0.256604, -193.189137, 828.387568)" fill="none" stroke-linejoin="round" d="M 1461.324261 2065.519786 L 1524.770602 2004.689158 L 1667.53247 2247.935558 " stroke="#d64151" stroke-width="30" stroke-opacity="1" stroke-miterlimit="10"/><path stroke-linecap="round" transform="matrix(0.256984, 0, 0, -0.256604, -193.189137, 828.387568)" fill="none" stroke-linejoin="round" d="M 1461.324261 1689.575541 L 1524.770602 1628.760135 L 1667.53247 1872.006535 " stroke="#d64151" stroke-width="30" stroke-opacity="1" stroke-miterlimit="10"/></svg>