<svg xmlns="http://www.w3.org/2000/svg" xmlns:xlink="http://www.w3.org/1999/xlink" width="755" zoomAndPan="magnify" viewBox="0 0 567 567.000005" height="755" preserveAspectRatio="xMidYMid meet" version="1.0"><path fill="#f0c0bf" d="M 205.421875 199.539062 C 205.4375 198.597656 205.464844 197.652344 205.503906 196.710938 C 208.078125 132.71875 265.714844 86.664062 323.878906 76.398438 C 403.683594 62.320312 509.675781 115.007812 491.113281 208.933594 C 481.171875 259.21875 445.496094 304.800781 394.980469 318.765625 C 381.050781 322.617188 365.3125 325.097656 350.835938 325.097656 C 320.558594 325.097656 296.671875 309.371094 268.824219 329.460938 C 260.679688 335.335938 252.253906 355.957031 239.335938 351.414062 C 229.894531 348.09375 227.917969 328.976562 227.277344 321.003906 C 223.988281 280.085938 204.695312 240.734375 205.421875 199.539062 Z M 205.421875 199.539062 " fill-opacity="1" fill-rule="nonzero"/><path fill="#ffffff" d="M 436.273438 200.160156 C 436.273438 200.769531 436.242188 201.375 436.183594 201.984375 C 436.125 202.589844 436.035156 203.191406 435.914062 203.789062 C 435.796875 204.386719 435.648438 204.976562 435.472656 205.5625 C 435.292969 206.144531 435.089844 206.71875 434.855469 207.28125 C 434.621094 207.84375 434.359375 208.394531 434.074219 208.929688 C 433.785156 209.46875 433.472656 209.992188 433.132812 210.496094 C 432.792969 211.003906 432.429688 211.492188 432.042969 211.964844 C 431.65625 212.4375 431.25 212.886719 430.816406 213.316406 C 430.386719 213.75 429.933594 214.15625 429.460938 214.542969 C 428.992188 214.929688 428.5 215.292969 427.992188 215.632812 C 427.488281 215.96875 426.964844 216.285156 426.425781 216.570312 C 425.886719 216.859375 425.335938 217.117188 424.773438 217.351562 C 424.210938 217.585938 423.636719 217.789062 423.050781 217.96875 C 422.46875 218.144531 421.875 218.292969 421.277344 218.410156 C 420.679688 218.53125 420.078125 218.617188 419.46875 218.679688 C 418.863281 218.738281 418.253906 218.769531 417.644531 218.769531 C 417.035156 218.769531 416.425781 218.738281 415.816406 218.679688 C 415.210938 218.617188 414.609375 218.53125 414.007812 218.410156 C 413.410156 218.292969 412.820312 218.144531 412.238281 217.96875 C 411.652344 217.789062 411.078125 217.585938 410.515625 217.351562 C 409.953125 217.117188 409.402344 216.859375 408.863281 216.570312 C 408.324219 216.285156 407.800781 215.96875 407.292969 215.632812 C 406.785156 215.292969 406.296875 214.929688 405.824219 214.542969 C 405.355469 214.15625 404.902344 213.75 404.472656 213.316406 C 404.039062 212.886719 403.628906 212.4375 403.242188 211.964844 C 402.855469 211.492188 402.492188 211.003906 402.15625 210.496094 C 401.816406 209.992188 401.503906 209.46875 401.214844 208.929688 C 400.925781 208.394531 400.667969 207.84375 400.433594 207.28125 C 400.199219 206.71875 399.996094 206.144531 399.816406 205.5625 C 399.640625 204.976562 399.492188 204.386719 399.371094 203.789062 C 399.253906 203.191406 399.164062 202.589844 399.105469 201.984375 C 399.046875 201.375 399.015625 200.769531 399.015625 200.160156 C 399.015625 199.550781 399.046875 198.941406 399.105469 198.335938 C 399.164062 197.730469 399.253906 197.125 399.371094 196.527344 C 399.492188 195.929688 399.640625 195.339844 399.816406 194.757812 C 399.996094 194.175781 400.199219 193.601562 400.433594 193.039062 C 400.667969 192.476562 400.925781 191.925781 401.214844 191.386719 C 401.503906 190.851562 401.816406 190.328125 402.15625 189.820312 C 402.492188 189.3125 402.855469 188.824219 403.242188 188.355469 C 403.628906 187.882812 404.039062 187.433594 404.472656 187 C 404.902344 186.570312 405.355469 186.160156 405.824219 185.773438 C 406.296875 185.386719 406.785156 185.027344 407.292969 184.6875 C 407.800781 184.347656 408.324219 184.035156 408.863281 183.746094 C 409.402344 183.460938 409.953125 183.199219 410.515625 182.96875 C 411.078125 182.734375 411.652344 182.527344 412.238281 182.351562 C 412.820312 182.175781 413.410156 182.027344 414.007812 181.90625 C 414.609375 181.789062 415.210938 181.699219 415.816406 181.640625 C 416.425781 181.582031 417.035156 181.550781 417.644531 181.550781 C 418.253906 181.550781 418.863281 181.582031 419.46875 181.640625 C 420.078125 181.699219 420.679688 181.789062 421.277344 181.90625 C 421.875 182.027344 422.46875 182.175781 423.050781 182.351562 C 423.636719 182.527344 424.210938 182.734375 424.773438 182.96875 C 425.335938 183.199219 425.886719 183.460938 426.425781 183.746094 C 426.964844 184.035156 427.488281 184.347656 427.992188 184.6875 C 428.5 185.023438 428.992188 185.386719 429.460938 185.773438 C 429.933594 186.160156 430.386719 186.570312 430.816406 187 C 431.25 187.433594 431.65625 187.882812 432.042969 188.355469 C 432.429688 188.824219 432.792969 189.3125 433.132812 189.820312 C 433.472656 190.328125 433.785156 190.851562 434.074219 191.386719 C 434.359375 191.925781 434.621094 192.476562 434.855469 193.039062 C 435.089844 193.601562 435.292969 194.175781 435.472656 194.757812 C 435.648438 195.339844 435.796875 195.929688 435.914062 196.527344 C 436.035156 197.125 436.125 197.730469 436.183594 198.335938 C 436.242188 198.941406 436.273438 199.550781 436.273438 200.160156 Z M 436.273438 200.160156 " fill-opacity="1" fill-rule="nonzero"/><path fill="#ffffff" d="M 370.472656 200.160156 C 370.472656 200.769531 370.441406 201.378906 370.382812 201.984375 C 370.320312 202.589844 370.234375 203.191406 370.113281 203.789062 C 369.996094 204.386719 369.847656 204.976562 369.667969 205.5625 C 369.492188 206.144531 369.285156 206.71875 369.054688 207.28125 C 368.820312 207.84375 368.558594 208.394531 368.273438 208.933594 C 367.984375 209.46875 367.671875 209.992188 367.332031 210.5 C 366.992188 211.003906 366.628906 211.496094 366.242188 211.964844 C 365.855469 212.4375 365.445312 212.886719 365.015625 213.320312 C 364.582031 213.75 364.132812 214.160156 363.660156 214.546875 C 363.1875 214.933594 362.699219 215.292969 362.191406 215.632812 C 361.683594 215.972656 361.160156 216.285156 360.625 216.574219 C 360.085938 216.859375 359.535156 217.121094 358.96875 217.351562 C 358.40625 217.585938 357.832031 217.792969 357.25 217.96875 C 356.664062 218.144531 356.074219 218.292969 355.476562 218.414062 C 354.878906 218.53125 354.273438 218.621094 353.667969 218.679688 C 353.058594 218.738281 352.449219 218.769531 351.839844 218.769531 C 351.230469 218.769531 350.621094 218.738281 350.015625 218.679688 C 349.40625 218.621094 348.804688 218.53125 348.207031 218.414062 C 347.609375 218.292969 347.015625 218.144531 346.433594 217.96875 C 345.847656 217.792969 345.273438 217.585938 344.710938 217.351562 C 344.148438 217.121094 343.597656 216.859375 343.058594 216.574219 C 342.519531 216.285156 341.996094 215.972656 341.492188 215.632812 C 340.984375 215.292969 340.492188 214.933594 340.023438 214.546875 C 339.550781 214.160156 339.097656 213.75 338.667969 213.320312 C 338.234375 212.886719 337.828125 212.4375 337.4375 211.964844 C 337.050781 211.496094 336.6875 211.003906 336.351562 210.5 C 336.011719 209.992188 335.699219 209.46875 335.410156 208.933594 C 335.121094 208.394531 334.863281 207.84375 334.628906 207.28125 C 334.394531 206.71875 334.191406 206.144531 334.011719 205.5625 C 333.835938 204.976562 333.6875 204.386719 333.570312 203.789062 C 333.449219 203.191406 333.359375 202.589844 333.300781 201.984375 C 333.242188 201.378906 333.210938 200.769531 333.210938 200.160156 C 333.210938 199.550781 333.242188 198.941406 333.300781 198.335938 C 333.359375 197.730469 333.449219 197.125 333.570312 196.527344 C 333.6875 195.929688 333.835938 195.339844 334.011719 194.757812 C 334.191406 194.171875 334.394531 193.601562 334.628906 193.039062 C 334.863281 192.472656 335.121094 191.925781 335.410156 191.386719 C 335.699219 190.847656 336.011719 190.328125 336.351562 189.820312 C 336.6875 189.3125 337.050781 188.824219 337.4375 188.351562 C 337.828125 187.882812 338.234375 187.429688 338.667969 187 C 339.097656 186.570312 339.550781 186.160156 340.023438 185.773438 C 340.492188 185.386719 340.984375 185.023438 341.492188 184.683594 C 341.996094 184.347656 342.519531 184.035156 343.058594 183.746094 C 343.597656 183.460938 344.148438 183.199219 344.710938 182.964844 C 345.273438 182.730469 345.847656 182.527344 346.433594 182.351562 C 347.015625 182.171875 347.609375 182.027344 348.207031 181.90625 C 348.804688 181.789062 349.40625 181.699219 350.015625 181.636719 C 350.621094 181.578125 351.230469 181.550781 351.839844 181.550781 C 352.449219 181.550781 353.058594 181.578125 353.667969 181.636719 C 354.273438 181.699219 354.878906 181.789062 355.476562 181.90625 C 356.074219 182.027344 356.664062 182.171875 357.25 182.351562 C 357.832031 182.527344 358.40625 182.730469 358.96875 182.964844 C 359.535156 183.199219 360.085938 183.460938 360.625 183.746094 C 361.160156 184.035156 361.683594 184.347656 362.191406 184.683594 C 362.699219 185.023438 363.1875 185.386719 363.660156 185.773438 C 364.132812 186.160156 364.582031 186.570312 365.015625 187 C 365.445312 187.429688 365.855469 187.882812 366.242188 188.351562 C 366.628906 188.824219 366.992188 189.3125 367.332031 189.820312 C 367.671875 190.328125 367.984375 190.847656 368.273438 191.386719 C 368.558594 191.925781 368.820312 192.472656 369.054688 193.039062 C 369.285156 193.601562 369.492188 194.171875 369.667969 194.757812 C 369.847656 195.339844 369.996094 195.929688 370.113281 196.527344 C 370.234375 197.125 370.320312 197.730469 370.382812 198.335938 C 370.441406 198.941406 370.472656 199.550781 370.472656 200.160156 Z M 370.472656 200.160156 " fill-opacity="1" fill-rule="nonzero"/><path fill="#ffffff" d="M 308.152344 200.160156 C 308.152344 200.769531 308.125 201.375 308.0625 201.984375 C 308.003906 202.589844 307.914062 203.191406 307.796875 203.789062 C 307.675781 204.386719 307.527344 204.976562 307.351562 205.5625 C 307.175781 206.144531 306.96875 206.71875 306.734375 207.28125 C 306.5 207.84375 306.242188 208.394531 305.953125 208.929688 C 305.664062 209.46875 305.351562 209.992188 305.011719 210.496094 C 304.675781 211.003906 304.3125 211.492188 303.925781 211.964844 C 303.539062 212.4375 303.128906 212.886719 302.695312 213.316406 C 302.265625 213.75 301.8125 214.15625 301.34375 214.542969 C 300.871094 214.929688 300.382812 215.292969 299.875 215.632812 C 299.367188 215.96875 298.84375 216.285156 298.304688 216.570312 C 297.769531 216.859375 297.214844 217.117188 296.652344 217.351562 C 296.089844 217.585938 295.515625 217.789062 294.933594 217.96875 C 294.347656 218.144531 293.757812 218.292969 293.160156 218.410156 C 292.558594 218.53125 291.957031 218.617188 291.351562 218.679688 C 290.742188 218.738281 290.132812 218.769531 289.523438 218.769531 C 288.914062 218.769531 288.304688 218.738281 287.699219 218.679688 C 287.089844 218.617188 286.488281 218.53125 285.890625 218.410156 C 285.292969 218.292969 284.699219 218.144531 284.117188 217.96875 C 283.53125 217.789062 282.957031 217.585938 282.394531 217.351562 C 281.832031 217.117188 281.28125 216.859375 280.742188 216.570312 C 280.203125 216.285156 279.683594 215.96875 279.175781 215.632812 C 278.667969 215.292969 278.179688 214.929688 277.707031 214.542969 C 277.234375 214.15625 276.78125 213.75 276.351562 213.316406 C 275.921875 212.886719 275.511719 212.4375 275.125 211.964844 C 274.738281 211.492188 274.375 211.003906 274.035156 210.496094 C 273.695312 209.992188 273.382812 209.46875 273.09375 208.929688 C 272.808594 208.394531 272.546875 207.84375 272.3125 207.28125 C 272.078125 206.71875 271.875 206.144531 271.699219 205.5625 C 271.519531 204.976562 271.371094 204.386719 271.253906 203.789062 C 271.132812 203.191406 271.042969 202.589844 270.984375 201.984375 C 270.925781 201.375 270.894531 200.769531 270.894531 200.160156 C 270.894531 199.550781 270.925781 198.941406 270.984375 198.335938 C 271.042969 197.730469 271.132812 197.125 271.253906 196.527344 C 271.371094 195.929688 271.519531 195.339844 271.699219 194.757812 C 271.875 194.175781 272.078125 193.601562 272.3125 193.039062 C 272.546875 192.476562 272.808594 191.925781 273.09375 191.386719 C 273.382812 190.851562 273.695312 190.328125 274.035156 189.820312 C 274.375 189.3125 274.738281 188.824219 275.125 188.355469 C 275.511719 187.882812 275.921875 187.433594 276.351562 187 C 276.78125 186.570312 277.234375 186.160156 277.707031 185.773438 C 278.179688 185.386719 278.667969 185.027344 279.175781 184.6875 C 279.683594 184.347656 280.203125 184.035156 280.742188 183.746094 C 281.28125 183.460938 281.832031 183.199219 282.394531 182.96875 C 282.957031 182.734375 283.53125 182.527344 284.117188 182.351562 C 284.699219 182.175781 285.292969 182.027344 285.890625 181.90625 C 286.488281 181.789062 287.089844 181.699219 287.699219 181.640625 C 288.304688 181.582031 288.914062 181.550781 289.523438 181.550781 C 290.132812 181.550781 290.742188 181.582031 291.351562 181.640625 C 291.957031 181.699219 292.558594 181.789062 293.160156 181.90625 C 293.757812 182.027344 294.347656 182.175781 294.933594 182.351562 C 295.515625 182.527344 296.089844 182.734375 296.652344 182.96875 C 297.21875 183.199219 297.769531 183.460938 298.304688 183.746094 C 298.84375 184.035156 299.367188 184.347656 299.875 184.6875 C 300.382812 185.023438 300.871094 185.386719 301.34375 185.773438 C 301.8125 186.160156 302.265625 186.570312 302.695312 187 C 303.128906 187.433594 303.539062 187.882812 303.925781 188.355469 C 304.3125 188.824219 304.675781 189.3125 305.011719 189.820312 C 305.351562 190.328125 305.664062 190.851562 305.953125 191.386719 C 306.242188 191.925781 306.5 192.476562 306.734375 193.039062 C 306.96875 193.601562 307.175781 194.175781 307.351562 194.757812 C 307.527344 195.339844 307.675781 195.929688 307.796875 196.527344 C 307.914062 197.125 308.003906 197.730469 308.0625 198.335938 C 308.125 198.941406 308.152344 199.550781 308.152344 200.160156 Z M 308.152344 200.160156 " fill-opacity="1" fill-rule="nonzero"/><path fill="#a5d8dc" d="M 361.546875 322.234375 C 361.53125 321.292969 361.503906 320.351562 361.464844 319.40625 C 358.894531 255.414062 301.257812 209.359375 243.089844 199.097656 C 163.285156 185.015625 57.296875 237.707031 75.855469 331.628906 C 85.800781 381.914062 121.472656 427.5 171.992188 441.460938 C 185.917969 445.3125 201.65625 447.792969 216.132812 447.792969 C 246.410156 447.792969 270.300781 432.070312 298.148438 452.15625 C 306.292969 458.03125 314.71875 478.65625 327.632812 474.109375 C 337.074219 470.789062 339.054688 451.671875 339.691406 443.699219 C 342.980469 402.785156 362.273438 363.429688 361.546875 322.234375 Z M 361.546875 322.234375 " fill-opacity="1" fill-rule="nonzero"/><path fill="#ffffff" d="M 167.957031 322.855469 C 167.957031 323.464844 167.925781 324.074219 167.867188 324.679688 C 167.804688 325.285156 167.71875 325.886719 167.597656 326.488281 C 167.480469 327.085938 167.332031 327.675781 167.152344 328.257812 C 166.976562 328.839844 166.769531 329.414062 166.539062 329.976562 C 166.304688 330.539062 166.042969 331.089844 165.757812 331.628906 C 165.46875 332.164062 165.15625 332.6875 164.816406 333.195312 C 164.476562 333.699219 164.113281 334.191406 163.726562 334.660156 C 163.339844 335.132812 162.929688 335.582031 162.5 336.015625 C 162.066406 336.445312 161.617188 336.855469 161.144531 337.242188 C 160.671875 337.628906 160.183594 337.988281 159.675781 338.328125 C 159.167969 338.667969 158.648438 338.980469 158.109375 339.265625 C 157.570312 339.554688 157.019531 339.816406 156.457031 340.046875 C 155.890625 340.28125 155.320312 340.488281 154.734375 340.664062 C 154.152344 340.839844 153.558594 340.988281 152.960938 341.105469 C 152.363281 341.226562 151.761719 341.316406 151.152344 341.375 C 150.546875 341.433594 149.9375 341.464844 149.328125 341.464844 C 148.71875 341.464844 148.109375 341.433594 147.5 341.375 C 146.894531 341.316406 146.292969 341.226562 145.691406 341.105469 C 145.09375 340.988281 144.503906 340.839844 143.917969 340.664062 C 143.335938 340.488281 142.761719 340.28125 142.199219 340.046875 C 141.632812 339.816406 141.082031 339.554688 140.546875 339.265625 C 140.007812 338.980469 139.484375 338.667969 138.976562 338.328125 C 138.46875 337.988281 137.980469 337.628906 137.507812 337.242188 C 137.039062 336.855469 136.585938 336.445312 136.15625 336.015625 C 135.722656 335.582031 135.3125 335.132812 134.925781 334.660156 C 134.539062 334.191406 134.175781 333.699219 133.835938 333.195312 C 133.5 332.6875 133.183594 332.164062 132.898438 331.628906 C 132.609375 331.089844 132.351562 330.539062 132.117188 329.976562 C 131.882812 329.414062 131.675781 328.839844 131.5 328.257812 C 131.324219 327.675781 131.175781 327.085938 131.054688 326.488281 C 130.9375 325.886719 130.847656 325.285156 130.789062 324.679688 C 130.726562 324.074219 130.699219 323.464844 130.699219 322.855469 C 130.699219 322.246094 130.726562 321.636719 130.789062 321.03125 C 130.847656 320.425781 130.9375 319.824219 131.054688 319.226562 C 131.175781 318.628906 131.324219 318.039062 131.5 317.453125 C 131.675781 316.871094 131.882812 316.296875 132.117188 315.734375 C 132.351562 315.171875 132.609375 314.621094 132.898438 314.082031 C 133.183594 313.546875 133.5 313.023438 133.835938 312.515625 C 134.175781 312.011719 134.539062 311.523438 134.925781 311.050781 C 135.3125 310.578125 135.722656 310.128906 136.15625 309.699219 C 136.585938 309.265625 137.039062 308.859375 137.507812 308.472656 C 137.980469 308.085938 138.46875 307.722656 138.976562 307.382812 C 139.484375 307.042969 140.007812 306.730469 140.546875 306.445312 C 141.082031 306.15625 141.632812 305.898438 142.199219 305.664062 C 142.761719 305.429688 143.335938 305.226562 143.917969 305.046875 C 144.503906 304.871094 145.09375 304.722656 145.691406 304.605469 C 146.292969 304.484375 146.894531 304.398438 147.5 304.335938 C 148.109375 304.277344 148.71875 304.246094 149.328125 304.246094 C 149.9375 304.246094 150.546875 304.277344 151.152344 304.335938 C 151.761719 304.398438 152.363281 304.484375 152.960938 304.605469 C 153.558594 304.722656 154.152344 304.871094 154.734375 305.046875 C 155.320312 305.226562 155.890625 305.429688 156.457031 305.664062 C 157.019531 305.898438 157.570312 306.15625 158.109375 306.445312 C 158.648438 306.730469 159.167969 307.042969 159.675781 307.382812 C 160.183594 307.722656 160.671875 308.085938 161.144531 308.472656 C 161.617188 308.859375 162.066406 309.265625 162.5 309.699219 C 162.929688 310.128906 163.339844 310.578125 163.726562 311.050781 C 164.113281 311.523438 164.476562 312.011719 164.816406 312.515625 C 165.15625 313.023438 165.46875 313.546875 165.757812 314.082031 C 166.042969 314.621094 166.304688 315.171875 166.539062 315.734375 C 166.769531 316.296875 166.976562 316.871094 167.152344 317.453125 C 167.332031 318.039062 167.480469 318.628906 167.597656 319.226562 C 167.71875 319.824219 167.804688 320.425781 167.867188 321.03125 C 167.925781 321.636719 167.957031 322.246094 167.957031 322.855469 Z M 167.957031 322.855469 " fill-opacity="1" fill-rule="nonzero"/><path fill="#ffffff" d="M 233.761719 322.855469 C 233.761719 323.464844 233.730469 324.074219 233.671875 324.679688 C 233.609375 325.285156 233.523438 325.890625 233.402344 326.488281 C 233.285156 327.085938 233.136719 327.675781 232.957031 328.257812 C 232.78125 328.839844 232.574219 329.414062 232.34375 329.976562 C 232.109375 330.539062 231.847656 331.089844 231.5625 331.628906 C 231.273438 332.167969 230.960938 332.6875 230.621094 333.195312 C 230.28125 333.703125 229.917969 334.191406 229.53125 334.664062 C 229.144531 335.132812 228.734375 335.585938 228.304688 336.015625 C 227.871094 336.445312 227.421875 336.855469 226.949219 337.242188 C 226.476562 337.628906 225.988281 337.992188 225.480469 338.328125 C 224.972656 338.667969 224.449219 338.980469 223.914062 339.269531 C 223.375 339.554688 222.824219 339.816406 222.261719 340.050781 C 221.695312 340.28125 221.121094 340.488281 220.539062 340.664062 C 219.953125 340.84375 219.363281 340.988281 218.765625 341.109375 C 218.167969 341.226562 217.5625 341.316406 216.957031 341.375 C 216.347656 341.4375 215.742188 341.464844 215.128906 341.464844 C 214.519531 341.464844 213.910156 341.4375 213.304688 341.375 C 212.695312 341.316406 212.09375 341.226562 211.496094 341.109375 C 210.898438 340.988281 210.304688 340.84375 209.722656 340.664062 C 209.136719 340.488281 208.5625 340.28125 208 340.050781 C 207.4375 339.816406 206.886719 339.554688 206.347656 339.269531 C 205.808594 338.980469 205.285156 338.667969 204.78125 338.328125 C 204.273438 337.992188 203.78125 337.628906 203.3125 337.242188 C 202.839844 336.855469 202.386719 336.445312 201.957031 336.015625 C 201.523438 335.585938 201.117188 335.132812 200.730469 334.664062 C 200.339844 334.191406 199.976562 333.703125 199.640625 333.195312 C 199.300781 332.6875 198.988281 332.167969 198.699219 331.628906 C 198.410156 331.089844 198.152344 330.542969 197.917969 329.976562 C 197.683594 329.414062 197.480469 328.839844 197.300781 328.257812 C 197.125 327.675781 196.976562 327.085938 196.859375 326.488281 C 196.738281 325.890625 196.648438 325.285156 196.589844 324.679688 C 196.53125 324.074219 196.5 323.464844 196.5 322.855469 C 196.5 322.246094 196.53125 321.636719 196.589844 321.03125 C 196.648438 320.425781 196.738281 319.824219 196.859375 319.226562 C 196.976562 318.628906 197.125 318.035156 197.300781 317.453125 C 197.480469 316.871094 197.683594 316.296875 197.917969 315.734375 C 198.152344 315.171875 198.410156 314.621094 198.699219 314.082031 C 198.988281 313.546875 199.300781 313.023438 199.640625 312.515625 C 199.976562 312.011719 200.339844 311.519531 200.730469 311.050781 C 201.117188 310.578125 201.523438 310.128906 201.957031 309.695312 C 202.386719 309.265625 202.839844 308.855469 203.3125 308.46875 C 203.78125 308.082031 204.273438 307.71875 204.78125 307.382812 C 205.285156 307.042969 205.808594 306.730469 206.347656 306.441406 C 206.886719 306.15625 207.4375 305.894531 208 305.664062 C 208.5625 305.429688 209.136719 305.222656 209.722656 305.046875 C 210.304688 304.871094 210.898438 304.722656 211.496094 304.601562 C 212.09375 304.484375 212.695312 304.394531 213.304688 304.335938 C 213.910156 304.277344 214.519531 304.246094 215.128906 304.246094 C 215.742188 304.246094 216.347656 304.277344 216.957031 304.335938 C 217.5625 304.394531 218.167969 304.484375 218.765625 304.601562 C 219.363281 304.722656 219.953125 304.871094 220.539062 305.046875 C 221.121094 305.222656 221.695312 305.429688 222.261719 305.664062 C 222.824219 305.894531 223.375 306.15625 223.914062 306.441406 C 224.449219 306.730469 224.972656 307.042969 225.480469 307.382812 C 225.988281 307.71875 226.476562 308.082031 226.949219 308.46875 C 227.421875 308.855469 227.871094 309.265625 228.304688 309.695312 C 228.734375 310.128906 229.144531 310.578125 229.53125 311.050781 C 229.917969 311.519531 230.28125 312.011719 230.621094 312.515625 C 230.960938 313.023438 231.273438 313.546875 231.5625 314.082031 C 231.847656 314.621094 232.109375 315.171875 232.34375 315.734375 C 232.574219 316.296875 232.78125 316.871094 232.957031 317.453125 C 233.136719 318.035156 233.285156 318.628906 233.402344 319.226562 C 233.523438 319.824219 233.609375 320.425781 233.671875 321.03125 C 233.730469 321.636719 233.761719 322.246094 233.761719 322.855469 Z M 233.761719 322.855469 " fill-opacity="1" fill-rule="nonzero"/><path fill="#ffffff" d="M 296.074219 322.855469 C 296.074219 323.464844 296.046875 324.074219 295.984375 324.679688 C 295.925781 325.285156 295.835938 325.886719 295.71875 326.488281 C 295.597656 327.085938 295.449219 327.675781 295.273438 328.257812 C 295.097656 328.839844 294.890625 329.414062 294.65625 329.976562 C 294.425781 330.539062 294.164062 331.089844 293.875 331.628906 C 293.589844 332.164062 293.273438 332.6875 292.9375 333.195312 C 292.597656 333.699219 292.234375 334.191406 291.847656 334.660156 C 291.460938 335.132812 291.050781 335.582031 290.621094 336.015625 C 290.1875 336.445312 289.738281 336.855469 289.265625 337.242188 C 288.792969 337.628906 288.304688 337.988281 287.796875 338.328125 C 287.289062 338.667969 286.765625 338.980469 286.230469 339.265625 C 285.691406 339.554688 285.140625 339.816406 284.574219 340.046875 C 284.011719 340.28125 283.4375 340.488281 282.855469 340.664062 C 282.269531 340.839844 281.679688 340.988281 281.082031 341.105469 C 280.484375 341.226562 279.878906 341.316406 279.273438 341.375 C 278.664062 341.433594 278.058594 341.464844 277.445312 341.464844 C 276.835938 341.464844 276.226562 341.433594 275.621094 341.375 C 275.015625 341.316406 274.410156 341.226562 273.8125 341.105469 C 273.214844 340.988281 272.625 340.839844 272.039062 340.664062 C 271.457031 340.488281 270.882812 340.28125 270.316406 340.046875 C 269.753906 339.816406 269.203125 339.554688 268.664062 339.265625 C 268.128906 338.980469 267.605469 338.667969 267.097656 338.328125 C 266.589844 337.988281 266.101562 337.628906 265.628906 337.242188 C 265.15625 336.855469 264.707031 336.445312 264.273438 336.015625 C 263.84375 335.582031 263.433594 335.132812 263.046875 334.660156 C 262.660156 334.191406 262.296875 333.699219 261.957031 333.195312 C 261.617188 332.6875 261.304688 332.164062 261.019531 331.628906 C 260.730469 331.089844 260.46875 330.539062 260.234375 329.976562 C 260.003906 329.414062 259.796875 328.839844 259.621094 328.257812 C 259.441406 327.675781 259.296875 327.085938 259.175781 326.488281 C 259.058594 325.886719 258.96875 325.285156 258.90625 324.679688 C 258.847656 324.074219 258.816406 323.464844 258.816406 322.855469 C 258.816406 322.246094 258.847656 321.636719 258.90625 321.03125 C 258.96875 320.425781 259.058594 319.824219 259.175781 319.226562 C 259.296875 318.628906 259.441406 318.039062 259.621094 317.453125 C 259.796875 316.871094 260.003906 316.296875 260.234375 315.734375 C 260.46875 315.171875 260.730469 314.621094 261.019531 314.082031 C 261.304688 313.546875 261.617188 313.023438 261.957031 312.515625 C 262.296875 312.011719 262.660156 311.523438 263.046875 311.050781 C 263.433594 310.578125 263.84375 310.128906 264.273438 309.699219 C 264.707031 309.265625 265.15625 308.859375 265.628906 308.472656 C 266.101562 308.085938 266.589844 307.722656 267.097656 307.382812 C 267.605469 307.042969 268.128906 306.730469 268.664062 306.445312 C 269.203125 306.15625 269.753906 305.898438 270.316406 305.664062 C 270.882812 305.429688 271.457031 305.226562 272.039062 305.046875 C 272.625 304.871094 273.214844 304.722656 273.8125 304.605469 C 274.410156 304.484375 275.015625 304.398438 275.621094 304.335938 C 276.226562 304.277344 276.835938 304.246094 277.445312 304.246094 C 278.058594 304.246094 278.664062 304.277344 279.273438 304.335938 C 279.878906 304.398438 280.484375 304.484375 281.082031 304.605469 C 281.679688 304.722656 282.269531 304.871094 282.855469 305.046875 C 283.4375 305.226562 284.011719 305.429688 284.574219 305.664062 C 285.140625 305.898438 285.691406 306.15625 286.226562 306.445312 C 286.765625 306.730469 287.289062 307.042969 287.796875 307.382812 C 288.304688 307.722656 288.792969 308.085938 289.265625 308.472656 C 289.738281 308.859375 290.1875 309.265625 290.621094 309.699219 C 291.050781 310.128906 291.460938 310.578125 291.847656 311.050781 C 292.234375 311.523438 292.597656 312.011719 292.9375 312.515625 C 293.273438 313.023438 293.589844 313.546875 293.875 314.082031 C 294.164062 314.621094 294.425781 315.171875 294.65625 315.734375 C 294.890625 316.296875 295.097656 316.871094 295.273438 317.453125 C 295.449219 318.039062 295.597656 318.628906 295.71875 319.226562 C 295.835938 319.824219 295.925781 320.425781 295.984375 321.03125 C 296.046875 321.636719 296.074219 322.246094 296.074219 322.855469 Z M 296.074219 322.855469 " fill-opacity="1" fill-rule="nonzero"/></svg>