<svg xmlns="http://www.w3.org/2000/svg" xmlns:xlink="http://www.w3.org/1999/xlink" width="755" zoomAndPan="magnify" viewBox="0 0 567 567.000005" height="755" preserveAspectRatio="xMidYMid meet" version="1.0"><defs><clipPath id="f9bcfaf0cd"><path d="M 24 50.941406 L 543 50.941406 L 543 509.132812 L 24 509.132812 Z M 24 50.941406 " clip-rule="nonzero"/></clipPath><clipPath id="186552a129"><path d="M 12.222656 106 L 555 106 L 555 449 L 12.222656 449 Z M 12.222656 106 " clip-rule="nonzero"/></clipPath></defs><g clip-path="url(#f9bcfaf0cd)"><path fill="#e95060" d="M 400.316406 50.96875 C 351.96875 50.96875 309.292969 75.09375 283.605469 111.933594 C 257.917969 75.09375 215.242188 50.96875 166.882812 50.96875 C 88.375 50.96875 24.726562 114.554688 24.726562 192.988281 C 24.726562 371.710938 283.59375 509.070312 283.605469 509.078125 C 283.605469 509.070312 542.488281 371.710938 542.488281 192.988281 C 542.488281 114.554688 478.835938 50.96875 400.316406 50.96875 " fill-opacity="1" fill-rule="nonzero"/></g><g clip-path="url(#186552a129)"><path fill="#ffffff" d="M 271.144531 448.671875 C 266.203125 448.671875 261.980469 445.105469 261.164062 440.226562 L 231.582031 263.550781 L 216.746094 303.796875 C 215.285156 307.777344 211.5 310.414062 207.257812 310.414062 L 22.328125 310.414062 C 16.742188 310.414062 12.210938 305.886719 12.210938 300.308594 C 12.210938 294.730469 16.742188 290.203125 22.328125 290.203125 L 200.203125 290.203125 L 225.769531 220.800781 C 227.351562 216.492188 231.703125 213.738281 236.203125 214.226562 C 240.773438 214.65625 244.484375 218.097656 245.238281 222.625 L 270.609375 374.125 L 309.585938 115.09375 C 310.332031 110.136719 314.589844 106.488281 319.589844 106.488281 C 319.644531 106.488281 319.699219 106.488281 319.75 106.488281 C 324.820312 106.566406 329.042969 110.382812 329.636719 115.410156 L 352.582031 309.367188 L 356.878906 297 C 358.285156 292.925781 362.128906 290.203125 366.433594 290.203125 L 544.878906 290.203125 C 550.464844 290.203125 554.996094 294.730469 554.996094 300.308594 C 554.996094 305.886719 550.464844 310.414062 544.878906 310.414062 L 373.632812 310.414062 L 357.257812 357.558594 C 355.71875 362.011719 351.328125 364.800781 346.609375 364.292969 C 341.925781 363.789062 338.210938 360.109375 337.65625 355.429688 L 318.390625 192.5625 L 281.148438 440.0625 C 280.410156 444.980469 276.203125 448.632812 271.230469 448.671875 C 271.195312 448.671875 271.167969 448.671875 271.144531 448.671875 " fill-opacity="1" fill-rule="nonzero"/></g></svg>