<svg xmlns="http://www.w3.org/2000/svg" xmlns:xlink="http://www.w3.org/1999/xlink" width="755" zoomAndPan="magnify" viewBox="0 0 567 567.000005" height="755" preserveAspectRatio="xMidYMid meet" version="1.0"><defs><clipPath id="346ce0bf23"><path d="M 255.359375 179.234375 L 390.808594 179.234375 L 390.808594 490.960938 L 255.359375 490.960938 Z M 255.359375 179.234375 " clip-rule="nonzero"/></clipPath><clipPath id="0f919748ed"><path d="M 144.910156 337.257812 L 246.175781 337.257812 L 246.175781 490.960938 L 144.910156 490.960938 Z M 144.910156 337.257812 " clip-rule="nonzero"/></clipPath><clipPath id="31f034f215"><path d="M 276.726562 75.023438 L 398.121094 75.023438 L 398.121094 207.847656 L 276.726562 207.847656 Z M 276.726562 75.023438 " clip-rule="nonzero"/></clipPath></defs><path fill="#e58d76" d="M 201.492188 375.6875 C 206.828125 403.285156 259.523438 449.160156 262.085938 451.367188 C 272.183594 442.066406 282.28125 432.765625 292.378906 423.460938 C 261.28125 382.292969 235.394531 353.785156 225.554688 348.832031 C 222.289062 347.1875 215.296875 343.667969 208.9375 346.414062 C 208.738281 346.5 206.757812 347.375 205.011719 349.121094 C 197.757812 356.363281 200.828125 372.257812 201.492188 375.6875 " fill-opacity="1" fill-rule="nonzero"/><path fill="#81b5ab" d="M 223.527344 415.792969 C 199.050781 394.988281 187.761719 370.863281 194.964844 356.335938 C 195.144531 355.972656 199.3125 347.863281 207.796875 345.253906 C 222.757812 340.660156 239.355469 356.800781 246.792969 364.035156 C 253.128906 370.195312 257.421875 376.238281 260.15625 380.605469 C 247.949219 392.332031 235.738281 404.0625 223.527344 415.792969 " fill-opacity="1" fill-rule="nonzero"/><path fill="#914839" d="M 292.140625 222.164062 C 287.207031 222.164062 282.375 219.144531 280.378906 214.585938 C 277.761719 208.597656 280.144531 201.65625 282.515625 196.277344 C 282.714844 195.824219 282.917969 195.367188 283.125 194.910156 C 285.464844 189.652344 287.886719 184.214844 287.09375 178.644531 C 286.414062 173.855469 283.5625 169.96875 280.542969 165.855469 C 279.074219 163.859375 277.558594 161.792969 276.335938 159.636719 C 272.894531 153.5625 271.367188 146.09375 271.792969 137.4375 C 272.171875 129.804688 273.996094 122.277344 275.761719 114.996094 L 276.488281 115.171875 C 274.730469 122.417969 272.914062 129.910156 272.542969 137.476562 C 272.121094 145.984375 273.617188 153.316406 276.988281 159.265625 C 278.191406 161.386719 279.691406 163.433594 281.144531 165.414062 C 284.085938 169.417969 287.125 173.566406 287.835938 178.542969 C 288.660156 184.320312 286.191406 189.859375 283.804688 195.214844 C 283.601562 195.671875 283.398438 196.128906 283.199219 196.578125 C 280.890625 201.816406 278.5625 208.566406 281.066406 214.285156 C 283.191406 219.144531 288.742188 222.144531 293.96875 221.265625 L 294.09375 222.003906 C 293.445312 222.113281 292.792969 222.164062 292.140625 222.164062 " fill-opacity="1" fill-rule="nonzero"/><path fill="#914839" d="M 275.332031 116.722656 C 272.679688 128.421875 273.777344 137.484375 274.824219 142.609375 C 275.472656 145.792969 276.125 148.875 277.992188 152.597656 C 281.511719 159.621094 285.253906 160.75 289.203125 166.972656 C 290.664062 169.269531 294.339844 175.070312 294.320312 182.078125 C 294.292969 192.570312 286.007812 195.582031 285.789062 205.710938 C 285.789062 205.710938 285.652344 212.136719 290.910156 220.085938 C 299.878906 233.652344 334.746094 235.773438 377.4375 225.6875 C 386.035156 170.976562 362.21875 124.445312 327.234375 112.515625 C 306.675781 105.503906 286.488281 111.890625 275.332031 116.722656 " fill-opacity="1" fill-rule="nonzero"/><path fill="#f0ae97" d="M 320.445312 188.328125 C 320.203125 190.90625 319.5 194.8125 317.234375 199.375 C 324.375 196.800781 331.929688 194.285156 339.894531 191.890625 C 348.429688 189.320312 356.65625 187.125 364.519531 185.242188 C 360.757812 182.289062 352.972656 175.359375 348.171875 163.59375 C 343.078125 151.101562 344.164062 140.066406 344.910156 135.347656 C 334.839844 144.242188 324.773438 153.140625 314.707031 162.035156 C 315.558594 164.179688 316.695312 167.269531 317.773438 171.074219 C 319.640625 177.660156 320.992188 182.421875 320.445312 188.328125 " fill-opacity="1" fill-rule="nonzero"/><path fill="#e89781" d="M 317.773438 171.074219 C 320.996094 169.328125 325.238281 166.492188 329.160156 161.992188 C 330.800781 160.109375 332.109375 158.25 333.152344 156.542969 C 332.921875 158.503906 332.519531 160.644531 331.84375 162.902344 C 329.207031 171.746094 323.847656 177.6875 320.265625 180.960938 C 319.832031 179.011719 319.355469 177.015625 318.828125 174.976562 C 318.488281 173.648438 318.132812 172.347656 317.773438 171.074219 " fill-opacity="1" fill-rule="nonzero"/><path fill="#f0ae97" d="M 291.25 147.617188 C 291.234375 145.679688 291.125 143.984375 290.027344 142.433594 C 289.265625 141.351562 288.515625 141.035156 287.515625 140.226562 C 285.632812 138.699219 284.589844 137.09375 283.429688 134.203125 C 281.472656 129.332031 280.421875 125.035156 279.90625 122.828125 C 279.242188 119.964844 278.757812 117.519531 278.421875 115.691406 C 280.527344 112.355469 284.890625 106.445312 292.5 102 C 296.496094 99.664062 304.847656 94.78125 314.898438 96.691406 C 325.660156 98.738281 334.601562 107.4375 337.628906 118.046875 C 341.464844 131.488281 334.289062 142.484375 333.1875 144.105469 C 334.320312 145.746094 335.902344 148.570312 335.921875 152.113281 C 335.949219 157.898438 331.789062 161.714844 324.027344 168.835938 C 319.296875 173.171875 314.445312 177.53125 311.125 176.074219 C 309.914062 175.546875 308.515625 174.070312 307.675781 172.640625 C 306.527344 170.683594 306.617188 169.148438 305.101562 167.824219 C 304.261719 167.089844 303.332031 166.769531 302.675781 166.613281 C 302.386719 166.097656 302.085938 165.578125 301.777344 165.054688 C 301.101562 163.914062 300.417969 162.832031 299.734375 161.804688 C 299.371094 159.394531 298.671875 158.640625 298.042969 158.441406 C 297 158.109375 296.167969 159.320312 294.128906 159.398438 C 293.492188 159.421875 292.308594 159.464844 291.53125 158.851562 C 289.9375 157.59375 291.308594 154.574219 291.25 147.617188 " fill-opacity="1" fill-rule="nonzero"/><path fill="#995241" d="M 284.398438 136.492188 C 285.066406 137.03125 285.636719 137.335938 285.773438 137.207031 C 285.90625 137.078125 285.621094 136.496094 285.105469 135.808594 C 285.921875 135.484375 287.050781 135.074219 288.417969 134.695312 C 294.085938 133.125 299.636719 133.246094 299.722656 133.835938 C 299.789062 134.285156 296.515625 134.210938 292.03125 136.636719 C 289.050781 138.246094 287.53125 139.882812 286.082031 139.292969 C 285.046875 138.867188 284.609375 137.53125 284.398438 136.492188 " fill-opacity="1" fill-rule="nonzero"/><path fill="#e89781" d="M 279.511719 120.820312 C 285.738281 128.082031 291.003906 129.746094 294.714844 129.878906 C 302.753906 130.167969 308.40625 123.460938 318.6875 125.207031 C 320.875 125.574219 322.59375 126.214844 323.660156 126.667969 C 321.125 124.386719 311.191406 115.992188 296.683594 116.273438 C 288.878906 116.425781 282.867188 119.027344 279.511719 120.820312 " fill-opacity="1" fill-rule="nonzero"/><path fill="#e89781" d="M 332.792969 145.582031 C 328.800781 146.023438 325.011719 141.378906 324.324219 135.203125 C 323.640625 129.03125 326.320312 123.667969 330.3125 123.226562 C 334.300781 122.785156 338.089844 127.429688 338.777344 133.601562 C 339.460938 139.777344 336.78125 145.140625 332.792969 145.582031 " fill-opacity="1" fill-rule="nonzero"/><path fill="#ea726c" d="M 299.386719 162.246094 C 299.605469 161.304688 301.863281 161.285156 304.117188 160.707031 C 305.152344 160.4375 306.667969 159.929688 308.433594 158.863281 C 307.472656 159.945312 306.125 161.246094 304.320312 162.457031 C 303.046875 163.3125 301.835938 163.929688 300.789062 164.378906 C 300.539062 164.25 299.746094 163.792969 299.46875 162.878906 C 299.394531 162.632812 299.339844 162.445312 299.386719 162.246094 " fill-opacity="1" fill-rule="nonzero"/><path fill="#f27977" d="M 300.789062 164.378906 C 300.746094 164.59375 300.679688 165.082031 300.898438 165.621094 C 301.203125 166.359375 301.910156 166.785156 302.449219 166.878906 C 303.640625 167.089844 304.738281 165.804688 305.570312 164.800781 C 306.457031 163.730469 307.746094 161.828125 308.433594 158.863281 C 307.144531 160.214844 305.425781 161.730469 303.199219 163.085938 C 302.367188 163.589844 301.558594 164.019531 300.789062 164.378906 " fill-opacity="1" fill-rule="nonzero"/><path fill="#cc786a" d="M 294.792969 157.976562 C 294.847656 158.191406 295.527344 158.242188 296.03125 158.15625 C 296.429688 158.085938 296.507812 157.964844 297.183594 157.699219 C 298.039062 157.359375 298.394531 157.359375 298.394531 157.25 C 298.390625 157.070312 297.398438 156.792969 296.410156 157.003906 C 295.558594 157.183594 294.726562 157.714844 294.792969 157.976562 " fill-opacity="1" fill-rule="nonzero"/><path fill="#e89781" d="M 299.152344 157.515625 C 299.601562 157.335938 299.984375 157.019531 300.296875 156.640625 C 300.601562 156.25 300.828125 155.785156 300.914062 155.285156 L 300.941406 155.097656 C 300.949219 155.035156 300.953125 154.96875 300.957031 154.910156 C 300.964844 154.78125 300.960938 154.65625 300.953125 154.53125 C 300.933594 154.277344 300.882812 154.03125 300.800781 153.796875 C 300.632812 153.332031 300.355469 152.90625 299.980469 152.609375 C 300.15625 153.050781 300.289062 153.480469 300.351562 153.910156 C 300.382812 154.128906 300.398438 154.339844 300.398438 154.550781 C 300.394531 154.65625 300.390625 154.761719 300.375 154.867188 L 300.363281 155.027344 L 300.335938 155.179688 C 300.265625 155.597656 300.113281 155.996094 299.914062 156.382812 C 299.707031 156.769531 299.453125 157.144531 299.152344 157.515625 " fill-opacity="1" fill-rule="nonzero"/><g clip-path="url(#346ce0bf23)"><path fill="#b4ddd8" d="M 268.402344 367.472656 C 275.199219 379.054688 278.328125 410.863281 268.070312 490.960938 L 390.785156 490.960938 C 387.539062 399.765625 381.378906 355.125 375.992188 331.230469 C 374.078125 322.738281 370.777344 310.296875 371.023438 292.65625 C 371.410156 264.769531 380.144531 260.640625 378.917969 233.332031 C 377.871094 210.0625 370.746094 195.695312 366.957031 189.140625 C 364.511719 184.917969 362.105469 181.59375 360.304688 179.292969 C 350.402344 182.515625 340.363281 185.9375 330.195312 189.574219 C 326.453125 190.914062 322.742188 192.265625 319.066406 193.625 C 315.523438 198.085938 309.832031 204.886719 302.121094 212.53125 C 287.445312 227.085938 278.859375 231.359375 278.234375 241.035156 C 277.792969 247.875 281.539062 254.0625 282.4375 255.542969 C 285.984375 261.394531 290.675781 264.46875 292.960938 265.769531 C 284.675781 271.132812 273.121094 280.425781 264.601562 295.289062 C 261.300781 301.050781 257.035156 308.667969 255.832031 319.542969 C 254.59375 330.738281 257.222656 339.734375 259.339844 346.71875 C 262.847656 358.308594 267.671875 366.226562 268.402344 367.472656 " fill-opacity="1" fill-rule="nonzero"/></g><path fill="#a3d3cc" d="M 331.480469 241.328125 C 336.15625 251.1875 340.917969 263.125 344.726562 276.988281 C 347.363281 286.601562 349.117188 295.578125 350.28125 303.683594 C 333.757812 318.132812 317.238281 332.582031 300.714844 347.03125 C 312.925781 345.566406 325.773438 343.679688 339.171875 341.265625 C 352.402344 338.882812 364.945312 336.210938 376.769531 333.363281 C 374.957031 322.175781 371.605469 308.308594 365.234375 293.21875 C 355.140625 269.308594 341.617188 252.167969 331.480469 241.328125 " fill-opacity="1" fill-rule="nonzero"/><path fill="#995241" d="M 324.546875 127.257812 C 311.691406 118.914062 296.976562 131.441406 283.320312 123.402344 C 279.410156 121.101562 276.777344 118.386719 275.332031 116.722656 C 275.5625 114.273438 276.117188 110.773438 277.582031 106.824219 C 281.601562 96 289.386719 90.015625 292.164062 87.9375 C 302.644531 80.101562 319.484375 74.703125 332.429688 80.785156 C 335.894531 82.410156 338.722656 84.695312 340.03125 85.753906 C 348.96875 92.96875 347.613281 97.5 354.359375 102.117188 C 361.050781 106.699219 364.261719 103.515625 370.855469 108.984375 C 372.292969 110.179688 376.019531 113.53125 378.257812 119.015625 C 380.992188 125.703125 378.214844 127.339844 380.472656 132.59375 C 383.734375 140.175781 390.613281 139.273438 394.742188 147.726562 C 396.921875 152.179688 396.953125 156.351562 396.933594 158.199219 C 396.832031 169.9375 388.238281 172.660156 389.148438 181.316406 C 389.867188 188.117188 395.335938 187.949219 397.335938 196.800781 C 397.738281 198.585938 399.320312 206.585938 394.707031 214.339844 C 389.1875 223.59375 379.035156 225.425781 377.4375 225.6875 C 377.113281 219.027344 375.675781 209.03125 369.636719 199.375 C 360.472656 184.710938 351.152344 188.652344 343.558594 175.988281 C 334.226562 160.421875 342.816406 145.859375 329.128906 131.351562 C 327.496094 129.621094 326.417969 128.476562 324.546875 127.257812 " fill-opacity="1" fill-rule="nonzero"/><path fill="#f0ae97" d="M 361.894531 310.464844 C 356.933594 293.695312 351.40625 280.738281 347.269531 272 C 341.738281 260.3125 335.507812 249.472656 330.492188 231.746094 C 325.6875 214.78125 326.96875 209.113281 329.859375 205.4375 C 333.699219 200.550781 340.949219 198.460938 346.945312 199.445312 C 353.796875 200.570312 358.089844 205.5625 359.925781 207.695312 C 375.171875 225.414062 391.046875 297.992188 392.171875 303.214844 C 382.082031 305.632812 371.988281 308.050781 361.894531 310.464844 " fill-opacity="1" fill-rule="nonzero"/><path fill="#b4ddd8" d="M 380.960938 250.597656 C 379.835938 234.144531 374.367188 222.679688 370.757812 216.488281 C 365.898438 208.160156 360.851562 199.503906 350.953125 197.199219 C 350.308594 197.046875 339.183594 194.621094 332.207031 201.167969 C 324 208.871094 327.285156 223.59375 330.21875 236.738281 C 332.894531 248.722656 337.316406 257.929688 340.617188 263.796875 C 354.066406 259.398438 367.511719 254.996094 380.960938 250.597656 " fill-opacity="1" fill-rule="nonzero"/><path fill="#ea9a81" d="M 231.828125 344.1875 C 219.039062 341.0625 206.25 337.9375 193.460938 334.8125 C 198.570312 324.320312 203.679688 313.828125 208.789062 303.339844 C 211.203125 302.175781 216.542969 300.066406 222.671875 301.527344 C 231.496094 303.632812 238.292969 312.269531 239.871094 323.402344 C 238.445312 325.839844 236.960938 328.722656 235.59375 332.035156 C 233.742188 336.535156 232.578125 340.6875 231.828125 344.1875 " fill-opacity="1" fill-rule="nonzero"/><path fill="#e58d76" d="M 214.140625 300.863281 C 214.074219 301.488281 213.917969 303.613281 215.296875 305.648438 C 216.191406 306.964844 217.328125 307.648438 217.9375 307.957031 C 217.511719 310.382812 217.332031 313.238281 217.773438 316.371094 C 219.601562 329.378906 230.660156 336.808594 233.289062 338.476562 C 233.785156 336.820312 234.382812 335.050781 235.101562 333.199219 C 235.796875 331.414062 236.523438 329.761719 237.25 328.25 C 235.4375 326.101562 233.621094 323.847656 231.800781 321.484375 C 227.601562 316.023438 223.945312 310.667969 220.757812 305.542969 C 218.550781 303.984375 216.347656 302.421875 214.140625 300.863281 " fill-opacity="1" fill-rule="nonzero"/><path fill="#ea9a81" d="M 248.988281 264.417969 C 249.464844 265.785156 251.476562 271.683594 251.960938 276.78125 C 252.074219 277.941406 252.207031 279.359375 252.027344 281.246094 C 251.78125 283.859375 251.246094 284.128906 251.292969 285.527344 C 251.382812 288.054688 253.507812 290.128906 255.398438 292.15625 C 255.765625 292.550781 255.6875 292.441406 256.316406 293.097656 C 258.828125 295.730469 260.085938 297.046875 260.144531 297.917969 C 260.253906 299.609375 257.585938 301.460938 254.082031 302.703125 C 254.652344 304.417969 255.222656 306.132812 255.792969 307.847656 C 255.230469 308.859375 254.664062 309.871094 254.097656 310.886719 C 254.324219 312.035156 254.550781 313.183594 254.78125 314.332031 C 253.902344 314.980469 253.023438 315.628906 252.144531 316.28125 C 252.296875 317.246094 252.46875 318.667969 252.464844 320.398438 C 252.460938 322.582031 252.453125 325.121094 251.554688 326.558594 C 251.144531 327.21875 249.289062 329.652344 239.609375 328.234375 C 231.289062 327.011719 218.601562 325.152344 214.242188 315.90625 C 213.40625 314.132812 213.34375 310.246094 213.238281 302.539062 C 213.070312 290.539062 212.984375 284.539062 214.105469 281.660156 C 218.878906 269.382812 232.78125 265.179688 233.769531 264.894531 C 240.296875 263.027344 245.941406 263.777344 248.988281 264.417969 " fill-opacity="1" fill-rule="nonzero"/><path fill="#d8816c" d="M 230.816406 269.828125 C 228.175781 271.066406 225.914062 272.449219 224.007812 273.800781 C 227.242188 273.074219 229.902344 272.765625 231.707031 272.625 C 237.355469 272.171875 239.929688 272.871094 244.570312 271.890625 C 247.222656 271.328125 249.296875 270.488281 250.597656 269.886719 C 250.390625 269.113281 250.167969 268.324219 249.925781 267.519531 C 249.726562 266.863281 249.527344 266.226562 249.324219 265.605469 C 244.765625 265.683594 238.023438 266.445312 230.816406 269.828125 " fill-opacity="1" fill-rule="nonzero"/><path fill="#3f2a27" d="M 216.34375 295.355469 C 217.738281 295.039062 219.132812 294.722656 220.523438 294.40625 C 219.96875 291.460938 219.761719 288.921875 219.695312 286.96875 C 219.546875 282.765625 219.488281 280.339844 220.769531 277.851562 C 221.027344 277.34375 222.195312 275.179688 225.449219 273.117188 C 232.347656 268.75 236.933594 272.234375 244.988281 268.921875 C 247.59375 267.851562 252.71875 265.726562 254.328125 260.976562 C 256.15625 255.585938 252.417969 249.289062 248.476562 245.96875 C 245.355469 243.339844 241.988281 242.472656 240.167969 242.148438 C 238.378906 243.726562 235.542969 245.757812 231.726562 246.527344 C 227.652344 247.347656 224.878906 246.351562 221.695312 245.589844 C 213.226562 243.570312 203.140625 245.664062 196.78125 250.332031 C 194.695312 251.863281 190.824219 255.273438 188.238281 262.140625 C 187.21875 262.761719 185.777344 263.78125 184.40625 265.351562 C 177.714844 273.003906 180.195312 284.523438 180.734375 286.757812 C 182.101562 292.390625 184.90625 296.34375 190.519531 304.25 C 192.667969 307.273438 195.207031 310.46875 197.070312 315.753906 C 198.132812 318.765625 198.601562 321.398438 198.832031 323.203125 C 200.757812 322.894531 203.328125 322.140625 205.148438 320.074219 C 209.339844 315.324219 205.316406 308.441406 209.132812 301.710938 C 211.085938 298.261719 214.222656 296.367188 216.34375 295.355469 " fill-opacity="1" fill-rule="nonzero"/><path fill="#ea9a81" d="M 214.453125 311.238281 C 211.074219 312.566406 204.980469 306.546875 203.351562 300.277344 C 202.53125 297.125 202.207031 291.453125 205.273438 289.640625 C 207.253906 288.46875 209.796875 289.40625 210.695312 289.734375 C 214.945312 291.304688 216.46875 295.523438 216.71875 296.25 C 218.390625 303.894531 217.261719 310.140625 214.453125 311.238281 " fill-opacity="1" fill-rule="nonzero"/><path fill="#3f2a27" d="M 249.695312 279.4375 C 249.460938 280.554688 247.929688 281.023438 245.503906 281.769531 C 236.035156 284.671875 235.503906 284.847656 235.285156 284.496094 C 234.5 283.214844 240.308594 278.933594 242.230469 277.640625 C 243.378906 276.871094 244.828125 276.03125 246.136719 276.488281 C 246.957031 276.773438 247.609375 277.527344 247.804688 277.363281 C 248.023438 277.179688 247.328125 276.171875 247.441406 276.089844 C 247.621094 275.960938 250.015625 277.882812 249.695312 279.4375 " fill-opacity="1" fill-rule="nonzero"/><path fill="#e58d76" d="M 255.816406 307.671875 C 255.503906 307.324219 254.371094 307.878906 253.804688 308.140625 C 252.035156 308.953125 249.25 309.921875 244.914062 310.4375 C 246.519531 310.851562 248.550781 311.207031 250.90625 311.21875 C 252.082031 311.226562 253.164062 311.144531 254.132812 311.023438 C 255.113281 309.726562 256.207031 308.109375 255.816406 307.671875 " fill-opacity="1" fill-rule="nonzero"/><path fill="#e58d76" d="M 254.132812 311.023438 C 252.902344 311.085938 251.554688 311.101562 250.105469 311.03125 C 248.183594 310.941406 246.445312 310.714844 244.914062 310.4375 C 248.195312 312.441406 250.816406 313.519531 252.578125 314.121094 C 253.496094 314.441406 254.519531 314.742188 254.953125 314.289062 C 255.664062 313.539062 254.265625 311.238281 254.132812 311.023438 " fill-opacity="1" fill-rule="nonzero"/><path fill="#c46d5c" d="M 251.308594 302.519531 C 251.40625 302.648438 251.960938 302.222656 253.328125 301.75 C 254.871094 301.21875 255.679688 301.238281 255.679688 301.066406 C 255.675781 300.84375 254.347656 300.429688 253.128906 300.855469 C 251.953125 301.265625 251.183594 302.347656 251.308594 302.519531 " fill-opacity="1" fill-rule="nonzero"/><path fill="#d8816c" d="M 252.9375 302.800781 C 252.425781 302.945312 251.921875 303.039062 251.421875 303.050781 C 251.171875 303.054688 250.925781 303.042969 250.683594 303.003906 C 250.445312 302.96875 250.195312 302.914062 249.96875 302.839844 C 249.511719 302.695312 249.105469 302.433594 248.769531 302.078125 C 248.4375 301.71875 248.183594 301.277344 247.992188 300.78125 C 247.980469 301.3125 248.144531 301.859375 248.46875 302.320312 C 248.785156 302.78125 249.277344 303.136719 249.816406 303.3125 C 250.089844 303.394531 250.351562 303.445312 250.632812 303.472656 C 250.910156 303.496094 251.1875 303.484375 251.460938 303.4375 C 252.003906 303.347656 252.515625 303.128906 252.9375 302.800781 " fill-opacity="1" fill-rule="nonzero"/><path fill="#d8816c" d="M 254.207031 311.066406 C 253.421875 311.023438 252.640625 311.035156 251.867188 311.03125 C 251.09375 311.027344 250.324219 311.023438 249.5625 310.980469 C 248.800781 310.9375 248.042969 310.851562 247.289062 310.734375 C 246.535156 310.609375 245.785156 310.457031 245.035156 310.269531 L 245.136719 310.378906 C 244.980469 309.972656 244.824219 309.566406 244.644531 309.164062 C 244.6875 309.601562 244.757812 310.03125 244.828125 310.460938 L 244.839844 310.527344 L 244.929688 310.566406 C 245.644531 310.894531 246.402344 311.152344 247.175781 311.328125 C 247.949219 311.503906 248.742188 311.605469 249.535156 311.628906 C 250.328125 311.652344 251.117188 311.605469 251.898438 311.507812 C 252.675781 311.402344 253.445312 311.265625 254.207031 311.066406 " fill-opacity="1" fill-rule="nonzero"/><path fill="#2d1b18" d="M 244.292969 289.003906 C 244.707031 290.105469 245.796875 291.152344 246.421875 290.925781 C 246.910156 290.75 247 289.839844 247.105469 288.773438 C 247.222656 287.574219 247.109375 286.578125 246.988281 285.902344 C 246.726562 285.835938 246.28125 285.757812 245.742188 285.835938 C 245.070312 285.9375 244.597656 286.234375 244.363281 286.402344 C 244.222656 286.761719 243.855469 287.839844 244.292969 289.003906 " fill-opacity="1" fill-rule="nonzero"/><path fill="#2d1b18" d="M 240.535156 289.128906 C 243.832031 287.246094 245.6875 286.757812 246.800781 286.710938 C 247.0625 286.699219 247.917969 286.6875 248.664062 286.125 C 249.265625 285.671875 249.566406 285.039062 249.726562 284.5625 C 249.1875 284.855469 248.371094 285.207031 247.34375 285.292969 C 246.394531 285.367188 246.234375 285.136719 245.421875 285.207031 C 243.78125 285.34375 242.613281 286.429688 242.148438 286.859375 C 241.308594 287.632812 240.820312 288.484375 240.535156 289.128906 " fill-opacity="1" fill-rule="nonzero"/><g clip-path="url(#0f919748ed)"><path fill="#90bfb7" d="M 235.257812 490.960938 C 238.410156 470.683594 241.507812 447.734375 244.136719 422.410156 C 246.71875 397.523438 247.851562 379.957031 240.042969 359.871094 C 237.367188 352.992188 234.347656 347.628906 232.148438 344.089844 C 217.148438 341.871094 202.144531 339.652344 187.140625 337.433594 C 185.53125 339.148438 183.238281 341.707031 180.695312 344.96875 C 165.25 364.769531 160.484375 385.175781 156.71875 404.585938 C 150.4375 436.960938 146.925781 466.640625 144.910156 490.960938 L 235.257812 490.960938 " fill-opacity="1" fill-rule="nonzero"/></g><path fill="#81b5ab" d="M 242.46875 435.214844 L 240.453125 454.242188 C 240.453125 454.242188 203.855469 417.027344 194.175781 389.179688 L 242.46875 435.214844 " fill-opacity="1" fill-rule="nonzero"/><path fill="#ea9a81" d="M 194.769531 381.238281 C 200.101562 408.839844 252.800781 454.710938 255.363281 456.921875 C 265.460938 447.617188 275.558594 438.316406 285.65625 429.015625 C 254.558594 387.84375 228.667969 359.335938 218.832031 354.382812 C 215.566406 352.738281 208.574219 349.222656 202.210938 351.96875 C 202.015625 352.054688 200.035156 352.929688 198.285156 354.675781 C 191.035156 361.914062 194.105469 377.808594 194.769531 381.238281 " fill-opacity="1" fill-rule="nonzero"/><path fill="#ea9a81" d="M 300.125 308.289062 C 298.011719 308.660156 296.984375 312.855469 296.386719 315.199219 C 293.96875 324.730469 291.84375 330.667969 291.753906 330.648438 C 291.671875 330.632812 292.117188 325.710938 293.675781 317.375 C 294.550781 312.703125 295.429688 308.808594 293.75 307.734375 C 293.140625 307.34375 292.421875 307.472656 292.25 307.507812 C 289.699219 308.042969 288.855469 313.152344 287.433594 320.652344 C 284.1875 337.792969 283.414062 338.523438 283.121094 338.503906 C 282.878906 338.484375 282.738281 337.855469 282.472656 336.589844 C 281.605469 332.527344 282.429688 331.140625 281.59375 328.351562 C 281.269531 327.273438 280.753906 325.636719 279.210938 324.390625 C 277.976562 323.394531 275.652344 322.300781 274.613281 323.125 C 273.3125 324.15625 275.644531 326.898438 275.726562 333.269531 C 275.75 335.070312 275.585938 336.554688 275.800781 339.648438 C 275.828125 340.003906 275.921875 341.464844 276.171875 343.207031 C 276.578125 346.054688 279.4375 353.320312 279.308594 359.804688 C 279.28125 361.085938 279.125 363.105469 278.382812 365.601562 C 284.433594 366.628906 290.484375 367.652344 296.535156 368.679688 C 296.621094 367.652344 296.832031 366.160156 297.390625 364.445312 C 297.777344 363.253906 298.261719 362.125 299.898438 359.398438 C 302.785156 354.585938 303.679688 353.851562 305.023438 350.933594 C 305.523438 349.839844 305.855469 348.953125 306.476562 347.121094 C 308.367188 341.542969 308.851562 339.324219 311.527344 323.640625 C 311.6875 322.695312 312.007812 320.683594 310.941406 319.820312 C 310.871094 319.761719 310.351562 319.355469 309.746094 319.425781 C 308.273438 319.601562 307.5625 322.449219 305.441406 329.574219 C 304.292969 333.421875 303.957031 334.410156 303.835938 334.386719 C 303.648438 334.34375 304.015625 331.71875 304.46875 329.398438 C 304.761719 327.878906 306.621094 318.65625 306.640625 315.578125 C 306.644531 315.214844 306.625 314.515625 306.15625 313.976562 C 305.738281 313.496094 305.054688 313.253906 304.640625 313.28125 C 303.167969 313.375 302.285156 317.09375 300.578125 323.957031 C 298.800781 331.128906 298.433594 332.421875 298.386719 332.414062 C 298.324219 332.402344 298.691406 330.207031 299.28125 327.492188 C 300.523438 321.761719 301.109375 318.203125 302.273438 311.074219 C 302.363281 310.539062 302.542969 309.34375 301.867188 308.699219 C 301.25 308.105469 300.234375 308.273438 300.125 308.289062 " fill-opacity="1" fill-rule="nonzero"/><path fill="#ffffff" d="M 187.125 337.367188 C 188.101562 335.617188 189.074219 333.863281 190.046875 332.109375 C 196.191406 333.003906 202.429688 333.976562 208.761719 335.03125 C 217.042969 336.414062 225.132812 337.878906 233.027344 339.414062 C 232.734375 340.972656 232.441406 342.53125 232.148438 344.089844 C 227.78125 343.519531 223.382812 342.921875 218.960938 342.296875 C 208.148438 340.765625 197.535156 339.117188 187.125 337.367188 " fill-opacity="1" fill-rule="nonzero"/><path fill="#ea9a81" d="M 262.847656 402.246094 C 268.085938 389.820312 273.324219 377.398438 278.5625 364.972656 C 284.535156 366.113281 290.507812 367.253906 296.480469 368.394531 C 296.652344 378.839844 296.238281 393.476562 293.546875 410.71875 C 289.953125 433.75 285.722656 460.839844 272.496094 463.90625 C 269.421875 464.621094 262.355469 464.847656 250.859375 452.804688 C 254.855469 435.949219 258.851562 419.097656 262.847656 402.246094 " fill-opacity="1" fill-rule="nonzero"/><path fill="#90bfb7" d="M 216.804688 421.34375 C 192.328125 400.539062 181.039062 376.414062 188.238281 361.886719 C 188.421875 361.523438 192.585938 353.414062 201.070312 350.808594 C 216.03125 346.210938 232.628906 362.351562 240.070312 369.585938 C 246.402344 375.746094 250.699219 381.789062 253.433594 386.15625 C 241.222656 397.886719 229.015625 409.617188 216.804688 421.34375 " fill-opacity="1" fill-rule="nonzero"/><path fill="#442d25" d="M 293.773438 143.152344 C 294.550781 143.0625 295.480469 142.863281 296.46875 142.445312 C 299.550781 141.140625 301.089844 138.582031 301.648438 137.523438 C 301.457031 138.476562 301.078125 139.71875 300.269531 140.984375 C 298.035156 144.488281 294.265625 145.4375 293.253906 145.660156 C 293.433594 145.421875 293.757812 144.914062 293.839844 144.199219 C 293.890625 143.765625 293.832031 143.402344 293.773438 143.152344 " fill-opacity="1" fill-rule="nonzero"/><g clip-path="url(#31f034f215)"><path fill="#995241" d="M 396.414062 207.820312 L 395.667969 207.785156 C 395.960938 201.746094 394.808594 196.792969 392.429688 193.835938 C 391.953125 193.246094 391.417969 192.65625 390.898438 192.082031 C 389.171875 190.183594 387.382812 188.21875 387.207031 185.636719 C 387.003906 182.640625 389.003906 180.234375 390.941406 177.910156 C 391.199219 177.601562 391.453125 177.292969 391.703125 176.988281 C 395.085938 172.804688 397.09375 167.957031 397.347656 163.339844 C 397.636719 158.074219 395.660156 153.070312 392.054688 149.949219 C 391.285156 149.28125 390.398438 148.648438 389.539062 148.039062 C 387.136719 146.328125 384.652344 144.554688 384.09375 141.652344 C 383.875 140.519531 384.011719 139.804688 384.253906 138.507812 C 384.316406 138.160156 384.390625 137.769531 384.46875 137.308594 C 385.636719 130.417969 385.308594 124.898438 383.46875 120.433594 C 381.902344 116.632812 379.421875 113.757812 376.300781 112.117188 C 373.484375 110.640625 370.386719 110.714844 367.390625 110.789062 C 364.285156 110.863281 361.070312 110.941406 358.125 109.3125 C 353.929688 106.992188 352.816406 103.464844 351.53125 99.382812 C 350.304688 95.496094 348.917969 91.085938 344.582031 86.445312 C 338.105469 79.507812 329.839844 77.128906 325.492188 76.332031 C 310.566406 73.582031 298.394531 81.507812 292.472656 86.476562 C 282.636719 94.722656 278.84375 105.335938 277.457031 110.929688 L 276.734375 110.753906 C 278.140625 105.070312 281.992188 94.289062 291.988281 85.90625 C 293.296875 84.808594 297.269531 81.476562 303.171875 78.761719 C 310.6875 75.300781 318.242188 74.234375 325.628906 75.59375 C 330.066406 76.414062 338.503906 78.84375 345.128906 85.9375 C 349.578125 90.699219 350.996094 95.195312 352.246094 99.160156 C 353.535156 103.25 354.554688 106.484375 358.484375 108.65625 C 361.253906 110.191406 364.226562 110.117188 367.375 110.039062 C 370.464844 109.964844 373.65625 109.886719 376.644531 111.453125 C 379.929688 113.175781 382.527344 116.183594 384.160156 120.148438 C 386.054688 124.75 386.398438 130.402344 385.207031 137.429688 C 385.128906 137.898438 385.050781 138.292969 384.988281 138.644531 C 384.753906 139.890625 384.636719 140.515625 384.828125 141.511719 C 385.332031 144.121094 387.585938 145.730469 389.972656 147.429688 C 390.84375 148.050781 391.75 148.695312 392.546875 149.382812 C 396.324219 152.65625 398.398438 157.886719 398.09375 163.378906 C 397.757812 169.496094 394.75 174.414062 392.28125 177.457031 C 392.03125 177.765625 391.777344 178.074219 391.519531 178.386719 C 389.675781 180.601562 387.769531 182.890625 387.953125 185.585938 C 388.109375 187.910156 389.808594 189.777344 391.453125 191.582031 C 391.976562 192.160156 392.523438 192.757812 393.007812 193.363281 C 394.777344 195.558594 396.800781 199.847656 396.414062 207.820312 " fill-opacity="1" fill-rule="nonzero"/></g><path fill="#f0ae97" d="M 387.875 293.285156 C 381.980469 288.257812 372.039062 291.191406 363.949219 293.578125 C 360.53125 294.585938 354.894531 296.496094 345.230469 301.734375 C 333.777344 307.933594 328.964844 312.148438 314.546875 321.496094 C 307.664062 325.957031 302.027344 329.363281 298.671875 331.355469 C 300.957031 336.171875 303.242188 340.988281 305.527344 345.800781 C 307.148438 345.308594 313.476562 343.386719 315.101562 342.890625 C 324.820312 339.941406 334.542969 336.996094 344.269531 334.050781 C 344.269531 334.050781 378.839844 323.566406 389.09375 309.933594 C 390.042969 308.679688 392.167969 305.769531 392.066406 301.90625 C 391.933594 296.84375 388.058594 293.441406 387.875 293.285156 " fill-opacity="1" fill-rule="nonzero"/><path fill="#f0ae97" d="M 275.289062 335 C 264.167969 338.074219 261.484375 338.753906 261.527344 339.78125 C 261.574219 340.871094 264.65625 341.550781 264.90625 341.605469 C 267.382812 342.136719 268.671875 341.285156 273.335938 340.652344 C 276.15625 340.273438 277.566406 340.082031 277.773438 340.554688 C 278.183594 341.503906 273.929688 344.523438 269.929688 346.035156 C 269.273438 346.28125 268.726562 346.484375 267.941406 346.644531 C 265.335938 347.175781 264.199219 346.40625 261.480469 346.5625 C 260.707031 346.609375 257.667969 346.785156 257.46875 347.757812 C 257.261719 348.769531 260.226562 350.257812 262.113281 350.914062 C 264.703125 351.808594 266.910156 351.710938 267.746094 351.644531 C 270.417969 351.429688 272.453125 350.480469 273.554688 349.953125 C 275.972656 348.796875 277.941406 347.21875 278.277344 347.597656 C 278.355469 347.679688 278.316406 347.828125 278.300781 347.886719 C 277.953125 349.25 270.296875 352.5625 268.464844 353.347656 C 266.765625 352.941406 265.332031 352.820312 264.316406 352.792969 C 261.855469 352.71875 260.636719 353.132812 259.964844 353.425781 C 259.355469 353.691406 258.296875 354.152344 258.308594 354.726562 C 258.316406 355.164062 258.941406 355.628906 261.070312 356.269531 C 264.609375 357.339844 266.785156 357.996094 269.59375 357.449219 C 270.191406 357.332031 272.085938 356.457031 275.882812 354.714844 C 278.277344 353.613281 280.6875 352.433594 280.824219 352.679688 C 280.859375 352.738281 280.730469 352.878906 280.679688 352.933594 C 279.5625 354.121094 271.722656 358.03125 270.914062 358.429688 C 269.050781 358.480469 267.574219 358.789062 266.566406 359.0625 C 265.617188 359.324219 264.820312 359.632812 264.011719 360.144531 C 263.367188 360.550781 262.25 361.257812 262.378906 361.738281 C 262.476562 362.125 263.359375 362.230469 267.109375 362.246094 C 270.265625 362.257812 271.859375 362.265625 272.667969 362.105469 C 273.292969 361.984375 274.175781 361.761719 278.070312 359.925781 C 282.074219 358.03125 283.703125 357.050781 283.792969 357.191406 C 283.917969 357.390625 281.128906 359.992188 277.066406 362.054688 C 273.339844 363.941406 270.054688 364.609375 270.050781 366.121094 C 270.050781 366.566406 270.335938 366.890625 270.410156 366.972656 C 271.523438 368.21875 274.613281 367.136719 277.382812 366.132812 C 279.484375 365.375 283.257812 363.820312 288.144531 360.574219 C 288.394531 360.40625 289.132812 359.910156 290.105469 359.210938 C 293.894531 356.488281 295.929688 354.480469 299.796875 350.988281 C 301.160156 349.757812 303.222656 347.917969 305.828125 345.679688 C 303.460938 340.90625 301.089844 336.132812 298.722656 331.359375 C 297.828125 331.316406 296.769531 331.289062 295.570312 331.300781 C 294.277344 331.402344 293.632812 331.453125 291.59375 331.511719 C 290.578125 331.542969 286.824219 332.234375 275.289062 335 " fill-opacity="1" fill-rule="nonzero"/><path fill="#995241" d="M 292.808594 128.804688 C 288.984375 128.804688 287.101562 128.160156 285.664062 127.441406 C 281.5625 125.394531 279.667969 121.949219 279.332031 121.277344 C 278.121094 118.875 277.445312 116.050781 277.265625 112.644531 L 278.011719 112.605469 C 278.1875 115.90625 278.835938 118.632812 280 120.941406 C 280.320312 121.574219 282.105469 124.832031 285.996094 126.773438 C 287.613281 127.582031 289.84375 128.289062 295.140625 127.984375 C 299.503906 127.738281 302.199219 127.015625 304.804688 126.320312 C 306.367188 125.898438 307.84375 125.503906 309.628906 125.214844 C 314.722656 124.382812 320.171875 124.820312 325.820312 126.503906 L 325.605469 127.222656 C 320.066406 125.566406 314.730469 125.140625 309.75 125.953125 C 308 126.234375 306.542969 126.628906 304.996094 127.042969 C 302.355469 127.746094 299.621094 128.476562 295.183594 128.730469 C 294.316406 128.78125 293.527344 128.804688 292.808594 128.804688 " fill-opacity="1" fill-rule="nonzero"/><path fill="#995241" d="M 378 224.574219 C 377.378906 206.605469 373.125 195.332031 365.363281 191.082031 C 362.410156 189.464844 358.761719 188.707031 354.898438 187.902344 C 348.15625 186.5 341.1875 185.046875 336.835938 178.863281 C 336.355469 178.183594 335.808594 177.410156 335.304688 176.238281 C 333.316406 171.648438 334.679688 167.632812 336.261719 162.980469 C 337.320312 159.863281 338.417969 156.640625 338.691406 152.785156 C 338.992188 148.574219 338.207031 144.179688 336.367188 139.714844 L 337.058594 139.429688 C 338.945312 144 339.746094 148.511719 339.4375 152.835938 C 339.15625 156.789062 337.996094 160.207031 336.96875 163.222656 C 335.4375 167.726562 334.117188 171.617188 335.988281 175.9375 C 336.464844 177.039062 336.964844 177.75 337.445312 178.4375 C 341.628906 184.375 348.453125 185.796875 355.054688 187.171875 C 358.96875 187.984375 362.671875 188.753906 365.722656 190.425781 C 369.261719 192.363281 372.117188 195.699219 374.214844 200.332031 C 376.871094 206.207031 378.394531 214.355469 378.746094 224.550781 L 378 224.574219 " fill-opacity="1" fill-rule="nonzero"/><path fill="#f0ae97" d="M 330.773438 145.628906 C 326.59375 146.09375 322.652344 141.460938 321.964844 135.289062 C 321.28125 129.113281 324.113281 123.734375 328.292969 123.269531 C 332.476562 122.808594 336.417969 127.4375 337.101562 133.609375 C 337.789062 139.785156 334.953125 145.164062 330.773438 145.628906 " fill-opacity="1" fill-rule="nonzero"/></svg>