<svg xmlns="http://www.w3.org/2000/svg" xmlns:xlink="http://www.w3.org/1999/xlink" width="755" zoomAndPan="magnify" viewBox="0 0 567 567.000005" height="755" preserveAspectRatio="xMidYMid meet" version="1.0"><defs><clipPath id="ef52d5d1fd"><path d="M 57.09375 185 L 122 185 L 122 205 L 57.09375 205 Z M 57.09375 185 " clip-rule="nonzero"/></clipPath><clipPath id="cee8756d58"><path d="M 270 173 L 297 173 L 297 178 L 270 178 Z M 270 173 " clip-rule="nonzero"/></clipPath><clipPath id="ccf440f26f"><path d="M 290.414062 101.085938 L 239.691406 117.941406 L 260.214844 186.1875 L 310.933594 169.332031 Z M 290.414062 101.085938 " clip-rule="nonzero"/></clipPath><clipPath id="4c817d0db0"><path d="M 277.917969 106.671875 C 288.617188 105.882812 294.980469 121.644531 301.117188 139.101562 C 303.242188 142.671875 304.242188 146.902344 304.433594 151.078125 C 304.8125 159.652344 301.882812 169.183594 294.65625 173.917969 C 282.566406 181.832031 262.535156 175.335938 259.5 159.878906 C 259.5 159.878906 249.617188 155.636719 248.4375 146.121094 C 247.226562 136.394531 255.414062 142.464844 255.425781 140.027344 C 255.503906 122.726562 259.21875 106.839844 277.917969 106.671875 " clip-rule="evenodd"/></clipPath></defs><path fill="#fcd1ad" d="M 413.320312 441.457031 C 421.164062 443.410156 434.011719 439.660156 434.988281 441.3125 C 441.003906 451.515625 451.109375 457.246094 471.84375 463.257812 C 474.824219 464.125 481.242188 469.398438 475.257812 472.367188 C 465.652344 477.136719 453.019531 473.332031 438.457031 472.984375 C 428.101562 472.738281 416.363281 472.203125 412.332031 470.085938 C 405.410156 466.453125 414.238281 448.914062 413.320312 441.457031 Z M 413.320312 441.457031 " fill-opacity="1" fill-rule="evenodd"/><path fill="#fcd1ad" d="M 100.707031 441.570312 C 101.78125 448.265625 111.394531 453.902344 111.394531 453.902344 C 111.394531 453.902344 90.320312 479.042969 86.316406 502.886719 C 85.972656 504.960938 80.308594 509.109375 79.078125 503.046875 C 78.664062 501.015625 64.160156 495.675781 65.5625 486.859375 C 67.203125 476.578125 74.773438 468.804688 77.902344 456.511719 C 79.6875 449.496094 94.175781 445.460938 100.707031 441.570312 Z M 100.707031 441.570312 " fill-opacity="1" fill-rule="evenodd"/><path fill="#fcd1ad" d="M 441.585938 193.582031 C 443.375 192.179688 446.074219 189.238281 453.253906 192.496094 C 463.46875 197.128906 470.597656 191.957031 476.164062 190.910156 C 489.75 188.367188 497.582031 188.210938 504.757812 180.078125 C 500.375 174.453125 489.976562 180.121094 474.761719 177 C 461.1875 174.957031 441.414062 177.621094 441.414062 177.621094 Z M 441.585938 193.582031 " fill-opacity="1" fill-rule="evenodd"/><g clip-path="url(#ef52d5d1fd)"><path fill="#fcd1ad" d="M 120.855469 203.863281 C 119.15625 202.398438 116.59375 199.3125 109.722656 202.777344 C 99.953125 207.707031 92.730469 199.636719 87.421875 198.566406 C 74.46875 195.949219 64.710938 198.695312 57.90625 190.164062 C 62.113281 184.214844 74.734375 189.910156 89.269531 186.546875 C 102.234375 184.332031 121.09375 187.050781 121.09375 187.050781 Z M 120.855469 203.863281 " fill-opacity="1" fill-rule="evenodd"/></g><path fill="#530043" d="M 248.761719 317.144531 C 230.503906 327.769531 204.4375 345.90625 161.992188 391.074219 C 128.308594 411.230469 106.976562 432.316406 91.070312 443.605469 C 94.757812 452.753906 99.644531 459.984375 106.941406 463.347656 C 131.332031 443.761719 155.765625 433.667969 179.40625 417.695312 C 209.96875 397.050781 251.996094 370.742188 290.289062 339.484375 Z M 248.761719 317.144531 " fill-opacity="1" fill-rule="evenodd"/><path fill="#530043" d="M 280.179688 337.816406 C 305.707031 347.714844 365.082031 358.410156 405.101562 363.625 C 399.996094 379.707031 405.542969 411.480469 411.050781 445.125 C 420.730469 448.007812 429.625 447.152344 438.125 444.40625 C 430.757812 400.460938 443.527344 355.714844 430.398438 334.472656 C 423.65625 323.566406 367.257812 317.210938 317.996094 317.796875 Z M 280.179688 337.816406 " fill-opacity="1" fill-rule="evenodd"/><path fill="#fcd1ad" d="M 294.78125 165.566406 C 294.882812 172.613281 299.175781 195.710938 298.984375 196.53125 C 298.851562 197.09375 271.558594 198.96875 271.558594 198.96875 L 272.296875 169.96875 Z M 294.78125 165.566406 " fill-opacity="1" fill-rule="evenodd"/><path fill="#fcd1ad" d="M 277.917969 106.671875 C 288.617188 105.882812 294.980469 121.644531 301.117188 139.101562 C 303.242188 142.671875 304.242188 146.902344 304.433594 151.078125 C 304.8125 159.652344 301.882812 169.183594 294.65625 173.917969 C 282.566406 181.832031 262.535156 175.335938 259.5 159.878906 C 259.5 159.878906 249.617188 155.636719 248.4375 146.121094 C 247.226562 136.394531 255.414062 142.464844 255.425781 140.027344 C 255.503906 122.726562 259.21875 106.839844 277.917969 106.671875 " fill-opacity="1" fill-rule="evenodd"/><g clip-path="url(#cee8756d58)"><g clip-path="url(#ccf440f26f)"><g clip-path="url(#4c817d0db0)"><path fill="#d19b6d" d="M 295.949219 173.140625 C 294.925781 173.957031 292.160156 175.007812 289.101562 175.777344 C 287.914062 176.074219 286.679688 176.328125 285.488281 176.507812 C 284.179688 176.703125 282.921875 176.8125 281.824219 176.777344 C 280.261719 176.738281 278.207031 176.5 276.1875 176.089844 C 274.175781 175.683594 272.199219 175.101562 270.792969 174.347656 C 270.757812 174.328125 270.714844 174.34375 270.695312 174.378906 C 270.671875 174.414062 270.6875 174.460938 270.722656 174.476562 C 272.125 175.269531 274.105469 175.90625 276.128906 176.355469 C 278.160156 176.808594 280.238281 177.070312 281.8125 177.136719 C 282.929688 177.171875 284.210938 177.074219 285.542969 176.863281 C 286.742188 176.679688 287.988281 176.40625 289.183594 176.085938 C 292.265625 175.265625 295.042969 174.125 296.0625 173.28125 C 296.101562 173.246094 296.105469 173.191406 296.074219 173.15625 C 296.042969 173.117188 295.988281 173.113281 295.949219 173.140625 Z M 295.949219 173.140625 " fill-opacity="1" fill-rule="evenodd"/></g></g></g><path fill="#391a00" d="M 249.460938 105.21875 C 268.65625 100.007812 281.394531 95.570312 292.0625 117.292969 C 292.0625 117.292969 282.617188 111.058594 272.398438 113.167969 C 263.242188 115.054688 253.339844 124.308594 255.773438 141.417969 C 255.773438 141.417969 251.914062 139.609375 250.199219 141.996094 C 247.964844 145.105469 249.773438 149.3125 251.644531 152.15625 C 253.894531 155.585938 258.445312 155.199219 258.445312 155.199219 C 258.445312 155.199219 259.09375 164.117188 272.230469 174.828125 C 272.917969 175.390625 262.582031 173.863281 259.011719 172.441406 C 248.023438 168.074219 242.429688 161.175781 239.175781 151.511719 C 237.175781 145.558594 236.378906 139.527344 236.75 133.664062 C 237.3125 124.785156 238.5625 119.402344 244.324219 112.191406 C 239.078125 110.597656 234.769531 115.019531 231.742188 121.867188 C 227.925781 130.488281 237.90625 150.609375 230.695312 163.121094 C 223.773438 175.125 212.984375 175.816406 212.984375 175.816406 C 226.726562 150.261719 208.078125 134.296875 208.941406 120.535156 C 210.464844 96.164062 230.539062 84.855469 240.339844 94.710938 C 243.808594 98.199219 243.644531 102.367188 249.460938 105.21875 Z M 249.460938 105.21875 " fill-opacity="1" fill-rule="evenodd"/><path fill="#ff95a5" d="M 314.273438 185.976562 C 312.882812 186.570312 298.375 190.914062 298.375 190.914062 C 292.914062 199.355469 278.730469 196.984375 271.191406 191.582031 C 271.191406 191.582031 126.375 183.582031 118.6875 183.144531 C 115.074219 185.757812 116.382812 204.414062 119.144531 205.941406 C 126.582031 206.289062 243.847656 215.992188 251.96875 225.207031 C 257.910156 244.839844 260.828125 261.910156 254.757812 288.5 C 252.253906 299.464844 241.246094 311.164062 226.945312 327.59375 C 285.757812 350.261719 308.527344 348.1875 351.046875 318.21875 C 342.042969 313.558594 335.824219 314.113281 333.703125 311.515625 C 315.402344 289.160156 321.148438 271.949219 330.542969 245.84375 C 334.542969 234.726562 326.304688 221.074219 326.648438 216.105469 C 326.917969 212.234375 444.140625 201.28125 449.8125 193.585938 L 448.316406 175.234375 C 450.054688 173.375 322.550781 183.761719 314.273438 185.976562 Z M 314.273438 185.976562 " fill-opacity="1" fill-rule="evenodd"/></svg>