<svg width="64" height="64" viewBox="0 0 44 44" fill="none" xmlns="http://www.w3.org/2000/svg">
<circle cx="22" cy="22" r="22" fill="#FF8039" fill-opacity="0.54"/>
<path d="M13.3333 11.1667H30.6667C30.954 11.1667 31.2295 11.2808 31.4327 11.484C31.6359 11.6871 31.75 11.9627 31.75 12.25V31.75C31.75 32.0373 31.6359 32.3129 31.4327 32.516C31.2295 32.7192 30.954 32.8333 30.6667 32.8333H13.3333C13.046 32.8333 12.7705 32.7192 12.5673 32.516C12.3641 32.3129 12.25 32.0373 12.25 31.75V12.25C12.25 11.9627 12.3641 11.6871 12.5673 11.484C12.7705 11.2808 13.046 11.1667 13.3333 11.1667ZM14.4167 13.3333V30.6667H29.5833V13.3333H14.4167ZM16.5833 15.5H27.4167V19.8333H16.5833V15.5ZM16.5833 22H18.75V24.1667H16.5833V22ZM16.5833 26.3333H18.75V28.5H16.5833V26.3333ZM20.9167 22H23.0833V24.1667H20.9167V22ZM20.9167 26.3333H23.0833V28.5H20.9167V26.3333ZM25.25 22H27.4167V28.5H25.25V22Z" fill="#066F6A"/>
</svg>
