<svg width="387" height="542" viewBox="0 0 387 542" fill="none" xmlns="http://www.w3.org/2000/svg">
<path d="M141.476 123.441C132.805 130.292 125.325 138.568 116.54 145.273C100.868 157.232 81.5682 163.803 66.1519 176.092C50.2426 188.775 39.3931 206.891 32.166 225.912C24.5127 246.052 20.5758 267.995 23.8547 289.29C27.1334 310.586 38.1778 331.148 55.9503 343.331C72.9775 355.001 94.446 358.221 112.476 368.27C131.228 378.721 145.17 395.894 161.965 409.263C178.027 422.049 196.835 431.366 216.737 436.4C235.333 441.101 255.162 442.027 273.615 436.798C292.069 431.57 309.011 419.811 318.489 403.138C331.609 380.064 329.171 351.393 337.543 326.203C341.629 313.907 348.244 302.614 353.121 290.607C361.722 269.436 364.789 246.045 361.937 223.374C359.526 204.209 352.444 184.866 338.165 171.859C328.253 162.824 315.638 157.467 303.486 151.791C280.066 140.856 255.689 128.651 235.049 112.959C218.19 100.141 198.48 100.288 178.11 105.484C164.841 108.869 152.232 114.942 141.476 123.441Z" fill="#DEE2E6"/>
<path d="M195.929 378.372C196.102 381.728 196.813 385.125 198.8 387.806C205.041 396.231 210.526 388.61 214.441 382.936C229.655 360.886 238.214 335.07 248.156 310.193C272.364 249.612 346.979 142.13 346.979 142.13C346.979 142.13 336.259 151.391 331.391 155.879C326.084 160.769 320.889 165.782 315.809 170.909C305.649 181.162 295.953 191.873 286.75 202.992C268.343 225.235 251.913 249.114 237.705 274.247C228.469 290.582 220.173 307.449 212.886 324.742C209.296 333.253 205.953 341.87 202.862 350.575C199.831 359.109 195.716 368.097 195.891 377.278C195.898 377.642 195.911 378.006 195.929 378.372Z" fill="#FF8039" fill-opacity="0.54"/>
<path d="M190.437 387.468C190.264 390.824 189.553 394.221 187.566 396.902C181.325 405.327 175.84 397.706 171.927 392.032C156.711 369.982 148.152 344.166 138.21 319.289C114.002 258.708 39.3872 151.225 39.3872 151.225C39.3872 151.225 50.1069 160.487 54.9754 164.975C60.2816 169.865 65.4776 174.878 70.5571 180.005C80.7168 190.258 90.4132 200.969 99.6157 212.088C118.024 234.331 134.454 258.21 148.661 283.343C157.897 299.678 166.193 316.545 173.482 333.838C177.07 342.348 180.413 350.966 183.504 359.671C186.535 368.204 190.65 377.193 190.475 386.374C190.468 386.738 190.455 387.102 190.437 387.468Z" fill="#FF8039" fill-opacity="0.54"/>
<path d="M375.593 162.321C375.593 162.321 339.075 211.453 327.268 240.176C319.888 258.124 312.786 276.196 305.96 294.38C298.629 313.911 291.572 333.678 281.44 351.785C271.307 369.889 257.796 386.456 240.253 396.618C227.605 403.948 181.296 417.679 187.734 387.304C192.707 363.849 205.143 339.847 216.32 319.076C239.675 275.679 271.145 237.064 308.462 206.145C318.98 197.431 329.963 189.328 341.354 181.911C351.869 175.064 375.593 162.321 375.593 162.321Z" fill="#F89E6B"/>
<path d="M372.297 163.119C290.574 220.476 232.953 309.725 196.233 405.192C196.142 405.427 196.26 405.691 196.493 405.782C196.728 405.871 196.992 405.754 197.083 405.52C233.755 310.169 291.298 221.077 372.819 163.863C373.024 163.72 373.074 163.436 372.93 163.23C372.784 163.025 372.502 162.976 372.297 163.119Z" fill="#040606"/>
<path d="M0 179.565C0 179.565 37.4495 227.993 49.8028 256.485C57.5223 274.288 64.9695 292.221 72.1403 310.273C79.8413 329.66 87.2759 349.289 97.7516 367.197C108.228 385.105 122.053 401.41 139.786 411.239C152.571 418.323 199.135 431.168 192.116 400.924C186.699 377.568 173.806 353.808 162.234 333.253C138.057 290.309 105.856 252.301 67.9555 222.101C57.2736 213.589 46.1382 205.697 34.6084 198.499C23.9641 191.851 0 179.565 0 179.565Z" fill="#F89E6B"/>
<path d="M2.80481 181.055C85.4027 236.702 144.634 324.679 183.118 419.313C183.213 419.545 183.479 419.658 183.711 419.564C183.944 419.469 184.055 419.203 183.961 418.971C145.427 324.222 86.114 236.089 3.31291 180.3C3.10388 180.16 2.82173 180.216 2.68111 180.423C2.54103 180.633 2.59579 180.915 2.80481 181.055Z" fill="#040606"/>
<path d="M269.493 425.361C269.493 483.009 222.76 529.742 165.114 529.742C107.466 529.742 60.7328 483.009 60.7328 425.361C60.7328 367.713 107.466 320.98 165.114 320.98C222.76 320.98 269.493 367.713 269.493 425.361Z" fill="#FF8039"/>
<path d="M261.663 386.304C246.41 409.076 208.936 425.292 165.114 425.281C121.289 425.292 83.8173 409.074 68.5645 386.304C68.4246 386.094 68.1418 386.04 67.9335 386.18C67.7246 386.318 67.6691 386.602 67.8092 386.809C83.3581 409.962 121.073 426.182 165.114 426.191C209.153 426.182 246.868 409.964 262.418 386.809C262.558 386.602 262.502 386.32 262.293 386.18C262.085 386.04 261.802 386.094 261.663 386.304Z" fill="#040606"/>
<path d="M268.947 427.99C267.801 444.384 255.898 459.205 237.215 469.938C218.538 480.666 193.12 487.279 165.114 487.277C138.976 487.279 115.091 481.519 96.8386 472.029C78.58 462.538 65.9807 449.323 62.3047 434.464C62.2443 434.221 61.9976 434.071 61.7533 434.131C61.5096 434.191 61.3609 434.439 61.4213 434.683C65.1961 449.9 78.0164 463.267 96.4185 472.836C114.826 482.405 138.841 488.187 165.114 488.187C193.264 488.187 218.822 481.55 237.668 470.726C256.506 459.907 268.669 444.872 269.853 428.054C269.871 427.802 269.682 427.584 269.433 427.568C269.182 427.55 268.964 427.739 268.947 427.99Z" fill="#040606"/>
<path d="M215.423 30.7575C208.398 16.0749 192.056 8.43619 176.431 3.87914C165.36 0.650101 153.495 -1.60568 142.371 1.43599C135.174 3.40434 128.459 8.17238 124.608 14.4104C116.411 15.3509 108.766 21.456 104.186 28.6818C97.2927 39.555 95.2035 52.8551 95.384 65.7276C95.5637 78.6001 97.844 91.3417 98.9889 104.165C99.684 111.946 99.9503 119.874 98.1844 127.481C96.3718 135.293 92.4953 142.442 89.4716 149.87C84.5364 161.988 81.9746 176.205 87.8799 187.884C90.178 192.428 93.687 196.352 97.9479 199.141C104.003 203.105 111.799 205.069 115.793 211.104C119.473 216.667 118.846 224.267 122.542 229.819C126.382 235.594 133.841 237.66 140.73 238.468C146.109 239.099 151.84 239.17 156.615 236.612C162.957 233.216 166.175 226.054 171.234 220.94C180.917 211.147 196.822 209.352 205.935 199.026C213.728 190.198 214.625 177.072 212.149 165.561C210.232 156.643 206.533 147.798 207.617 138.74C208.627 130.294 213.693 122.859 215.607 114.569C217.628 105.819 216.035 96.6937 216.091 87.7142C216.209 68.4837 223.724 48.1052 215.423 30.7575Z" fill="#2C2422"/>
<path d="M202.16 20.0825C193.497 11.8234 181.745 7.23902 169.846 5.95287C156.588 4.51935 142.291 7.34998 132.46 16.3622C121.473 26.4314 117.843 42.3692 118.017 57.2719C118.089 63.4772 118.774 69.8643 121.71 75.3328C124.645 80.8012 130.253 85.1854 136.458 85.1418L137.877 81.1923C139.553 73.208 143.266 65.4473 149.436 60.108C154.339 55.8657 160.486 53.3734 166.599 51.2141C172.711 49.0547 178.976 47.1264 184.525 43.7736C190.073 40.4209 194.941 35.3854 196.519 29.0983C203.779 35.8165 209.953 43.7045 214.729 52.3674C216.066 40.4736 210.821 28.3397 202.16 20.0825Z" fill="#10B3AB"/>
<path d="M261.978 523.572C262.205 522.265 262.538 520.47 262.92 518.394C263.015 517.876 263.111 517.354 263.212 516.801C263.306 516.282 263.404 515.749 263.501 515.205C264.94 507.25 266.191 497.013 266.444 492.525C266.535 490.93 266.581 489.225 266.608 487.464C268.398 488.507 270.374 489.258 272.404 489.7C275.678 490.415 279.055 490.479 282.406 490.483C285.149 490.486 288.203 490.297 290.477 488.963C290.457 489.196 290.446 489.407 290.45 489.567C290.628 498.045 295.846 506.673 298.203 508.965C298.569 509.324 298.955 509.671 299.337 510.019C300.074 510.695 300.827 511.365 301.611 512.036C302.06 512.422 302.513 512.811 302.97 513.206C305.698 515.576 311.242 518.736 316.532 521.798C322.004 524.961 327.207 528.023 328.753 529.995C331.216 533.137 332.046 537.828 327.894 539.704C321.311 542.682 311.815 541.942 304.949 540.506C296.866 538.816 289.158 535.687 281.043 534.13C276.131 533.19 261.451 533.264 261.66 525.736C261.667 525.449 261.787 524.676 261.978 523.572Z" fill="#10B3AB"/>
<path d="M296.564 460.222C293.253 474.665 290.743 485.569 290.477 488.963C288.203 490.297 285.149 490.486 282.406 490.482C279.055 490.479 275.678 490.415 272.404 489.7C270.374 489.258 268.398 488.507 266.608 487.464C266.733 479.038 266.188 468.82 265.511 457.808L296.564 460.222Z" fill="#F89E6B"/>
<path d="M269.611 507.839C270.17 510.837 272.109 513.528 274.778 515.009C274.998 515.129 275.274 515.051 275.396 514.83C275.518 514.61 275.438 514.334 275.218 514.212C272.795 512.873 271.008 510.395 270.505 507.674C270.459 507.426 270.221 507.263 269.975 507.308C269.728 507.355 269.564 507.592 269.611 507.839Z" fill="#040606"/>
<path d="M317.201 516.855C317.348 515.54 317.57 513.726 317.825 511.63C317.889 511.108 317.952 510.581 318.02 510.022C318.083 509.498 318.147 508.96 318.213 508.414C319.166 500.386 319.793 490.089 319.773 485.598C319.766 484.001 319.708 482.294 319.628 480.535C321.48 481.466 323.495 482.098 325.549 482.416C328.86 482.929 332.235 482.787 335.578 482.587C338.32 482.423 341.356 482.049 343.543 480.582C343.539 480.817 343.541 481.026 343.554 481.188C344.247 489.636 349.979 497.932 352.471 500.078C352.859 500.411 353.263 500.735 353.665 501.063C354.443 501.688 355.236 502.312 356.059 502.935C356.532 503.293 357.007 503.651 357.485 504.021C360.354 506.222 366.079 509.038 371.545 511.77C377.199 514.599 382.579 517.337 384.242 519.213C386.89 522.2 388.004 526.831 383.976 528.956C377.583 532.327 368.06 532.165 361.122 531.152C352.95 529.955 345.067 527.297 336.87 526.238C331.911 525.598 317.263 526.562 317.014 519.036C317.005 518.749 317.077 517.97 317.201 516.855Z" fill="#10B3AB"/>
<path d="M347.874 451.525C345.447 466.14 343.603 477.177 343.543 480.583C341.356 482.049 338.32 482.424 335.578 482.587C332.235 482.787 328.86 482.929 325.549 482.416C323.495 482.098 321.48 481.467 319.628 480.535C319.242 472.116 318.076 461.952 316.732 451.001L347.874 451.525Z" fill="#F89E6B"/>
<path d="M323.863 500.688C324.603 503.65 326.703 506.216 329.457 507.532C329.682 507.641 329.954 507.544 330.063 507.317C330.17 507.091 330.074 506.819 329.848 506.711C327.349 505.521 325.415 503.157 324.745 500.468C324.685 500.224 324.438 500.077 324.194 500.137C323.95 500.199 323.803 500.444 323.863 500.688Z" fill="#040606"/>
<path d="M259.009 266.996L212.706 227.483C212.706 227.483 217.823 186.477 215.613 169.552C213.513 153.472 204.97 151.809 188.963 143.734C174.956 136.666 168.227 235.304 174.836 247.727C181.443 260.149 248.438 281.901 248.438 281.901" fill="#BF673E"/>
<path d="M212.436 227.121C210.171 227.805 208.043 228.933 206.209 230.429L206.155 230.962L206.688 231.016C208.445 229.586 210.486 228.502 212.656 227.849C212.857 227.789 212.971 227.576 212.909 227.376C212.849 227.176 212.638 227.061 212.436 227.121Z" fill="#231F20"/>
<path d="M185.305 349.028C217.219 368.781 307.529 352.679 307.529 352.679C307.529 352.679 304.032 358.834 305.131 389.709C306.23 420.644 313.85 471.144 313.85 471.144C313.85 471.144 316.468 478.27 328.831 479.704C341.194 481.137 348.347 475.427 348.347 475.427C348.347 475.427 368.698 348.353 358.285 327.879C347.874 307.402 236.659 288.217 236.659 288.217L184.043 272.737C184.043 272.737 153.393 329.279 185.305 349.028Z" fill="#066F6A"/>
<path d="M143.238 343.964C173.313 366.416 264.681 358.234 264.681 358.234C264.681 358.234 260.663 364.059 259.071 394.912C257.476 425.827 260.674 476.801 260.674 476.801C260.674 476.801 262.662 484.126 274.854 486.63C287.045 489.135 294.667 484.066 294.667 484.066C294.667 484.066 321.945 359.989 320.909 338.248C319.872 316.507 199.688 287.848 199.688 287.848L148.618 267.853C148.618 267.853 113.165 321.512 143.238 343.964Z" fill="#066F6A"/>
<path d="M307.869 423.189C314.561 389.667 321.387 352.423 321.393 339.57C321.393 339.088 321.383 338.639 321.363 338.226C321.203 335.164 318.935 332.145 315.244 329.117C304.148 320.054 279.721 310.753 256.14 303.198C255.9 303.121 255.644 303.254 255.567 303.492C255.491 303.733 255.624 303.987 255.862 304.064C271.554 309.088 287.632 314.904 299.83 320.867C305.928 323.847 311.056 326.865 314.667 329.821C318.289 332.776 320.343 335.661 320.454 338.268C320.474 338.666 320.483 339.101 320.483 339.57C320.488 352.206 313.668 389.527 306.977 423.011C306.928 423.258 307.088 423.496 307.334 423.546C307.579 423.595 307.82 423.435 307.869 423.189Z" fill="#040606"/>
<path d="M189.928 186.936C206.364 184.462 193 152.562 188.963 143.734C184.21 141.032 179.624 137.318 177.412 131.087C173.602 120.374 177.492 111.867 177.492 111.867L150.342 97.2503C150.342 97.2503 155.727 128.044 152.03 137.6C150.979 140.321 148.498 142.308 145.438 143.856C151.745 154.503 173.733 189.372 189.928 186.936Z" fill="#BF673E"/>
<path d="M221.198 216.827C223.015 210.081 225.04 200.485 223.883 194.469C221.943 184.411 205.302 151.984 198.667 148.54C195.891 147.099 192.385 145.679 188.963 143.734C193 152.562 206.364 184.462 189.928 186.936C173.733 189.372 151.745 154.503 145.438 143.856C142.05 145.569 137.954 146.743 134.288 147.774C137.906 154.165 147.188 172.273 145.189 186.692C143.566 198.397 138.365 203.956 134.985 206.395C146.306 229.568 155.712 238.237 150.275 253.947C144.377 270.991 138.392 279.885 138.392 279.885C138.392 279.885 165.22 303.642 202.52 305.65C239.82 307.656 256 286.982 256 261.79C256 239.208 240.952 220.472 221.198 216.827Z" fill="#10B3AB"/>
<path d="M145.189 186.692C147.188 172.273 137.906 154.165 134.288 147.775C129.644 149.081 125.696 150.156 124.785 151.813C122.505 155.957 119.543 172.21 132.074 200.187C133.053 202.374 134.026 204.429 134.985 206.396C138.365 203.956 143.566 198.397 145.189 186.692Z" fill="#BF673E"/>
<path d="M186.731 211.775L186.662 211.888C185.935 213.052 179.522 222.701 165.44 223.571C165.189 223.587 164.998 223.803 165.014 224.053C165.029 224.304 165.245 224.495 165.496 224.478C180.979 223.512 187.488 212.284 187.517 212.232C187.645 212.013 187.57 211.735 187.352 211.609C187.135 211.484 186.857 211.558 186.731 211.775Z" fill="#040606"/>
<path d="M166.386 263.147C166.397 263.165 170.297 269.79 176.759 276.432C183.22 283.067 192.253 289.761 202.598 289.771C203.977 289.771 205.38 289.65 206.801 289.394C207.048 289.348 207.212 289.112 207.168 288.866C207.123 288.619 206.886 288.453 206.639 288.499C205.272 288.744 203.924 288.861 202.598 288.861C192.669 288.87 183.792 282.363 177.412 275.797C174.221 272.519 171.658 269.237 169.893 266.776C169.011 265.544 168.329 264.52 167.868 263.804C167.406 263.087 167.17 262.687 167.17 262.685C167.042 262.468 166.764 262.395 166.548 262.523C166.331 262.652 166.258 262.93 166.386 263.147Z" fill="#040606"/>
<path d="M177.584 131.558C177.526 131.403 177.468 131.245 177.412 131.087L177.601 131.549C177.595 131.553 177.59 131.556 177.584 131.558ZM152.529 113.401C152.527 113.401 152.527 113.399 152.527 113.399C152.523 113.363 152.52 113.326 152.516 113.292H152.518C152.522 113.328 152.525 113.365 152.529 113.401Z" fill="#231511"/>
<path d="M173.755 132.568C164.714 132.568 156.033 119.423 152.529 113.401C152.525 113.365 152.522 113.328 152.518 113.292C159.675 118.569 167.786 122.228 175.834 123.792C176.02 126.035 176.491 128.497 177.412 131.087C177.468 131.245 177.526 131.404 177.584 131.558C176.56 132.188 175.32 132.559 173.808 132.568C173.79 132.568 173.773 132.568 173.755 132.568Z" fill="#9E4325"/>
<path d="M215.431 56.9026C223.115 85.3182 210.71 118.904 194.017 123.419C170.613 129.75 138.443 110.93 130.759 82.513C123.073 54.0993 133.36 23.7953 156.766 17.4646C180.17 11.1357 207.745 28.487 215.431 56.9026Z" fill="#BF673E"/>
<path d="M159.835 111.702V111.52H159.107V111.338H158.379V111.156H157.652V110.974H157.106V110.792H156.742V110.61H156.378V110.428H156.015V110.247H155.651V110.065H155.105V109.883H154.923V109.701H154.741V109.519H154.377V109.337H154.195V109.155H153.832V108.973H153.65V108.791H153.468V108.609H153.104V108.427H152.922V108.245H152.74V108.064H152.558V107.882H152.376V107.7H152.194V107.518H152.012V107.336H151.83V107.154H151.648V106.972H151.467V106.79H151.285V106.426H151.103V106.244H150.921V105.881H150.739V105.699H150.557V105.335H150.375V105.153H150.193V104.789H150.011V104.425H149.829V104.243H149.647V103.698H149.465V103.334H149.284V102.97H149.102V102.424H148.92V101.878H148.738V101.151H148.556V100.059H148.374V95.875H148.556V94.9655H148.738V94.2378H148.92V93.5101H149.102V93.1463H149.284V92.6005H149.465V92.2367H149.647V91.8728H149.829V91.509H150.011V91.1452H150.193V90.7813H150.375V90.5994H150.557V90.2356H150.739V90.0537H150.921V89.6898H151.103V89.5079H151.285V89.326H151.467V88.9622H151.648V88.7802H151.83V88.5983H152.012V88.4164H152.194V88.2345H152.376V88.0526H152.558V87.8706H152.74V87.6887H152.922V87.5068H153.104V87.3249H153.286V87.143H153.468V86.9611H153.832V86.7791H154.195V86.5972H154.377V86.4153H154.741V86.2334H154.923V86.0515H155.287V85.8696H155.469V85.6876H155.833V85.5057H156.196V85.3238H156.742V85.1419H157.106V84.96H157.47V84.778H158.198V84.5961H158.743V84.4142H159.835V84.2323H161.108V84.0504H161.472V84.2323H164.383V84.4142H165.292V84.5961H166.02V84.778H166.748V84.96H167.112V85.1419H167.475V85.3238H167.839V85.5057H168.385V85.6876H168.749V85.8696H169.113V86.0515H169.295V86.2334H169.658V86.4153H169.84V86.5972H170.204V86.7791H170.386V86.9611H170.568V87.143H170.932V87.3249H171.114V87.5068H171.296V87.6887H171.478V87.8706H171.659V88.0526H171.841V88.2345H172.023V88.4164H172.205V88.5983H172.387V88.7802H172.569V88.9622H172.751V89.1441H172.933V89.326H173.115V89.6898H173.297V89.8717H173.479V90.2356H173.661V90.4175H173.842V90.7813H174.024V90.9633H174.206V91.3271H174.388V91.6909H174.57V92.0548H174.752V92.4186H174.934V92.9644H175.116V93.3282H175.298V93.8739H175.48V94.6016H175.662V95.5112H175.844V96.7846H176.025V97.8761H175.844V100.423H175.662V101.151H175.48V101.878H175.298V102.606H175.116V102.97H174.934V103.334H174.752V103.698H174.57V104.243H174.388V104.607H174.206V104.971H174.024V105.153H173.842V105.517H173.661V105.699H173.479V106.062H173.297V106.244H173.115V106.426H172.933V106.79H172.751V106.972H172.569V107.154H172.387V107.336H172.205V107.518H172.023V107.7H171.841V107.882H171.659V108.064H171.478V108.245H171.296V108.427H171.114V108.609H170.932V108.791H170.75V108.973H170.386V109.155H170.204V109.337H169.84V109.519H169.476V109.701H169.295V109.883H168.931V110.065H168.749V110.247H168.385V110.428H168.021V110.61H167.475V110.792H167.112V110.974H166.748V111.156H166.202V111.338H165.474V111.52H164.383V111.702" fill="url(#paint0_radial_81_511)"/>
<path d="M209.498 109.155V108.973H209.316V108.791H208.953V108.609H208.771V108.427H208.589V108.245H208.407V108.064H208.225V107.882H208.043V107.7H207.861V107.518H207.679V107.336H207.497V107.154H207.315V106.972H207.133V106.79H206.952V106.608H206.77V106.426H206.588V106.062H206.406V105.881H206.224V105.517H206.042V105.153H205.86V104.971H205.678V104.607H205.496V104.425H205.314V104.061H205.132V103.516H204.95V103.152H204.769V102.788H204.587V102.242H204.405V101.696H204.223V100.969H204.041V99.5134H203.859V96.2389H204.041V95.3293H204.223V94.4197H204.405V93.692H204.587V93.1462H204.769V92.7824H204.95V92.4186H205.132V92.0547H205.314V91.509H205.496V91.1451H205.678V90.7813H205.86V90.5994H206.042V90.4175H206.224V90.0536H206.406V89.8717H206.588V89.5079H206.77V89.326H206.952V89.1441H207.133V88.7802H207.315V88.5983H207.497V88.4164H207.679V88.2345H207.861V88.0525H208.043V87.8706H208.225V87.6887H208.589V87.5068H208.771V87.3249H208.953V87.143H209.135V86.961H209.316V86.7791H209.68V86.5972H209.862V86.4153H210.226V86.2334H210.408V86.0514H210.772V85.8695H211.136V85.6876H211.318V85.5057H211.681V85.3238H212.227V85.1419H212.591V84.9599H213.137V84.778H213.501V84.5961H214.228V84.4142H215.138V84.2323H216.593V84.0503H217.321V84.778H217.139V85.8695H216.957V87.143H216.775V88.2345H216.593V89.5079H216.411V90.2356H216.229V91.1451H216.047V91.8728H215.866V92.6005H215.684V93.5101H215.502V94.2378H215.32V94.9654H215.138V95.5112H214.956V96.2389H214.774V96.7846H214.592V97.3304H214.41V98.058H214.228V98.6038H214.046V99.1495H213.864V99.6953H213.682V100.241H213.501V100.605H213.319V101.151H213.137V101.696H212.955V102.06H212.773V102.606H212.591V102.97H212.409V103.516H212.227V103.879H212.045V104.425H211.863V104.789H211.681V105.153H211.499V105.517H211.318V105.881H211.136V106.244H210.954V106.608H210.772V106.972H210.59V107.518H210.408V107.882H210.226V108.245H210.044V108.427H209.862V108.791H209.68V109.155" fill="url(#paint1_radial_81_511)"/>
<path d="M180.599 101.918C180.613 101.944 181.421 103.286 182.967 104.653C184.512 106.015 186.819 107.41 189.8 107.454H189.962C192.866 107.456 194.994 106.332 196.375 105.211C197.759 104.089 198.414 102.975 198.432 102.944C198.56 102.728 198.487 102.448 198.27 102.322C198.054 102.195 197.776 102.268 197.648 102.484L197.626 102.521C197.497 102.724 196.821 103.741 195.558 104.694C194.294 105.649 192.46 106.545 189.962 106.545H189.813C187.119 106.506 185.016 105.246 183.57 103.97C182.849 103.334 182.296 102.699 181.927 102.224C181.741 101.987 181.603 101.791 181.51 101.655L181.378 101.451C181.248 101.234 180.97 101.165 180.754 101.294C180.539 101.424 180.47 101.704 180.599 101.918Z" fill="#040606"/>
<path d="M184.115 77.9599C184.819 80.5667 183.279 83.25 180.672 83.954C178.067 84.6599 175.381 83.1191 174.677 80.5122C173.972 77.9053 175.512 75.222 178.119 74.5162C180.726 73.8121 183.411 75.353 184.115 77.9599Z" fill="#040606"/>
<path d="M211.487 78.0599C212.193 80.6649 210.652 83.35 208.045 84.0559C205.438 84.7599 202.753 83.2191 202.049 80.6122C201.343 78.0053 202.886 75.3201 205.491 74.6161C208.098 73.9103 210.783 75.453 211.487 78.0599Z" fill="#040606"/>
<path d="M187.175 68.1946C185.534 66.5573 183.755 65.1765 181.847 64.1541C179.928 63.1663 177.872 62.5569 175.787 62.6133C173.701 62.6042 171.621 63.2027 169.622 64.096C167.614 64.9855 165.705 66.1989 163.744 67.4505C165.105 65.564 166.811 63.905 168.849 62.6497C169.846 61.9839 170.975 61.5218 172.122 61.1016C173.297 60.7487 174.528 60.5431 175.774 60.514C178.278 60.4867 180.748 61.3508 182.707 62.7661C184.667 64.1815 186.242 66.0534 187.175 68.1946Z" fill="#2C2422"/>
<path d="M201.096 66.8809C201.809 65.2854 202.926 63.8919 204.257 62.7186C205.591 61.5525 207.206 60.601 209.022 60.1571C209.906 59.9243 210.917 59.8151 211.903 59.9716C212.884 60.1371 213.839 60.5301 214.599 61.1304C216.138 62.3202 216.992 64.0629 217.179 65.7984C216.151 64.4013 214.987 63.217 213.682 62.5476C212.371 61.8672 210.99 61.8217 209.509 62.191C208.027 62.5239 206.591 63.1916 205.194 64.0047C203.803 64.8325 202.46 65.8094 201.096 66.8809Z" fill="#2C2422"/>
<path d="M173.486 76.0643L173.562 76.0152C173.946 75.7733 175.734 74.749 178.023 74.7527C179.808 74.7581 181.898 75.3475 183.997 77.4378C184.175 77.6161 184.463 77.6142 184.639 77.4378C184.818 77.2595 184.818 76.9721 184.639 76.7938C182.389 74.5399 180.015 73.8394 178.023 73.8431C175.098 73.8485 173.011 75.2912 172.971 75.3148C172.764 75.4585 172.711 75.7405 172.853 75.9479C172.997 76.1553 173.279 76.208 173.486 76.0643Z" fill="#040606"/>
<path d="M201.49 76.0041L201.561 75.9476C201.918 75.6693 203.584 74.5032 205.718 74.5087C207.192 74.5142 208.909 75.0363 210.708 76.8373C210.885 77.0155 211.174 77.0155 211.352 76.8391C211.529 76.6608 211.53 76.3734 211.352 76.1951C209.415 74.2431 207.419 73.5955 205.718 73.5991C202.9 73.6082 200.943 75.2818 200.903 75.3091C200.712 75.471 200.688 75.7585 200.85 75.9495C201.012 76.1423 201.299 76.166 201.49 76.0041Z" fill="#040606"/>
<path d="M197.51 78.3034C196.553 81.0449 197.283 84.3013 199.318 86.3715C200.506 87.5794 202.116 88.4435 202.868 89.9625C203.552 91.3433 203.36 93.0479 202.627 94.4013C201.892 95.7548 200.675 96.7917 199.353 97.5813C199.353 97.5813 195.203 98.3144 192.5 94.1157C189.799 89.9153 190.877 83.3735 192.549 79.2476C194.221 75.1235 197.51 78.3034 197.51 78.3034Z" fill="url(#paint2_linear_81_511)"/>
<path d="M197.079 78.1545C196.782 79.0095 196.639 79.9082 196.639 80.805C196.64 82.968 197.465 85.1329 198.994 86.6901C200.261 87.9581 201.811 88.8149 202.46 90.1648C202.717 90.6814 202.837 91.2563 202.837 91.8475C202.837 92.6461 202.615 93.4702 202.227 94.1851C201.549 95.4385 200.399 96.4282 199.12 97.1904C198.903 97.3196 198.834 97.5979 198.964 97.8144C199.091 98.029 199.371 98.1 199.586 97.9708C200.952 97.1558 202.236 96.0734 203.028 94.6181C203.482 93.7758 203.746 92.8135 203.746 91.8475C203.746 91.1344 203.601 90.4176 203.275 89.7609C202.424 88.0745 200.752 87.2031 199.642 86.0534C198.296 84.6835 197.546 82.737 197.548 80.805C197.548 80.0046 197.676 79.206 197.939 78.4547C198.021 78.2164 197.896 77.958 197.659 77.8744C197.421 77.7925 197.163 77.918 197.079 78.1545Z" fill="#040606"/>
<path d="M205.072 27.0209C196.411 18.7637 184.659 14.1794 172.76 12.8932C159.5 11.4597 145.205 14.2903 135.372 23.3007C124.386 33.3699 120.755 49.3077 120.93 64.2104C121.002 70.4156 121.687 76.8046 124.623 82.2712C127.559 87.7397 133.166 92.1239 139.373 92.0802L140.79 88.1308C142.465 80.1464 146.178 72.3858 152.349 67.0465C157.252 62.806 163.399 60.3119 169.511 58.1525C175.623 55.9932 181.891 54.0649 187.439 50.7121C192.987 47.3594 197.854 42.3257 199.431 36.0386C206.691 42.755 212.866 50.6448 217.643 59.3077C218.98 47.4139 213.735 35.28 205.072 27.0209Z" fill="#2C2422"/>
<path d="M138.068 79.5225C142.875 87.2522 144.012 94.9054 138.527 98.3164C133.044 101.726 123.015 99.6007 118.209 91.8692C113.402 84.1395 113.95 75.1091 119.435 71.6982C124.919 68.289 133.262 71.791 138.068 79.5225Z" fill="#BF673E"/>
<path d="M115.881 76.5244L115.972 76.5226C117.031 76.5335 126.993 76.9101 137.461 92.5077C137.599 92.7151 137.883 92.7715 138.09 92.6314C138.299 92.4913 138.356 92.2093 138.216 92.0001C127.617 76.1696 117.272 75.6021 115.972 75.613L115.836 75.6166C115.585 75.6293 115.391 75.8422 115.404 76.0932C115.417 76.3443 115.63 76.5371 115.881 76.5244Z" fill="#040606"/>
<path d="M205.32 27.2593C205.32 27.2575 205.32 27.2593 205.32 27.2575V27.2593ZM205.265 27.2047C205.26 27.1992 205.252 27.1938 205.247 27.1865C205.252 27.1938 205.258 27.1992 205.265 27.2047ZM205.209 27.1519C205.201 27.1428 205.194 27.1374 205.185 27.1283C205.192 27.1356 205.201 27.1447 205.209 27.1519ZM205.152 27.0973C205.143 27.0882 205.136 27.081 205.129 27.0737C205.136 27.081 205.143 27.0882 205.152 27.0973ZM205.072 27.021C205.041 26.9918 205.01 26.9609 204.978 26.9318C205.01 26.9609 205.041 26.9918 205.072 27.021ZM204.923 26.8791C204.912 26.8681 204.901 26.8572 204.89 26.8481C204.901 26.8572 204.912 26.8681 204.923 26.8791Z" fill="#066F6A"/>
<path d="M121.595 54.9944C121.511 54.9944 121.426 54.9944 121.341 54.9926C121.815 50.35 122.72 45.7457 124.162 41.3778C125.11 41.416 126.06 41.436 127.009 41.436C137.306 41.436 147.606 39.1148 156.833 34.5395C166.768 29.6132 175.589 22.1746 186.309 19.3421C188.229 18.8346 190.17 18.4944 192.125 18.287C196.786 20.4918 201.134 23.3079 204.89 26.848C204.901 26.8571 204.912 26.868 204.923 26.879C204.941 26.8953 204.96 26.9135 204.978 26.9317C205.01 26.9608 205.041 26.9917 205.072 27.0209C205.091 27.039 205.111 27.0554 205.129 27.0736C205.136 27.0809 205.143 27.0882 205.152 27.0972C205.163 27.1082 205.174 27.1173 205.185 27.1282C205.194 27.1373 205.201 27.1427 205.209 27.1518C205.221 27.1627 205.234 27.1755 205.247 27.1864C205.252 27.1937 205.26 27.1991 205.265 27.2046C205.283 27.2228 205.302 27.241 205.32 27.2574C205.32 27.2592 205.32 27.2574 205.32 27.2592C207.865 29.726 210.102 32.5311 211.962 35.5637C206.155 34.0356 200.181 33.1387 194.217 33.1387C191.232 33.1387 188.25 33.3625 185.294 33.8446C173.488 35.7711 162.751 41.5979 151.9 46.6262C142.32 51.0668 132.054 54.9944 121.595 54.9944Z" fill="#574B47"/>
<path d="M205.045 278.921L140.288 239.436C140.288 239.436 149.347 187.434 150.524 170.405C151.643 154.227 139.522 145.18 125.21 151.609C110.899 158.04 104.43 245.814 111.039 258.235C117.648 270.658 196.14 296.765 196.14 296.765" fill="#BF673E"/>
<path d="M140.097 239.026C137.741 239.25 135.432 239.936 133.338 241.037C133.153 241.135 133.08 241.364 133.178 241.55C133.277 241.735 133.506 241.806 133.691 241.71C135.698 240.655 137.912 239.996 140.168 239.783C140.377 239.763 140.53 239.578 140.51 239.368C140.49 239.161 140.306 239.006 140.097 239.026Z" fill="#231F20"/>
<path d="M222.118 279.105C231.321 280.48 240.508 284.566 248.389 289.419C251.147 291.117 254.025 293.333 254.549 296.527C254.616 296.942 254.641 297.366 254.801 297.753C254.983 298.201 255.329 298.557 255.655 298.914C257.67 301.113 257.747 303.027 258.151 305.71C258.452 307.706 258.291 310.402 255.567 310.649C256.204 312.507 254.114 314.366 252.151 314.33C250.188 314.293 248.478 313.063 246.863 311.948C244.599 310.384 242.247 308.95 239.82 307.657C238.491 306.947 237.123 306.271 235.658 305.916C232.669 305.194 229.54 305.843 226.466 305.885C217.858 306.01 209.278 303.516 201.727 299.449C198.178 297.539 192.393 295.805 190.885 291.688C190.09 289.514 189.235 284.329 190.572 282.212C191.481 278.652 193.622 278.603 196.913 278.834C205.263 279.418 213.846 277.868 222.118 279.105Z" fill="#BF673E"/>
<path d="M254.13 298.037C249.171 294.373 243.908 291.12 238.411 288.328C238.187 288.213 237.914 288.302 237.799 288.528C237.687 288.752 237.776 289.025 237.999 289.139C243.45 291.91 248.671 295.135 253.59 298.768C253.792 298.917 254.076 298.875 254.225 298.674C254.374 298.472 254.332 298.186 254.13 298.037Z" fill="#4F4C4D"/>
<path d="M256.379 305.172C250.981 300.887 245.225 297.056 239.189 293.733C238.969 293.611 238.693 293.691 238.571 293.911C238.449 294.131 238.529 294.408 238.749 294.529C244.741 297.828 250.455 301.631 255.813 305.885C256.009 306.041 256.295 306.008 256.451 305.812C256.608 305.616 256.575 305.328 256.379 305.172Z" fill="#4F4C4D"/>
<path d="M254.738 310.071C249.626 305.717 243.91 302.075 237.805 299.279C237.576 299.174 237.306 299.276 237.203 299.503C237.097 299.732 237.197 300.001 237.426 300.105C243.455 302.867 249.1 306.465 254.148 310.764C254.339 310.928 254.627 310.904 254.79 310.713C254.952 310.522 254.931 310.234 254.738 310.071Z" fill="#4F4C4D"/>
<path d="M309.553 302.099C309.073 300.831 308.218 299.745 307.378 298.681C307.938 297.591 307.749 296.236 307.185 295.148C306.623 294.06 305.733 293.181 304.858 292.323C302.075 289.592 299.291 286.86 296.506 284.131C294.154 281.822 291.569 280.067 288.782 278.37C285.667 276.467 282.207 275.215 278.775 273.976C272.475 271.704 264.769 270.518 259.009 266.996L254.901 272.667C254.025 276.845 252.606 280.793 250.625 284.409C252.28 286.667 253.826 289.026 255.513 291.366C259.871 297.409 264.763 303.987 270.888 308.362C274.459 310.911 278.778 312.143 283.002 313.331C284.19 313.664 285.842 313.784 286.282 312.632C286.539 311.961 286.186 311.219 285.793 310.616C283.266 306.72 278.92 304.309 276.29 300.482C275.642 299.536 275.14 298.159 275.938 297.336C276.633 296.621 277.705 296.985 278.489 297.231C279.79 297.64 281.161 297.826 282.502 298.128C285.369 298.768 288.229 299.696 290.637 301.426C291.884 302.323 292.979 303.409 294.065 304.493C295.456 305.881 296.844 307.271 298.231 308.664C298.942 309.381 299.662 310.105 300.528 310.629C301.392 311.151 302.428 311.461 303.421 311.268C304.148 311.126 304.885 310.613 304.958 309.874C305.849 309.925 306.775 309.934 307.594 309.581C308.414 309.227 309.1 308.419 309.042 307.529C309.026 307.282 308.953 307.034 308.993 306.793C309.038 306.505 309.226 306.269 309.379 306.025C310.092 304.871 310.034 303.369 309.553 302.099Z" fill="#BF673E"/>
<path d="M305.047 309.238C301.747 304.151 297.752 299.521 293.206 295.512C293.019 295.346 292.731 295.365 292.564 295.552C292.398 295.741 292.417 296.029 292.606 296.194C297.088 300.149 301.03 304.717 304.285 309.732C304.421 309.944 304.703 310.004 304.913 309.867C305.124 309.731 305.184 309.449 305.047 309.238Z" fill="#4F4C4D"/>
<path d="M308.96 305.978C304.951 300.604 300.272 295.73 295.067 291.504C294.873 291.344 294.585 291.375 294.427 291.57C294.269 291.764 294.298 292.052 294.494 292.21C299.639 296.389 304.267 301.208 308.233 306.522C308.382 306.723 308.667 306.765 308.867 306.614C309.069 306.463 309.111 306.18 308.96 305.978Z" fill="#4F4C4D"/>
<path d="M306.954 298.075C303.603 294.109 299.917 290.423 295.949 287.074C295.757 286.912 295.471 286.936 295.309 287.129C295.147 287.32 295.171 287.607 295.362 287.769C299.291 291.086 302.941 294.735 306.259 298.662C306.421 298.853 306.708 298.879 306.901 298.717C307.092 298.555 307.116 298.268 306.954 298.075Z" fill="#4F4C4D"/>
<path d="M260.705 168.7H260.25C260.25 171.36 259.173 173.763 257.43 175.506C255.687 177.249 253.284 178.326 250.625 178.326C247.967 178.326 245.564 177.249 243.821 175.506C242.078 173.763 241.001 171.36 241.001 168.7C241.001 166.043 242.078 163.64 243.821 161.897C245.564 160.154 247.967 159.077 250.625 159.077C253.284 159.077 255.687 160.154 257.43 161.897C259.173 163.64 260.25 166.043 260.25 168.7H260.705H261.159C261.159 162.885 256.442 158.167 250.625 158.167C244.809 158.167 240.092 162.885 240.092 168.7C240.092 174.52 244.809 179.235 250.625 179.235C256.442 179.235 261.159 174.52 261.159 168.7H260.705Z" fill="#4F4C4D"/>
<path d="M81.5205 84.1268H81.0657C81.0657 86.7847 79.9892 89.1878 78.2467 90.9306C76.5036 92.6734 74.1003 93.7503 71.4412 93.7503C68.7826 93.7503 66.3793 92.6734 64.6362 90.9306C62.8938 89.1878 61.8179 86.7847 61.8179 84.1268C61.8179 81.4672 62.8938 79.0641 64.6362 77.3213C66.3793 75.5785 68.7826 74.5016 71.4412 74.5016C74.1003 74.5016 76.5036 75.5785 78.2467 77.3213C79.9892 79.0641 81.0657 81.4672 81.0657 84.1268H81.5205H81.9753C81.9753 78.3073 77.2597 73.592 71.4412 73.592C65.624 73.592 60.9083 78.3073 60.9083 84.1268C60.9083 89.9428 65.624 94.6581 71.4412 94.6599C77.2597 94.6581 81.9753 89.9428 81.9753 84.1268H81.5205Z" fill="#4F4C4D"/>
<path d="M291.725 123.148C291.725 124.947 290.266 126.405 288.469 126.405C286.672 126.405 285.213 124.947 285.213 123.148C285.213 121.351 286.672 119.894 288.469 119.894C290.266 119.894 291.725 121.351 291.725 123.148Z" fill="#4F4C4D"/>
<path d="M71.4412 142.153C71.4412 143.95 69.9844 145.409 68.1865 145.409C66.3886 145.409 64.9311 143.95 64.9311 142.153C64.9311 140.356 66.3886 138.899 68.1865 138.899C69.9844 138.899 71.4412 140.356 71.4412 142.153Z" fill="#4F4C4D"/>
<defs>
<radialGradient id="paint0_radial_81_511" cx="0" cy="0" r="1" gradientUnits="userSpaceOnUse" gradientTransform="translate(162.136 97.9616) rotate(-15.1355) scale(13.7544)">
<stop stop-color="#B54E41"/>
<stop offset="1" stop-color="#BF663E"/>
</radialGradient>
<radialGradient id="paint1_radial_81_511" cx="0" cy="0" r="1" gradientUnits="userSpaceOnUse" gradientTransform="translate(217.683 97.938) rotate(-15.1355) scale(13.7544)">
<stop stop-color="#B54E41"/>
<stop offset="1" stop-color="#BF663E"/>
</radialGradient>
<linearGradient id="paint2_linear_81_511" x1="200.635" y1="96.0986" x2="194.297" y2="84.9806" gradientUnits="userSpaceOnUse">
<stop stop-color="#A9482C"/>
<stop offset="1" stop-color="#BF663E"/>
</linearGradient>
</defs>
</svg>
