<svg width="64" height="64" viewBox="0 0 44 44" fill="none" xmlns="http://www.w3.org/2000/svg">
<circle cx="22" cy="22" r="22" fill="#FF8039" fill-opacity="0.54"/>
<path fill-rule="evenodd" clip-rule="evenodd" d="M11.2684 18.5052C10.5905 17.8848 10.1278 16.8782 10.0371 15.2524C10.0336 15.1734 10.0464 15.0946 10.0747 15.0207C10.1029 14.9469 10.1461 14.8797 10.2015 14.8232C10.2568 14.7668 10.3232 14.7224 10.3965 14.6927C10.4698 14.663 10.5484 14.6487 10.6274 14.6507C11.6394 14.6688 12.4145 14.7377 13.0066 14.9123C13.2604 14.2543 13.766 13.6339 14.5243 13.0665C14.6196 12.9954 14.7353 12.957 14.8541 12.957C14.973 12.957 15.0887 12.9954 15.184 13.0665C15.9489 13.6381 16.4564 14.2646 16.7083 14.9286C17.3179 14.7232 18.0991 14.664 19.0827 14.6495C19.1617 14.6477 19.2402 14.6622 19.3134 14.6921C19.3865 14.722 19.4527 14.7666 19.5079 14.8231C19.5631 14.8797 19.6061 14.947 19.6341 15.0208C19.6622 15.0947 19.6748 15.1735 19.6712 15.2524C19.5805 16.8782 19.1178 17.8848 18.4399 18.5046C18.771 18.7517 18.9631 19.165 18.893 19.6127C18.641 21.1889 18.337 22.7564 17.9813 24.3125H14.25V25.5208H17.6968C17.1905 27.6017 16.5942 29.6596 15.9096 31.6888C15.8401 31.9144 15.7001 32.1119 15.5101 32.2521C15.3202 32.3924 15.0903 32.4681 14.8541 32.4681C14.618 32.4681 14.3881 32.3924 14.1981 32.2521C14.0082 32.1119 13.8682 31.9144 13.7987 31.6888C13.5135 30.8463 13.2444 29.9985 12.9915 29.1458H14.25V27.9375H12.6435C12.072 25.8888 11.6466 24.0285 11.3379 22.5H13.6458V21.2917H11.1041C10.9833 20.6361 10.8884 20.0712 10.8159 19.6121C10.7825 19.4038 10.807 19.1904 10.8869 18.9952C10.9667 18.7999 11.0987 18.6304 11.2684 18.5052ZM15.5785 15.3569L15.9906 16.4444L17.0932 16.0735C17.3971 15.9714 17.8085 15.9104 18.3946 15.8801C18.2151 17.0474 17.7831 17.5404 17.3886 17.7954C16.8261 18.1591 16.0063 18.2696 14.8723 18.2708H14.836C13.702 18.2696 12.8821 18.1591 12.3197 17.7947C11.9258 17.5404 11.4944 17.048 11.3143 15.8832C11.9191 15.9164 12.3493 15.978 12.6646 16.0711L13.7328 16.3864L14.134 15.3473C14.2488 15.0482 14.4717 14.7129 14.8541 14.3601C15.2408 14.7165 15.4644 15.0555 15.5785 15.3569ZM27.3646 16.2813C26.1726 17.4733 26.0566 19.1372 26.7266 20.7038C29.6593 18.7844 32.9791 21.1587 32.9791 24.9167C32.9791 28.2535 30.0036 30.9583 26.3333 30.9583C22.663 30.9583 19.6875 28.2535 19.6875 24.9167C19.6875 21.4173 22.5663 19.1167 25.3304 20.3673C24.8585 18.6756 25.1026 16.8341 26.5103 15.427L27.3646 16.2813ZM31.1485 26.2712C31.1693 26.1937 31.1745 26.1129 31.1637 26.0334C31.1529 25.9539 31.1264 25.8774 31.0857 25.8083C31.045 25.7391 30.991 25.6788 30.9267 25.6308C30.8625 25.5827 30.7893 25.548 30.7115 25.5285C30.6337 25.5091 30.5528 25.5053 30.4735 25.5174C30.3942 25.5296 30.3181 25.5574 30.2497 25.5993C30.1813 25.6411 30.1219 25.6962 30.075 25.7612C30.0281 25.8263 29.9946 25.9 29.9764 25.9782C29.8614 26.4582 29.6158 26.897 29.2668 27.246C28.9178 27.595 28.479 27.8406 27.999 27.9556C27.8446 27.9955 27.7122 28.0948 27.6307 28.2319C27.5492 28.369 27.5252 28.5327 27.5639 28.6874C27.6027 28.8421 27.7011 28.9752 27.8376 29.0577C27.9741 29.1402 28.1376 29.1654 28.2926 29.1277C28.9849 28.9595 29.6175 28.6041 30.1212 28.1004C30.6249 27.5966 30.9803 26.9634 31.1485 26.2712Z" fill="#066F6A"/>
<path d="M27.5416 18.875C29.3541 18.875 30.5625 17.6667 30.5625 15.8542C28.75 15.8542 27.5416 17.0625 27.5416 18.875Z" fill="#066F6A"/>
</svg>
