<svg width="379" height="606" viewBox="0 0 379 606" fill="none" xmlns="http://www.w3.org/2000/svg">
<path d="M271.082 378.212C261.6 383.32 251.304 386.811 241.909 392.078C225.15 401.475 211.808 416.2 194.854 425.241C177.358 434.572 156.953 437.273 137.143 436.384C116.164 435.445 95.0123 430.482 77.2272 419.316C59.4421 408.147 45.3164 390.316 41.2899 369.707C37.4318 349.962 42.8519 329.509 40.8342 309.493C38.735 288.676 28.7618 269.563 23.2938 249.367C18.0652 230.055 16.9996 209.626 20.1946 189.873C23.1768 171.421 30.0153 153.32 41.8271 138.833C53.639 124.346 70.7096 113.736 89.2926 111.702C115.008 108.885 139.715 122.154 165.488 124.403C172.929 125.051 180.399 124.775 187.872 124.498C193.035 124.307 198.2 124.115 203.36 124.229C225.623 124.72 247.737 131.019 266.917 142.337C283.131 151.902 297.698 165.717 303.815 183.522C308.063 195.883 307.982 209.24 308.358 222.307C309.086 247.487 310.581 274.015 316.639 298.548C321.588 318.589 313.836 336.165 301.312 352.377C293.152 362.941 282.844 371.873 271.082 378.212Z" fill="#CACED2"/>
<path d="M238.641 286.579C253.405 261.648 270.158 237.665 290.922 217.454C311.687 197.245 336.687 180.87 364.561 172.957C352.118 186.659 345.018 204.38 340.017 222.2C335.015 240.021 331.848 258.356 325.937 275.896C315.209 307.736 295.693 336.046 272.897 360.732C261.242 373.355 248.692 385.125 235.763 396.433C226.987 404.11 214.255 419.773 201.018 418.3C180.211 415.981 207.783 349.147 212.61 337.647C220.012 320.011 228.9 303.025 238.641 286.579Z" fill="#71C1B8"/>
<path d="M364.263 172.629C364.24 172.657 248.334 277.639 200.599 418.158C200.519 418.388 200.643 418.64 200.876 418.72C201.108 418.798 201.36 418.674 201.438 418.442C225.253 348.324 266.11 287.024 301.016 243.262C318.468 221.381 334.432 203.885 346.031 191.859C351.83 185.846 356.538 181.201 359.797 178.061C361.424 176.49 362.692 175.295 363.55 174.494C364.408 173.692 364.857 173.286 364.857 173.286C365.039 173.122 365.054 172.841 364.889 172.661C364.724 172.478 364.444 172.464 364.263 172.629Z" fill="#040606"/>
<path d="M104.704 302.619C94.4946 275.501 82.1633 248.971 65.2274 225.461C48.2898 201.951 26.5171 181.481 0.443115 168.845C10.3153 184.501 14.2266 203.185 16.0563 221.603C17.8861 240.023 17.8169 258.629 20.5899 276.93C25.6235 310.149 39.9247 341.42 58.0804 369.691C67.3674 384.148 77.6811 397.919 88.4468 411.303C95.757 420.388 105.572 438.024 118.865 438.872C139.758 440.205 124.217 369.597 121.462 357.432C117.239 338.78 111.438 320.509 104.704 302.619Z" fill="#71C1B8"/>
<path d="M0.0920555 169.116C0.0938285 169.118 0.464403 169.597 1.17006 170.535C11.7674 184.609 97.2995 301.706 118.427 438.939C118.464 439.182 118.691 439.349 118.932 439.312C119.175 439.274 119.342 439.048 119.304 438.805C96.7091 292.132 0.810119 168.604 0.792389 168.574C0.643455 168.381 0.365092 168.345 0.171833 168.496C-0.0214262 168.645 -0.0568779 168.923 0.0920555 169.116Z" fill="#040606"/>
<path d="M224.721 393.793C245.313 369.976 266.921 346.714 292.395 328.213C317.872 309.713 347.612 296.079 379 293.609C349.306 300.582 322.65 317.321 299.713 337.431C283.17 351.932 268.335 368.235 253.873 384.774C246.696 392.981 239.802 401.513 232.297 409.422C227.776 414.19 220.182 421.846 213.118 416.073C206.186 410.408 220.895 398.215 224.721 393.793Z" fill="#10B3AB"/>
<path d="M112.496 432.413C102.156 402.676 90.6666 373.077 73.8265 346.475C56.9864 319.872 34.3822 296.22 6.12561 282.332C31.1464 299.779 49.7347 325.179 63.621 352.338C73.6386 371.926 81.4044 392.552 88.7358 413.264C92.3758 423.543 95.6293 434.018 99.6824 444.14C102.124 450.241 106.353 460.157 115.049 457.404C123.583 454.7 114.416 437.936 112.496 432.413Z" fill="#10B3AB"/>
<path d="M203.021 0.0344086C190.699 -0.236862 178.146 1.04684 166.768 5.78789C155.393 10.5289 145.246 19.0253 140.315 30.3229C138.173 35.2271 137.052 40.516 136.239 45.8067C133.104 66.168 134.331 86.9052 134.138 107.504C133.944 128.105 132.196 149.202 123.615 167.927C140.59 180.017 162.541 182.033 183.349 183.146C206.581 184.391 230.485 184.918 252.407 177.125C252.41 172.448 252.414 167.771 252.417 163.094C253.884 168.079 257.332 172.452 261.837 175.037C257.169 160.15 257.635 144.206 258.148 128.612C258.644 113.453 259.144 98.2951 259.641 83.1375C260.034 71.1732 260.415 59.0866 258.107 47.3403C254.396 28.4683 241.153 8.08925 221.858 2.5787C215.75 0.834061 209.356 0.172714 203.021 0.0344086Z" fill="#58311F"/>
<path d="M141.267 569.299C144.212 571.676 145.923 575.785 144.772 579.389C151.359 579.359 157.923 577.95 163.97 575.339C163.887 574.829 163.805 574.313 163.717 573.769C163.635 573.256 163.552 572.731 163.467 572.196C162.226 564.349 160.756 554.258 161.066 549.852C161.502 543.666 161.965 538.044 162.421 532.815L136.1 534.214C136.349 537.853 136.503 540.704 136.529 542.427C136.604 547.415 136.579 552.503 135.013 557.239C133.875 560.68 131.879 563.115 129.513 565.317C129.146 565.659 128.76 565.992 128.379 566.327C129.115 566.214 129.863 566.143 130.604 566.13C134.388 566.068 138.324 566.921 141.267 569.299Z" fill="#F89E6B"/>
<path d="M163.97 575.339C157.923 577.95 151.359 579.359 144.772 579.389C145.923 575.785 144.212 571.676 141.267 569.299C138.324 566.921 134.388 566.068 130.604 566.13C129.863 566.143 129.115 566.214 128.379 566.327C127.639 566.973 126.884 567.616 126.1 568.258C125.65 568.627 125.196 568.999 124.741 569.378C122.007 571.648 116.496 574.632 111.232 577.526C105.787 580.515 100.61 583.41 99.0496 585.313C96.562 588.346 95.6471 592.937 99.6825 594.869C106.085 597.935 115.429 597.413 122.205 596.153C130.18 594.671 137.82 591.759 145.825 590.407C150.673 589.589 165.091 589.979 165.048 582.58C165.047 582.297 164.946 581.534 164.781 580.446C164.587 579.158 164.3 577.387 163.97 575.339Z" fill="#CACED2"/>
<path d="M96.7269 588.969C96.9981 590.431 97.9378 591.756 99.6435 592.566C103.23 594.281 107.656 594.885 112.046 594.887C115.702 594.887 119.336 594.463 122.439 593.887C130.467 592.391 138.106 589.481 146.054 588.14C148.231 587.77 152.541 587.648 156.54 586.892C158.541 586.511 160.474 585.974 162.055 585.142C163.632 584.312 164.88 583.163 165.394 581.568C165.469 581.336 165.341 581.086 165.107 581.011C164.875 580.935 164.625 581.064 164.55 581.297C164.132 582.598 163.102 583.586 161.642 584.357C159.458 585.511 156.368 586.112 153.412 586.474C150.451 586.841 147.636 586.975 145.907 587.266C137.843 588.632 130.201 591.543 122.278 593.015C119.221 593.584 115.634 594 112.046 594C107.737 594.002 103.427 593.396 100.026 591.767C98.5407 591.046 97.835 590.01 97.5974 588.802C97.5513 588.561 97.3191 588.403 97.0779 588.449C96.8386 588.495 96.6808 588.728 96.7269 588.969Z" fill="#040606"/>
<path d="M156.752 564.646C156.199 567.309 154.391 569.707 151.981 570.97C151.763 571.084 151.68 571.352 151.795 571.568C151.908 571.786 152.176 571.869 152.392 571.754C155.045 570.359 157.008 567.76 157.621 564.827C157.671 564.588 157.517 564.352 157.277 564.302C157.038 564.253 156.804 564.407 156.752 564.646Z" fill="#040606"/>
<path d="M198.502 575.625C195.44 577.846 193.518 581.861 194.48 585.52C187.904 585.148 181.422 583.4 175.518 580.481C175.626 579.974 175.736 579.464 175.851 578.926C175.961 578.419 176.071 577.898 176.185 577.366C177.83 569.595 179.821 559.593 179.738 555.178C179.624 548.978 179.454 543.34 179.27 538.094L205.482 540.856C205.046 544.477 204.743 547.317 204.627 549.035C204.294 554.012 204.055 559.095 205.374 563.907C206.331 567.402 208.2 569.935 210.446 572.258C210.796 572.619 211.164 572.971 211.528 573.325C210.799 573.173 210.056 573.063 209.315 573.013C205.54 572.755 201.567 573.403 198.502 575.625Z" fill="#F89E6B"/>
<path d="M175.518 580.481C181.422 583.4 187.904 585.148 194.48 585.52C193.518 581.861 195.44 577.847 198.502 575.625C201.567 573.404 205.54 572.755 209.315 573.013C210.056 573.063 210.799 573.173 211.528 573.325C212.234 574.01 212.955 574.689 213.705 575.373C214.134 575.763 214.567 576.159 215.003 576.561C217.615 578.969 222.964 582.235 228.072 585.396C233.354 588.667 238.375 591.825 239.834 593.807C242.16 596.965 242.836 601.596 238.706 603.318C232.153 606.048 222.849 605.043 216.148 603.433C208.258 601.538 200.782 598.234 192.856 596.469C188.058 595.401 173.639 595.043 174.064 587.656C174.082 587.373 174.222 586.617 174.442 585.538C174.704 584.261 175.082 582.51 175.518 580.481Z" fill="#CACED2"/>
<path d="M241.104 597.366C240.802 598.561 240.045 599.559 238.522 600.2C235.65 601.399 232.193 601.869 228.652 601.869C224.333 601.869 219.893 601.172 216.237 600.293C208.4 598.411 200.92 595.109 192.938 593.329C190.661 592.823 186.42 592.486 182.55 591.541C180.619 591.072 178.789 590.449 177.376 589.607C175.958 588.761 174.979 587.721 174.63 586.401C174.568 586.164 174.325 586.024 174.087 586.085C173.851 586.15 173.71 586.392 173.773 586.629C174.202 588.247 175.39 589.458 176.922 590.369C179.225 591.736 182.355 592.493 185.33 593.02C188.301 593.545 191.133 593.834 192.746 594.194C200.615 595.946 208.09 599.245 216.03 601.156C219.741 602.046 224.239 602.755 228.652 602.755C232.271 602.754 235.832 602.28 238.864 601.02C240.611 600.298 241.616 599.025 241.965 597.577C242.024 597.339 241.879 597.1 241.641 597.041C241.403 596.983 241.162 597.128 241.104 597.366Z" fill="#040606"/>
<path d="M182.403 570.309C182.864 573.272 184.688 575.971 187.266 577.501C187.477 577.627 187.748 577.556 187.874 577.346C187.998 577.135 187.929 576.862 187.718 576.738C185.376 575.354 183.692 572.864 183.28 570.175C183.241 569.934 183.016 569.767 182.773 569.804C182.532 569.841 182.365 570.068 182.403 570.309Z" fill="#040606"/>
<path d="M126.084 265.705C98.4892 320.117 114.076 411.015 114.113 436.906C114.15 462.797 128.418 562.462 128.418 562.462C128.418 562.462 134.065 566.049 145.16 567.797C156.252 569.547 164.899 563.884 164.899 563.884C164.899 563.884 163.749 456.764 164.148 433.874C164.546 410.986 172.273 338.803 172.273 338.803L171.043 270.999L126.084 265.705Z" fill="#D88A52"/>
<path d="M206.039 267.301C232.35 322.346 214.634 412.851 213.991 438.734C213.345 464.618 208.4 562.786 208.4 562.786C208.4 562.786 203.021 566.763 192.08 569.294C181.138 571.824 172.114 566.788 172.114 566.788C172.114 566.788 163.901 457.421 164.039 434.53C164.178 411.639 150.99 339.108 150.99 339.108L160.97 271.538L206.039 267.301Z" fill="#D88A52"/>
<path d="M164.883 448.998C164.63 443.161 164.481 438.377 164.481 435.127C164.481 434.924 164.483 434.725 164.483 434.533L164.484 434.17C164.479 410.786 151.426 339.048 151.426 339.028L151.15 338.695L123.134 327.759C122.907 327.67 122.65 327.782 122.56 328.011C122.471 328.239 122.585 328.496 122.812 328.585L150.829 339.521L150.99 339.108L150.554 339.188C150.554 339.19 150.758 340.308 151.114 342.315C153.611 356.356 163.603 413.894 163.598 434.17L163.596 434.528C163.596 434.721 163.594 434.922 163.594 435.127C163.594 438.402 163.743 443.193 163.999 449.037C164.009 449.281 164.215 449.471 164.46 449.461C164.704 449.45 164.894 449.242 164.883 448.998Z" fill="#040606"/>
<path d="M151.001 338.665L122.721 337.932C122.476 337.925 122.272 338.119 122.265 338.363C122.26 338.608 122.453 338.812 122.698 338.819L150.978 339.551C151.222 339.556 151.426 339.363 151.433 339.119C151.439 338.874 151.245 338.672 151.001 338.665Z" fill="#040606"/>
<path d="M213.349 325.839C202.365 317.768 195.429 303.298 195.433 288.639C195.433 288.066 195.443 287.494 195.464 286.921C195.475 286.676 195.284 286.471 195.039 286.462C194.794 286.453 194.589 286.644 194.58 286.889C194.557 287.472 194.546 288.056 194.546 288.639C194.55 303.573 201.581 318.28 212.824 326.553C213.021 326.699 213.299 326.656 213.443 326.459C213.588 326.262 213.546 325.984 213.349 325.839Z" fill="#040606"/>
<path d="M156.795 139.624C156.795 139.624 144.921 141.888 140.577 145.495C136.23 149.103 110.743 209.568 110.743 209.568C110.743 209.568 102.642 224.772 114.952 231.734C127.262 238.699 136.836 217.951 136.836 217.951L167.144 156.017L156.795 139.624Z" fill="#F89E6B"/>
<path d="M156.795 139.624C156.795 139.624 144.389 140.615 136.808 147.092C129.226 153.567 118.409 179.976 118.409 179.976C118.409 179.976 134.756 193.992 159.758 194.146C159.758 194.146 186.7 149.959 156.795 139.624Z" fill="#066F6A"/>
<path d="M168.398 134.277C172.554 131.862 176.41 128.525 178.55 123.208C182.756 112.756 179.25 104.175 179.25 104.175L206.723 90.806C206.723 90.806 200.14 121.077 203.411 130.686C204.055 132.575 205.395 134.139 207.133 135.475C201.308 138.81 184.117 148.949 173.086 158.526C173.086 158.526 167.804 146.995 168.398 134.277Z" fill="#F89E6B"/>
<path d="M208.191 179.568C206.798 165.212 216.725 147.659 220.565 141.48C225.109 142.961 228.974 144.189 229.811 145.867C231.898 150.062 234.171 166.272 220.627 193.461C219.569 195.587 218.523 197.584 217.492 199.49C214.244 196.937 209.322 191.222 208.191 179.568Z" fill="#F89E6B"/>
<path d="M165.252 203.13C165.279 203.182 171.264 214.561 186.551 216.146C186.794 216.172 187.012 215.995 187.037 215.752C187.062 215.508 186.887 215.289 186.642 215.265C179.216 214.497 174.071 211.353 170.768 208.401C169.117 206.924 167.931 205.495 167.158 204.44C166.772 203.912 166.49 203.478 166.305 203.176L166.1 202.83L166.038 202.717C165.922 202.501 165.655 202.417 165.438 202.531C165.222 202.644 165.139 202.912 165.252 203.13Z" fill="#040606"/>
<path d="M183.348 253.916C183.346 253.916 183.103 254.292 182.633 254.963C180.986 257.308 176.584 263.193 170.476 268.475C164.366 273.76 156.561 278.418 148.139 278.414C146.52 278.414 144.877 278.242 143.215 277.872C142.976 277.819 142.738 277.969 142.685 278.209C142.632 278.446 142.783 278.684 143.022 278.737C144.749 279.122 146.456 279.301 148.139 279.301C158.149 279.292 167.119 273.033 173.6 266.826C180.08 260.613 184.08 254.415 184.092 254.397C184.223 254.191 184.165 253.916 183.959 253.783C183.754 253.651 183.479 253.711 183.348 253.916Z" fill="#040606"/>
<path d="M129.95 186.951C130.06 185.915 130.207 184.978 130.396 184.171C131.591 179.072 137.129 167.827 143.058 157.966C143.183 157.756 143.116 157.483 142.905 157.358C142.696 157.232 142.423 157.299 142.297 157.51C136.34 167.437 130.797 178.637 129.535 183.967C129.333 184.823 129.18 185.795 129.068 186.859C129.044 187.102 129.219 187.32 129.464 187.346C129.707 187.371 129.925 187.196 129.951 186.951" fill="#040606"/>
<path d="M178.358 123.668C178.353 123.663 178.348 123.66 178.342 123.656L178.55 123.207C178.488 123.362 178.424 123.516 178.358 123.668Z" fill="#592616"/>
<path d="M182.493 124.83C182.348 124.83 182.202 124.827 182.057 124.819C180.561 124.75 179.346 124.332 178.358 123.669C178.424 123.516 178.488 123.362 178.55 123.208C179.126 121.777 179.557 120.382 179.873 119.038C186.807 118.124 193.883 115.586 200.424 111.736C195.957 117.685 189.197 124.83 182.493 124.83Z" fill="#F57847"/>
<path d="M225.537 246.601C222.255 230.455 217.492 199.49 217.492 199.49C217.492 199.49 209.322 191.222 208.191 179.568C206.798 165.212 216.725 147.659 220.565 141.48C216.978 140.31 212.971 138.982 209.686 137.147C208.766 136.635 207.913 136.076 207.133 135.475C201.307 138.81 184.117 148.948 173.085 158.526C173.085 158.526 167.804 146.994 168.398 134.276C167.802 134.62 167.201 134.947 166.598 135.259C163.132 137.044 159.603 138.31 156.795 139.624C150.088 142.762 132.294 174.191 129.966 184.07C128.272 191.259 130.019 207.578 131.097 215.931C105.785 220.746 86.9203 244.409 84.9647 273.281C82.6686 307.169 96.8084 374.21 96.8084 374.21C96.8084 374.21 109.521 386.977 148.373 391.713C187.222 396.449 233.59 385.701 233.59 385.701C233.59 385.701 238.455 310.138 225.537 246.601Z" fill="#066F6A"/>
<path d="M223.003 142.282C223.003 142.282 236.091 146.471 239.668 156.271C243.245 166.068 247.985 229.535 247.985 229.535C247.985 229.535 248.364 244.358 237.605 245.611C226.847 246.865 221.031 235.42 219.459 226.723C217.888 218.027 212.308 167.31 212.308 167.31L223.003 142.282Z" fill="#F89E6B"/>
<path d="M220.565 141.48C220.565 141.48 234.012 142.898 241.662 156.184C249.313 169.471 249.057 188.632 249.057 188.632C249.057 188.632 235.402 202.842 204.541 197.681C204.541 197.681 198.526 157.581 220.565 141.48Z" fill="#066F6A"/>
<path d="M215.89 198.348C212.425 198.265 208.67 197.925 204.613 197.245L204.541 197.682L204.978 197.616C204.978 197.616 204.932 197.313 204.863 196.737C204.654 195.008 204.234 190.866 204.234 185.508C204.234 180.214 204.643 173.732 206.067 167.216C206.12 166.976 205.968 166.741 205.728 166.687C205.489 166.636 205.253 166.787 205.202 167.026C203.76 173.629 203.347 180.17 203.347 185.508C203.347 192.715 204.099 197.733 204.101 197.747C204.129 197.937 204.278 198.088 204.466 198.12C208.565 198.806 212.361 199.151 215.868 199.235C216.113 199.24 216.317 199.047 216.322 198.802C216.328 198.557 216.134 198.354 215.89 198.348Z" fill="#040606"/>
<path d="M143.691 52.4485C136.028 80.4834 148.187 113.676 164.655 118.18C187.746 124.492 219.556 105.995 227.221 77.9604C234.886 49.9255 224.808 19.9792 201.718 13.6673C178.626 7.35532 151.355 24.4153 143.691 52.4485Z" fill="#F89E6B"/>
<path d="M194.512 106.768V106.591H193.271V106.413H192.562V106.236H191.853V106.059H191.498V105.882H191.144V105.704H190.612V105.527H190.257V105.35H189.902V105.172H189.548V104.995H189.371V104.818H189.016V104.64H188.661V104.463H188.484V104.286H188.129V104.109H187.952V103.931H187.598V103.754H187.42V103.577H187.243V103.399H187.066V103.222H186.888V103.045H186.711V102.867H186.534V102.69H186.356V102.513H186.179V102.336H186.002V102.158H185.824V101.981H185.647V101.626H185.47V101.449H185.293V101.272H185.115V100.917H184.938V100.74H184.761V100.385H184.583V100.208H184.406V100.031H184.229V99.4987H184.051V99.1441H183.874V98.7895H183.697V98.4349H183.52V97.903H183.342V97.5484H183.165V96.8392H182.988V96.13H182.81V95.2435H182.633V90.9882H182.81V89.9244H182.988V89.2152H183.165V88.6833H183.342V88.1514H183.52V87.7968H183.697V87.4422H183.874V86.9103H184.051V86.733H184.229V86.3784H184.406V86.2011H184.583V85.8465H184.761V85.4919H184.938V85.3146H185.115V84.96H185.293V84.7827H185.47V84.428H185.647V84.2507H185.824V84.0734H186.002V83.8961H186.179V83.7188H186.356V83.5415H186.534V83.3642H186.711V83.1869H186.888V83.0096H187.066V82.8323H187.243V82.655H187.42V82.4777H187.775V82.3004H187.952V82.1231H188.307V81.9458H188.484V81.7685H188.839V81.5912H189.016V81.4139H189.193V81.2366H189.548V81.0593H190.08V80.882H190.434V80.7047H190.789V80.5274H191.144V80.3501H191.498V80.1728H192.207V79.9955H192.917V79.8182H193.626V79.6409H195.044V79.4636H197.704V79.6409H198.945V79.8182H199.831V79.9955H200.363V80.1728H200.895V80.3501H201.25V80.5274H201.782V80.7047H202.136V80.882H202.491V81.0593H202.845V81.2366H203.023V81.4139H203.377V81.5912H203.555V81.7685H203.909V81.9458H204.087V82.1231H204.441V82.3004H204.796V82.4777H204.973V82.655H205.15V82.8323H205.328V83.0096H205.505V83.1869H205.682V83.3642H205.86V83.5415H206.037V83.7188H206.214V83.8961H206.391V84.0734H206.569V84.2507H206.746V84.6054H206.923V84.7827H207.101V84.96H207.278V85.3146H207.455V85.4919H207.633V85.8465H207.81V86.0238H207.987V86.3784H208.165V86.733H208.342V87.0876H208.519V87.4422H208.696V87.7968H208.874V88.3287H209.051V88.6833H209.228V89.3925H209.406V90.1017H209.583V90.8109H209.76V95.4208H209.583V96.4846H209.406V97.0165H209.228V97.5484H209.051V98.0803H208.874V98.4349H208.696V98.7895H208.519V99.3214H208.342V99.676H208.165V99.8533H207.987V100.208H207.81V100.385H207.633V100.74H207.455V100.917H207.278V101.272H207.101V101.626H206.923V101.804H206.746V101.981H206.569V102.158H206.391V102.336H206.214V102.513H206.037V102.69H205.86V102.867H205.682V103.045H205.505V103.222H205.328V103.399H205.15V103.577H204.973V103.754H204.618V103.931H204.441V104.109H204.087V104.286H203.909V104.463H203.732V104.64H203.377V104.818H203.2V104.995H202.845V105.172H202.491V105.35H202.136V105.527H201.604V105.704H201.25V105.882H200.895V106.059H200.363V106.236H199.654V106.413H198.768V106.591H198.058V106.768" fill="url(#paint0_radial_81_508)"/>
<path d="M149.3 103.931V103.754H149.123V103.577H148.946V103.222H148.768V102.867H148.591V102.513H148.414V102.158H148.237V101.804H148.059V101.449H147.882V100.917H147.705V100.562H147.527V100.208H147.35V99.8532H147.173V99.4986H146.995V99.144H146.818V98.7894H146.641V98.2575H146.464V97.7256H146.286V97.371H146.109V96.8391H145.932V96.3072H145.754V95.9526H145.577V95.4207H145.4V94.8888H145.222V94.5342H145.045V94.0023H144.868V93.293H144.691V92.7611H144.513V92.2292H144.336V91.52H144.159V90.9881H143.981V90.2789H143.804V89.747H143.627V89.0378H143.449V88.3286H143.272V87.4421H143.095V86.5556H142.918V85.8464H142.74V84.9599H142.563V84.0734H142.386V83.0096H142.208V81.7684H142.031V80.5273H141.854V79.4635H141.676V79.2862H142.74V79.4635H144.159V79.6408H144.868V79.8181H145.577V79.9954H145.932V80.1727H146.464V80.35H146.818V80.5273H147.173V80.7046H147.705V80.8819H147.882V81.0592H148.237V81.2365H148.414V81.4138H148.768V81.5911H149.123V81.7684H149.3V81.9457H149.655V82.123H149.832V82.3003H150.01V82.4776H150.187V82.6549H150.364V82.8322H150.541V83.0096H150.719V83.1869H150.896V83.3642H151.073V83.5415H151.428V83.7188H151.605V83.8961H151.783V84.2507H151.96V84.428H152.137V84.7826H152.314V84.9599H152.492V85.1372H152.669V85.4918H152.846V85.6691H153.024V86.0237H153.201V86.201H153.378V86.5556H153.556V87.0875H153.733V87.4421H153.91V87.7967H154.088V88.1513H154.265V88.6832H154.442V89.3924H154.619V90.2789H154.797V90.9881H154.974V94.7115H154.797V95.9526H154.619V96.6618H154.442V97.371H154.265V97.7256H154.088V98.0802H153.91V98.6121H153.733V98.9667H153.556V99.3213H153.378V99.6759H153.201V99.8532H153.024V100.208H152.846V100.385H152.669V100.74H152.492V100.917H152.314V101.272H152.137V101.449H151.96V101.626H151.783V101.804H151.605V102.158H151.428V102.335H151.251V102.513H151.073V102.69H150.896V102.867H150.719V103.045H150.541V103.222H150.364V103.399H150.01V103.577H149.832V103.754H149.655V103.931" fill="url(#paint1_radial_81_508)"/>
<path d="M177.199 96.5235L177.066 96.7257C176.748 97.1938 175.855 98.3976 174.459 99.4756C173.064 100.555 171.181 101.507 168.851 101.534L168.731 101.536C166.091 101.534 164.199 100.523 162.945 99.5075C162.321 99.0005 161.86 98.4916 161.559 98.1139C161.408 97.9242 161.297 97.7682 161.224 97.66L161.144 97.5377L161.123 97.5022C160.999 97.2913 160.727 97.2186 160.516 97.3427C160.305 97.465 160.233 97.7363 160.357 97.949C160.375 97.9792 161.02 99.0838 162.387 100.195C163.752 101.307 165.857 102.422 168.731 102.422L168.862 102.421C171.803 102.387 174.083 101.015 175.61 99.6742C177.142 98.3302 177.942 97.0076 177.958 96.9828C178.083 96.7735 178.016 96.5005 177.807 96.3729C177.598 96.247 177.325 96.3143 177.199 96.5235Z" fill="#040606"/>
<path d="M170.351 65.8647C171.975 64.2531 173.736 62.8931 175.621 61.8896C177.518 60.9198 179.55 60.3223 181.608 60.3843C183.668 60.3808 185.718 60.9765 187.691 61.863C189.672 62.7478 191.555 63.9517 193.486 65.191C192.147 63.3258 190.466 61.684 188.457 60.4393C187.475 59.778 186.363 59.3205 185.23 58.9021C184.073 58.5493 182.856 58.3436 181.628 58.3117C179.154 58.2798 176.713 59.1237 174.777 60.5173C172.837 61.9091 171.277 63.7531 170.351 65.8647Z" fill="#58311F"/>
<path d="M158.878 65.8184C158.176 64.2404 157.079 62.8627 155.767 61.6996C154.453 60.5454 152.862 59.6022 151.07 59.1589C150.196 58.9266 149.201 58.8149 148.226 58.9674C147.256 59.127 146.313 59.5135 145.561 60.1039C144.038 61.2741 143.191 62.9922 143.001 64.7067C144.02 63.3308 145.171 62.1642 146.464 61.5064C147.758 60.8379 149.121 60.7972 150.584 61.166C152.045 61.4975 153.462 62.1606 154.838 62.9656C156.212 63.7882 157.534 64.7563 158.878 65.8184Z" fill="#58311F"/>
<path d="M185.516 75.0419L185.404 75.1412C184.856 75.6146 182.355 77.5631 178.956 77.5578C177.138 77.5561 175.052 77.0153 172.796 75.377C172.598 75.2334 172.321 75.276 172.178 75.4745C172.034 75.6731 172.077 75.9497 172.275 76.0933C174.663 77.8344 176.959 78.4461 178.956 78.4443C183.236 78.4337 186.087 75.7156 186.126 75.6873C186.303 75.5188 186.312 75.2369 186.144 75.0596C185.975 74.8823 185.693 74.8753 185.516 75.0419Z" fill="#040606"/>
<path d="M158.88 75.3612L158.813 75.4304C158.458 75.785 156.8 77.269 154.348 77.2619C152.759 77.2601 150.799 76.6608 148.529 74.6644C148.345 74.5031 148.065 74.5208 147.903 74.7034C147.742 74.8878 147.758 75.168 147.942 75.3293C150.33 77.4392 152.527 78.152 154.348 78.1484C157.575 78.1396 159.5 75.9889 159.538 75.9534C159.703 75.7726 159.688 75.4924 159.506 75.3275C159.325 75.1644 159.045 75.1786 158.88 75.3612Z" fill="#040606"/>
<path d="M161.329 73.627C162.265 76.3362 161.534 79.5471 159.52 81.586C158.345 82.7757 156.752 83.625 156.006 85.1232C155.329 86.4831 155.511 88.1675 156.233 89.5061C156.953 90.8429 158.153 91.8713 159.456 92.6532C159.456 92.6532 163.552 93.3908 166.231 89.2508C168.912 85.1108 167.862 78.6499 166.222 74.572C164.584 70.4958 161.329 73.627 161.329 73.627Z" fill="url(#paint2_linear_81_508)"/>
<path d="M160.908 73.7722C161.164 74.5098 161.288 75.2917 161.288 76.0754C161.29 77.9903 160.545 79.9211 159.205 81.2757C158.105 82.4069 156.455 83.2632 155.609 84.9246C155.286 85.577 155.141 86.2862 155.141 86.9954C155.141 87.9422 155.396 88.8872 155.841 89.7152C156.618 91.1532 157.884 92.2258 159.228 93.0343C159.439 93.1602 159.71 93.0928 159.836 92.8818C159.962 92.6726 159.894 92.3996 159.685 92.2737C158.424 91.5166 157.29 90.5344 156.623 89.295C156.244 88.5911 156.027 87.7809 156.027 86.9954C156.027 86.4068 156.148 85.8341 156.403 85.3199C157.05 83.9866 158.584 83.1444 159.836 81.898C161.353 80.359 162.174 78.2172 162.174 76.0754C162.174 75.1978 162.036 74.3184 161.747 73.4815C161.667 73.251 161.414 73.1287 161.183 73.2084C160.951 73.2882 160.829 73.54 160.908 73.7722Z" fill="#040606"/>
<path d="M175.834 69.7599C177.417 69.3042 179.064 69.0737 180.711 69.0737C181.589 69.0737 182.466 69.1393 183.333 69.2705C183.576 69.3077 183.801 69.1411 183.839 68.8981C183.876 68.657 183.709 68.4301 183.466 68.3946C182.555 68.2563 181.633 68.1872 180.711 68.1872C178.982 68.1872 177.252 68.4301 175.589 68.9088C175.353 68.9762 175.217 69.2226 175.286 69.4567C175.353 69.6925 175.598 69.829 175.834 69.7599Z" fill="#040606"/>
<path d="M156.031 68.7102C154.497 68.0542 152.873 67.7191 151.245 67.7191C150.733 67.7191 150.221 67.7528 149.712 67.8184C149.469 67.8503 149.297 68.0737 149.329 68.3166C149.361 68.5577 149.584 68.7297 149.825 68.6978C150.297 68.6358 150.772 68.6056 151.245 68.6056C152.752 68.6056 154.258 68.9159 155.681 69.524C155.907 69.6215 156.167 69.5169 156.263 69.2917C156.359 69.0666 156.256 68.806 156.031 68.7102Z" fill="#040606"/>
<path d="M221.918 25.5002C209.588 11.1175 188.566 7.10696 171.656 14.426C162.204 18.5163 154.137 25.8388 148.261 34.7678C145.405 39.1099 142.637 44.0921 141.134 49.1913C140.703 50.6576 139.657 56.0404 139.657 56.0404C139.657 56.0404 143.221 51.6947 150.967 43.7179C157.988 36.4893 162.724 35.055 162.724 35.055C162.403 45.8615 170.036 56.2815 179.849 58.4322C178.757 55.6876 178.364 52.622 178.72 49.6558C182.669 56.3702 189.369 60.7602 196.406 63.1414C203.441 65.5243 210.883 66.1023 218.244 66.6644C220.517 72.244 223.616 77.4284 227.384 81.9673C230.503 80.4939 231.827 76.5401 232.538 72.9515C235.818 56.3862 232.547 37.9007 221.918 25.5002Z" fill="#58311F"/>
<path d="M220.012 74.987C215.246 82.6056 214.102 90.1604 219.508 93.5416C224.914 96.9227 234.82 94.8519 239.586 87.2314C244.354 79.6128 243.836 70.6927 238.43 67.3116C233.024 63.9304 224.778 67.3665 220.012 74.987Z" fill="#F89E6B"/>
<path d="M241.971 71.1964L241.823 71.1928C240.487 71.1822 230.308 71.762 219.836 87.3095C219.7 87.5134 219.753 87.7883 219.957 87.9248C220.159 88.0613 220.436 88.0081 220.572 87.806C230.914 72.4854 240.721 72.09 241.823 72.0793L241.925 72.0811C242.169 72.0935 242.378 71.9056 242.391 71.6609C242.403 71.418 242.215 71.2088 241.971 71.1964Z" fill="#040606"/>
<path d="M258.093 47.2744C258.091 47.2655 258.089 47.2567 258.087 47.2478C258.089 47.2567 258.091 47.2655 258.093 47.2744ZM258.08 47.2053C258.077 47.1964 258.075 47.1858 258.073 47.1751C258.075 47.1858 258.077 47.1964 258.08 47.2053ZM258.061 47.1131C258.059 47.1078 258.057 47.0971 258.057 47.09C258.059 47.0989 258.059 47.106 258.061 47.1131ZM258.047 47.0439C258.045 47.0368 258.043 47.028 258.043 47.0209C258.045 47.028 258.045 47.035 258.047 47.0439Z" fill="#066F6A"/>
<path d="M256.162 49.6982C253.054 49.6982 249.937 49.4004 246.898 48.8454C241.639 47.888 236.559 46.2355 231.606 44.2143C229.932 38.147 227.269 32.4539 223.574 27.5586C227.98 28.3085 232.444 28.6631 236.923 28.6631C241.543 28.6631 246.178 28.2873 250.775 27.5799C254.236 33.7801 256.72 40.4803 258.043 47.021C258.043 47.0281 258.045 47.0369 258.047 47.044C258.05 47.0582 258.054 47.0759 258.057 47.0901C258.057 47.0972 258.059 47.1079 258.061 47.1132C258.066 47.1344 258.07 47.1557 258.073 47.1752C258.075 47.1858 258.077 47.1965 258.08 47.2054C258.082 47.2196 258.086 47.2337 258.087 47.2479C258.089 47.2568 258.091 47.2656 258.093 47.2745C258.098 47.2958 258.102 47.3188 258.107 47.3401C258.258 48.1061 258.366 48.8756 258.493 49.6415C257.719 49.6805 256.94 49.6982 256.162 49.6982ZM143.141 25.0285C147.288 18.447 153.272 13.0553 160.086 9.10498C165.965 9.72021 171.788 10.8638 177.537 12.3744C175.536 12.9134 173.569 13.5961 171.656 14.4258C167.41 16.2627 163.442 18.7537 159.828 21.7484C154.167 22.2306 148.559 23.3246 143.141 25.0285Z" fill="#9A623E"/>
<path d="M231.606 44.2144C226.916 42.2995 222.34 40.0531 217.829 37.7517C208.556 33.0195 199.358 27.9824 189.413 24.9027C182.009 22.6084 174.259 21.4648 166.507 21.4648C164.279 21.4648 162.048 21.5588 159.828 21.7485C163.442 18.7538 167.41 16.2628 171.656 14.4259C173.569 13.5962 175.536 12.9135 177.537 12.3745C185.073 14.3532 192.479 16.9631 199.711 19.8389C204.798 21.8602 209.844 24.0197 215.09 25.5835C217.884 26.4168 220.716 27.0711 223.574 27.5586C227.269 32.4539 229.932 38.1471 231.606 44.2144Z" fill="#9A623E"/>
<path d="M142.059 199.065C150.309 197.776 159.27 198.813 167.319 200.857C170.135 201.572 173.193 202.697 174.497 205.293C174.665 205.628 174.803 205.986 175.043 206.275C175.319 206.609 175.711 206.823 176.085 207.041C178.401 208.384 178.979 210.002 180.044 212.19C180.839 213.82 181.42 216.172 179.154 217.112C180.199 218.532 178.908 220.685 177.216 221.179C175.523 221.676 173.732 221.08 172.05 220.557C169.692 219.825 167.295 219.229 164.869 218.77C163.539 218.518 162.188 218.307 160.837 218.396C158.086 218.577 155.58 219.972 152.96 220.834C145.619 223.247 137.605 223.41 130.049 221.951C126.497 221.264 121.081 221.332 118.686 218.21C117.421 216.562 115.299 212.352 115.877 210.18C115.702 206.887 117.522 206.272 120.404 205.587C127.71 203.85 134.644 200.222 142.059 199.065Z" fill="#F89E6B"/>
<path d="M174.555 206.665C169.327 204.855 163.946 203.481 158.488 202.561C158.247 202.52 158.018 202.683 157.978 202.924C157.937 203.165 158.1 203.394 158.341 203.435C163.751 204.348 169.082 205.71 174.266 207.504C174.497 207.584 174.75 207.461 174.83 207.229C174.91 206.999 174.788 206.745 174.555 206.665Z" fill="#4F4C4D"/>
<path d="M178.395 212.172C172.623 209.949 166.665 208.209 160.603 206.981C160.364 206.933 160.13 207.087 160.082 207.326C160.032 207.568 160.188 207.802 160.428 207.85C166.44 209.069 172.351 210.794 178.076 213C178.305 213.087 178.56 212.974 178.649 212.745C178.738 212.518 178.622 212.261 178.395 212.172Z" fill="#4F4C4D"/>
<path d="M178.305 216.807C172.757 214.449 166.883 212.86 160.903 212.102C160.66 212.07 160.438 212.242 160.407 212.485C160.376 212.727 160.548 212.949 160.791 212.981C166.69 213.731 172.486 215.297 177.958 217.623C178.183 217.718 178.443 217.614 178.539 217.389C178.635 217.163 178.53 216.903 178.305 216.807Z" fill="#4F4C4D"/>
<path d="M196.411 286.543C191.046 290.151 187.264 295.339 182.768 299.917C180.321 302.41 177.849 304.922 174.95 306.875C172.358 308.623 169.802 310.171 166.851 311.296C163.364 312.63 159.875 313.961 156.385 315.295C155.289 315.715 154.171 316.139 152.999 316.194C151.827 316.248 150.572 315.873 149.848 314.951C148.586 315.259 147.298 315.568 146.002 315.479C144.705 315.39 143.373 314.841 142.655 313.759C142.501 313.529 142.371 313.272 142.141 313.117C141.946 312.986 141.701 312.949 141.479 312.866C140.682 312.561 140.251 311.642 140.27 310.786C140.29 309.933 140.669 309.13 141.07 308.375C140.455 308.018 140.3 307.171 140.469 306.481C140.698 305.539 141.382 304.761 142.182 304.217C142.981 303.674 143.9 303.336 144.807 303.002C146.573 302.352 148.339 301.699 150.103 301.041C151.479 300.529 152.862 300.011 154.139 299.282C156.609 297.878 158.557 295.758 160.259 293.52C161.057 292.471 161.766 291.352 162.642 290.384C163.171 289.799 163.913 289.011 163.569 288.121C163.172 287.098 161.772 286.983 160.69 287.171C156.309 287.932 152.474 290.753 148.075 291.398C147.394 291.497 146.607 291.51 146.125 291.017C145.299 290.174 146.063 288.784 146.827 287.884C149.547 284.682 152.343 281.414 155.988 279.324C162.241 275.739 169.92 274.106 176.922 272.726C180.784 271.966 184.573 271.482 188.255 270.471C188.255 270.471 208.843 239.525 220.513 230.92C220.513 230.92 233.799 215.619 247.985 229.536C247.985 229.536 250.174 238.8 241.659 250.232C233.146 261.666 196.411 286.543 196.411 286.543Z" fill="#F89E6B"/>
<path d="M141.589 308.715C147.332 307.873 152.96 306.243 158.265 303.889C158.49 303.79 158.591 303.527 158.492 303.304C158.391 303.08 158.13 302.979 157.907 303.079C152.674 305.401 147.125 307.008 141.46 307.837C141.219 307.873 141.05 308.098 141.086 308.341C141.121 308.582 141.347 308.75 141.589 308.715Z" fill="#4F4C4D"/>
<path d="M142.864 313.422C149.143 312.076 155.254 309.951 161.013 307.107C161.233 306.997 161.321 306.733 161.213 306.513C161.105 306.293 160.839 306.202 160.619 306.311C154.928 309.123 148.885 311.224 142.678 312.555C142.439 312.607 142.286 312.842 142.338 313.082C142.389 313.321 142.625 313.474 142.864 313.422Z" fill="#4F4C4D"/>
<path d="M150.543 314.83C155.336 313.497 160.013 311.761 164.515 309.642C164.736 309.539 164.832 309.275 164.727 309.053C164.623 308.832 164.358 308.736 164.137 308.841C159.681 310.936 155.05 312.656 150.306 313.975C150.07 314.041 149.931 314.286 149.997 314.521C150.063 314.757 150.307 314.895 150.543 314.83Z" fill="#4F4C4D"/>
<path d="M220.868 230.869C223.959 228.142 227.781 226.241 231.82 225.427C232.059 225.378 232.215 225.145 232.168 224.904C232.118 224.665 231.886 224.509 231.645 224.559C227.45 225.404 223.49 227.372 220.281 230.204C220.099 230.365 220.081 230.645 220.242 230.83C220.405 231.012 220.686 231.03 220.868 230.869Z" fill="#4F4C4D"/>
<path d="M203.558 115.034C204.544 124.844 199.642 134.135 196.532 143.493C192.784 154.772 191.569 166.886 193.003 178.683C199.977 180.127 207.156 180.584 214.257 180.038C213.698 173.173 213.519 166.058 215.982 159.623C218.707 152.503 224.388 146.93 227.951 140.188C230.877 134.651 232.322 128.337 232.095 122.078" fill="#58311F"/>
<path d="M226.677 143.262C227.265 142.328 227.824 141.374 228.343 140.395C231.104 135.168 232.561 129.268 232.561 123.358C232.561 122.926 232.552 122.495 232.538 122.062C232.529 121.817 232.324 121.626 232.079 121.635C231.834 121.644 231.643 121.849 231.652 122.094C231.666 122.516 231.675 122.936 231.675 123.358C231.675 129.121 230.251 134.885 227.56 139.98C227.052 140.936 226.505 141.87 225.927 142.789C225.795 142.996 225.857 143.271 226.065 143.4C226.272 143.532 226.545 143.47 226.677 143.262Z" fill="#040606"/>
<path d="M303.115 164.175H302.672C302.672 166.767 301.624 169.109 299.925 170.808C298.227 172.507 295.883 173.554 293.291 173.554C290.7 173.554 288.358 172.507 286.66 170.808C284.961 169.109 283.911 166.767 283.911 164.175C283.911 161.585 284.961 159.241 286.66 157.542C288.358 155.846 290.7 154.796 293.291 154.796C295.883 154.796 298.227 155.846 299.925 157.542C301.624 159.241 302.672 161.585 302.672 164.175H303.115H303.558C303.558 158.505 298.963 153.909 293.291 153.909C287.622 153.909 283.025 158.505 283.025 164.175C283.025 169.845 287.622 174.441 293.291 174.441C298.963 174.441 303.558 169.845 303.558 164.175H303.115Z" fill="#4F4C4D"/>
<path d="M115.78 58.8965H115.336C115.336 61.4887 114.287 63.8308 112.59 65.5294C110.891 67.2279 108.547 68.2776 105.957 68.2776C103.365 68.2776 101.023 67.2279 99.3242 65.5294C97.6256 63.8308 96.5778 61.4887 96.5778 58.8965C96.5778 56.3062 97.6256 53.964 99.3242 52.2655C101.023 50.5669 103.365 49.5173 105.957 49.5173C108.547 49.5173 110.891 50.5669 112.59 52.2655C114.287 53.964 115.336 56.3062 115.336 58.8965H115.78H116.223C116.223 53.2282 111.627 48.6326 105.957 48.6308C100.287 48.6326 95.6913 53.2282 95.6913 58.8965C95.6913 64.5684 100.287 69.1641 105.957 69.1641C111.627 69.1641 116.223 64.5684 116.223 58.8965H115.78Z" fill="#4F4C4D"/>
<path d="M91.0586 86.3129C91.0586 88.0664 89.6385 89.4849 87.8867 89.4849C86.1332 89.4849 84.713 88.0664 84.713 86.3129C84.713 84.5612 86.1332 83.141 87.8867 83.141C89.6385 83.141 91.0586 84.5612 91.0586 86.3129Z" fill="#4F4C4D"/>
<path d="M289.814 122.078C289.814 123.83 288.393 125.252 286.64 125.252C284.888 125.252 283.468 123.83 283.468 122.078C283.468 120.327 284.888 118.906 286.64 118.906C288.393 118.906 289.814 120.327 289.814 122.078Z" fill="#4F4C4D"/>
<defs>
<radialGradient id="paint0_radial_81_508" cx="0" cy="0" r="1" gradientUnits="userSpaceOnUse" gradientTransform="translate(196.2 93.1282) rotate(-164.71) scale(13.58)">
<stop stop-color="#F57D67"/>
<stop offset="1" stop-color="#F89E6B"/>
</radialGradient>
<radialGradient id="paint1_radial_81_508" cx="0" cy="0" r="1" gradientUnits="userSpaceOnUse" gradientTransform="translate(141.357 92.9579) rotate(-164.71) scale(13.5799)">
<stop stop-color="#F57D67"/>
<stop offset="1" stop-color="#F89E6B"/>
</radialGradient>
<linearGradient id="paint2_linear_81_508" x1="158.194" y1="91.1869" x2="164.482" y2="80.2269" gradientUnits="userSpaceOnUse">
<stop stop-color="#F57557"/>
<stop offset="0.999628" stop-color="#F89E6B"/>
<stop offset="1" stop-color="#F89E6B"/>
</linearGradient>
</defs>
</svg>
